<svg width="19" height="19" viewBox="0 0 19 19" fill="none" xmlns="http://www.w3.org/2000/svg">
<path d="M5.71654 19C5.22752 19 4.81033 18.832 4.46497 18.496C4.11895 18.1593 3.94593 17.753 3.94593 17.2772C3.94593 16.8014 4.11895 16.3951 4.46497 16.0584C4.81033 15.7224 5.22752 15.5544 5.71654 15.5544C6.20557 15.5544 6.62276 15.7224 6.96811 16.0584C7.31414 16.3951 7.48715 16.8014 7.48715 17.2772C7.48715 17.753 7.31414 18.1593 6.96811 18.496C6.62276 18.832 6.20557 19 5.71654 19ZM15.5308 19C15.0418 19 14.6246 18.832 14.2792 18.496C13.9332 18.1593 13.7602 17.753 13.7602 17.2772C13.7602 16.8014 13.9332 16.3951 14.2792 16.0584C14.6246 15.7224 15.0418 15.5544 15.5308 15.5544C16.0198 15.5544 16.437 15.7224 16.7824 16.0584C17.1284 16.3951 17.3014 16.8014 17.3014 17.2772C17.3014 17.753 17.1284 18.1593 16.7824 18.496C16.437 18.832 16.0198 19 15.5308 19ZM4.89891 3.4456C4.75096 3.4456 4.65422 3.60067 4.71928 3.73355L7.13303 8.66321H14.0384C14.089 8.66321 14.1396 8.65074 14.1902 8.6258C14.2408 8.60152 14.2745 8.56477 14.2914 8.51554L17.0232 3.71632C17.0569 3.65069 17.0569 3.58933 17.0232 3.53223C16.9894 3.47447 16.9388 3.4456 16.8714 3.4456H4.89891ZM3.57074 1.40761C3.7384 1.75106 4.08717 1.96891 4.46937 1.96891H17.8832C18.3047 1.96891 18.6211 2.14119 18.8322 2.48575C19.0427 2.83031 19.0551 3.18307 18.8696 3.54404L15.6067 9.25389C15.4549 9.53281 15.2401 9.75005 14.9622 9.9056C14.6836 10.0618 14.3841 10.1399 14.0637 10.1399H6.67773L5.51419 12.2319C5.4636 12.3139 5.45955 12.3959 5.50205 12.478C5.54387 12.56 5.61536 12.601 5.71654 12.601H16.5631C16.9708 12.601 17.3014 12.9316 17.3014 13.3394C17.3014 13.7472 16.9708 14.0777 16.5631 14.0777H5.71654C5.04202 14.0777 4.53614 13.7949 4.19888 13.2291C3.86162 12.6627 3.85319 12.1006 4.17358 11.5427L5.61536 9.00777L1.92238 1.47668H0.738342C0.330567 1.47668 0 1.14612 0 0.738342C0 0.330567 0.330567 0 0.738342 0H2.25895C2.64115 0 2.98991 0.217848 3.15758 0.561302L3.57074 1.40761Z" fill="#424242"/>
</svg>
