<svg width="14" height="20" viewBox="0 0 14 20" fill="none" xmlns="http://www.w3.org/2000/svg">
<path fillRule="evenodd" clipRule="evenodd" d="M1.5 11.942V19.25C1.5 19.6642 1.16421 20 0.75 20C0.335787 20 0 19.6642 0 19.25V0.75C0 0.335786 0.335787 0 0.75 0C0.754605 0 0.759199 4.14861e-05 0.763784 0.000124109C0.768438 4.14849e-05 0.773103 0 0.777777 0L0.781929 0.000667348C0.842048 0.00318523 0.900339 0.0127803 0.955988 0.0286412L13.2222 2C13.5368 2 13.8204 2.19068 13.9408 2.48312C14.0612 2.77556 13.9946 3.11217 13.7722 3.336L10.137 6L13.7722 9.664C13.9946 9.88783 14.0612 10.2244 13.9408 10.5169C13.8204 10.8093 13.5368 11 13.2222 11L1.5 11.942ZM11.3445 9.43478L1.55555 10.4348L1.55555 1.56522L11.3445 3.56522L8.48705 5.44661C8.18331 5.75224 8.18331 6.24776 8.48705 6.55339L11.3445 9.43478Z" fill="#424242"/>
</svg>
