<svg width="71" height="23" viewBox="0 0 71 23" fill="none" xmlns="http://www.w3.org/2000/svg">
<path d="M14.424 9.816V11.112H21.36C21.696 11.112 21.984 11.168 22.224 11.28C22.464 11.392 22.656 11.544 22.8 11.736C22.96 11.912 23.072 12.112 23.136 12.336C23.2 12.56 23.232 12.784 23.232 13.008C23.232 13.232 23.192 13.456 23.112 13.68C23.048 13.904 22.944 14.104 22.8 14.28C22.656 14.456 22.464 14.6 22.224 14.712C21.984 14.824 21.696 14.88 21.36 14.88H2.64C2.304 14.88 2.016 14.824 1.776 14.712C1.536 14.6 1.344 14.456 1.2 14.28C1.056 14.104 0.944 13.904 0.864 13.68C0.8 13.456 0.768 13.232 0.768 13.008C0.768 12.784 0.8 12.56 0.864 12.336C0.928 12.112 1.032 11.912 1.176 11.736C1.336 11.544 1.536 11.392 1.776 11.28C2.016 11.168 2.304 11.112 2.64 11.112H9.576V9.816H6.792C5.912 9.816 5.144 9.704 4.488 9.48C3.832 9.256 3.288 8.944 2.856 8.544C2.424 8.128 2.096 7.64 1.872 7.08C1.664 6.52 1.56 5.896 1.56 5.208C1.56 4.52 1.664 3.896 1.872 3.336C2.096 2.76 2.424 2.264 2.856 1.848C3.288 1.432 3.832 1.112 4.488 0.887999C5.144 0.647999 5.912 0.527999 6.792 0.527999H17.304C18.184 0.527999 18.952 0.647999 19.608 0.887999C20.264 1.112 20.808 1.432 21.24 1.848C21.672 2.264 21.992 2.76 22.2 3.336C22.424 3.896 22.536 4.52 22.536 5.208C22.536 5.896 22.424 6.52 22.2 7.08C21.992 7.64 21.672 8.128 21.24 8.544C20.808 8.944 20.264 9.256 19.608 9.48C18.952 9.704 18.184 9.816 17.304 9.816H14.424ZM5.4 22.824C4.728 22.824 4.168 22.76 3.72 22.632C3.272 22.52 2.92 22.328 2.664 22.056C2.408 21.784 2.224 21.432 2.112 21C2.016 20.552 1.968 20 1.968 19.344V17.88C1.968 17.064 2.216 16.472 2.712 16.104C3.208 15.736 3.792 15.552 4.464 15.552C5.136 15.552 5.704 15.736 6.168 16.104C6.648 16.472 6.888 17.064 6.888 17.88V18.624C6.888 18.896 6.928 19.048 7.008 19.08C7.088 19.096 7.264 19.104 7.536 19.104H20.472C21.208 19.104 21.728 19.296 22.032 19.68C22.336 20.048 22.488 20.472 22.488 20.952C22.488 21.448 22.328 21.88 22.008 22.248C21.704 22.632 21.192 22.824 20.472 22.824H5.4ZM16.104 6.312C16.68 6.312 17.072 6.208 17.28 6C17.504 5.792 17.616 5.528 17.616 5.208C17.616 4.872 17.504 4.608 17.28 4.416C17.072 4.224 16.68 4.128 16.104 4.128H7.992C7.416 4.128 7.016 4.224 6.792 4.416C6.584 4.608 6.48 4.872 6.48 5.208C6.48 5.528 6.584 5.792 6.792 6C7.016 6.208 7.416 6.312 7.992 6.312H16.104ZM52.872 21.744C52.152 21.744 51.56 21.68 51.096 21.552C50.632 21.44 50.272 21.248 50.016 20.976C49.76 20.704 49.584 20.336 49.488 19.872C49.392 19.408 49.344 18.832 49.344 18.144V3.432C49.344 2.616 49.56 2.024 49.992 1.656C50.44 1.288 51 1.104 51.672 1.104C52.344 1.104 52.888 1.288 53.304 1.656C53.72 2.024 53.928 2.616 53.928 3.432V17.112C53.928 17.384 53.968 17.56 54.048 17.64C54.144 17.704 54.328 17.736 54.6 17.736H58.464C58.848 17.736 59.168 17.792 59.424 17.904C59.696 18.016 59.912 18.168 60.072 18.36C60.232 18.552 60.344 18.768 60.408 19.008C60.472 19.248 60.504 19.496 60.504 19.752C60.504 20.008 60.464 20.256 60.384 20.496C60.32 20.736 60.208 20.944 60.048 21.12C59.904 21.312 59.696 21.464 59.424 21.576C59.168 21.688 58.848 21.744 58.464 21.744H52.872ZM61.248 12.192H58.752C58.384 12.192 58.072 12.136 57.816 12.024C57.576 11.896 57.368 11.736 57.192 11.544C57.032 11.336 56.912 11.112 56.832 10.872C56.768 10.616 56.736 10.368 56.736 10.128C56.736 9.888 56.768 9.648 56.832 9.408C56.912 9.152 57.032 8.928 57.192 8.736C57.352 8.544 57.56 8.384 57.816 8.256C58.072 8.128 58.384 8.064 58.752 8.064H61.248V2.328C61.248 1.656 61.456 1.152 61.872 0.816C62.304 0.463999 62.8 0.287999 63.36 0.287999C63.632 0.287999 63.896 0.335999 64.152 0.431999C64.408 0.511999 64.64 0.639999 64.848 0.816C65.056 0.991999 65.216 1.208 65.328 1.464C65.456 1.704 65.52 1.992 65.52 2.328V22.824H61.248V12.192ZM66.672 2.328C66.672 1.656 66.888 1.152 67.32 0.816C67.752 0.463999 68.248 0.287999 68.808 0.287999C69.08 0.287999 69.344 0.335999 69.6 0.431999C69.856 0.511999 70.088 0.639999 70.296 0.816C70.504 0.991999 70.664 1.208 70.776 1.464C70.904 1.704 70.968 1.992 70.968 2.328V22.824H66.672V2.328Z" fill="#BDBDBD"/>
<path d="M31.176 3.96C30.952 3.96 30.792 4 30.696 4.08C30.616 4.144 30.576 4.272 30.576 4.464V4.824C30.576 5.048 30.616 5.192 30.696 5.256C30.792 5.32 30.952 5.352 31.176 5.352H44.616C45.224 5.352 45.656 5.528 45.912 5.88C46.168 6.232 46.296 6.616 46.296 7.032C46.296 7.448 46.168 7.824 45.912 8.16C45.656 8.48 45.224 8.64 44.616 8.64H38.424V10.008H45.36C45.696 10.008 45.984 10.064 46.224 10.176C46.464 10.272 46.656 10.408 46.8 10.584C46.96 10.744 47.072 10.936 47.136 11.16C47.2 11.368 47.232 11.584 47.232 11.808C47.232 12.272 47.088 12.688 46.8 13.056C46.512 13.408 46.032 13.584 45.36 13.584H26.64C25.968 13.584 25.488 13.408 25.2 13.056C24.912 12.688 24.768 12.272 24.768 11.808C24.768 11.584 24.8 11.368 24.864 11.16C24.928 10.936 25.032 10.744 25.176 10.584C25.336 10.408 25.536 10.272 25.776 10.176C26.016 10.064 26.304 10.008 26.64 10.008H33.576V8.64H28.92C28.28 8.64 27.752 8.6 27.336 8.52C26.936 8.424 26.616 8.264 26.376 8.04C26.136 7.8 25.968 7.488 25.872 7.104C25.792 6.704 25.752 6.2 25.752 5.592V3.72C25.752 3.112 25.792 2.608 25.872 2.208C25.968 1.808 26.136 1.496 26.376 1.272C26.616 1.032 26.936 0.863999 27.336 0.767999C27.752 0.671999 28.28 0.623999 28.92 0.623999H44.544C45.168 0.623999 45.6 0.799999 45.84 1.152C46.096 1.488 46.224 1.864 46.224 2.28C46.224 2.712 46.096 3.104 45.84 3.456C45.584 3.792 45.152 3.96 44.544 3.96H31.176ZM42.096 14.736C42.848 14.736 43.504 14.84 44.064 15.048C44.624 15.256 45.088 15.544 45.456 15.912C45.824 16.28 46.096 16.712 46.272 17.208C46.464 17.704 46.56 18.24 46.56 18.816C46.56 19.392 46.464 19.928 46.272 20.424C46.096 20.92 45.824 21.352 45.456 21.72C45.088 22.088 44.624 22.376 44.064 22.584C43.504 22.792 42.848 22.896 42.096 22.896H29.904C29.152 22.896 28.496 22.792 27.936 22.584C27.376 22.376 26.912 22.088 26.544 21.72C26.176 21.352 25.896 20.92 25.704 20.424C25.528 19.928 25.44 19.392 25.44 18.816C25.44 18.24 25.528 17.704 25.704 17.208C25.896 16.712 26.176 16.28 26.544 15.912C26.912 15.544 27.376 15.256 27.936 15.048C28.496 14.84 29.152 14.736 29.904 14.736H42.096ZM40.656 19.632C41.056 19.632 41.328 19.552 41.472 19.392C41.616 19.232 41.688 19.04 41.688 18.816C41.688 18.592 41.616 18.4 41.472 18.24C41.328 18.08 41.056 18 40.656 18H31.344C30.944 18 30.672 18.08 30.528 18.24C30.384 18.4 30.312 18.592 30.312 18.816C30.312 19.04 30.384 19.232 30.528 19.392C30.672 19.552 30.944 19.632 31.344 19.632H40.656Z" fill="#9E9E9E"/>
</svg>
