<svg width="24" height="40" viewBox="0 0 24 40" fill="none" xmlns="http://www.w3.org/2000/svg">
<mask id="mask0_590_11192" style="mask-type:alpha" maskUnits="userSpaceOnUse" x="0" y="0" width="24" height="24">
<rect width="24" height="24" fill="#D9D9D9"/>
</mask>
<g mask="url(#mask0_590_11192)">
<path d="M4.5 21C4.22386 21 4 20.7761 4 20.5V9.5C4 9.18524 4.14819 8.88885 4.4 8.7L11.4 3.45C11.7556 3.18333 12.2444 3.18333 12.6 3.45L19.6 8.7C19.8518 8.88885 20 9.18524 20 9.5V20.5C20 20.7761 19.7761 21 19.5 21H14V14H10V21H4.5Z" fill="#0B806F"/>
</g>
<path d="M15.3462 36.0127H8.61084V38.8379H15.3462V36.0127ZM7.56885 35.4434H16.4204V34.498H12.5854V33.9341C14.2827 33.8535 15.2119 33.3916 15.2173 32.5645C15.2119 31.6514 14.0625 31.1895 11.9839 31.1895C9.92676 31.1895 8.76123 31.6514 8.76123 32.5645C8.76123 33.3916 9.70654 33.8535 11.3931 33.9341V34.498H7.56885V35.4434ZM8.00928 30.8887H15.937V29.9863H12.5854V29.1377H11.3931V29.9863H8.00928V30.8887ZM9.79248 37.9355V36.915H14.186V37.9355H9.79248ZM10.0396 32.5645C10.0396 32.1724 10.7002 32.0005 11.9839 31.9951C13.2891 32.0005 13.9336 32.1724 13.939 32.5645C13.9336 32.9458 13.2891 33.1338 11.9839 33.1338C10.7002 33.1338 10.0396 32.9458 10.0396 32.5645Z" fill="#0B806F"/>
</svg>
