<svg width="29" height="40" viewBox="0 0 29 40" fill="none" xmlns="http://www.w3.org/2000/svg">
<path d="M8.5 22V14.1429M8.5 14.1429V2L23.5 4.31293L20.125 7.78231L23.5 11.2517L8.5 14.1429Z" stroke="#BDBDBD" strokeWidth="1.5" strokeLinecap="round" strokeLinejoin="round"/>
<path d="M8.15674 29.2773H7.13623V36.249H8.15674V32.9189H9.56396V32.0703H8.15674V29.2773ZM1.02393 34.584H1.78662C3.84912 34.584 4.98779 34.5195 6.2876 34.2617L6.16943 33.4346C4.96094 33.6816 3.9082 33.7407 2.03369 33.7354V30.9316H5.3208V30.1045H1.02393V34.584ZM2.05518 38.709H8.56494V37.8818H3.07568V35.5293H2.05518V38.709ZM17.7817 29.6748H11.1323V30.4912H16.7612C16.7612 31.0391 16.7397 31.6514 16.5894 32.4785L17.5991 32.5645C17.771 31.6299 17.771 30.8833 17.7817 30.2764V29.6748ZM10.1118 33.8643H18.8667V33.0586H14.6235V31.4688H13.6245V33.0586H10.1118V33.8643ZM11.1323 35.4863H16.7935V36.335H11.1431V38.8164H18.0503V38H12.1636V37.0439H17.8032V34.6592H11.1323V35.4863ZM21.9712 31.0176V30.7598H22.6587V29.9326H19.855V30.7598H21.0259V31.0176C21.0259 31.9844 20.6016 33.209 19.5005 33.7891L20.0483 34.5303C20.7842 34.1489 21.2407 33.4722 21.4985 32.7256C21.7241 33.4829 22.1431 34.2026 22.8843 34.627C23.6309 34.208 24.0498 33.4829 24.27 32.7148C24.5278 33.4668 24.9844 34.1436 25.731 34.5303L26.2681 33.7891C25.1616 33.2305 24.748 32.0005 24.7534 31.0176V30.7598H25.8599V29.9326H23.1099V30.7598H23.7759V31.0176C23.7705 31.7856 23.5771 32.8062 22.8843 33.5098C22.1699 32.79 21.9712 31.748 21.9712 31.0176ZM21.2192 38.7949H27.729V35.4111H21.2192V38.7949ZM22.229 37.9678V36.2168H26.73V37.9678H22.229ZM26.7085 34.917H27.729V29.2773H26.7085V34.917Z" fill="#BDBDBD"/>
</svg>
