<svg width="29" height="40" viewBox="0 0 29 40" fill="none" xmlns="http://www.w3.org/2000/svg">
<path d="M22 14C21.1716 14 20.5 13.3284 20.5 12.5C20.5 11.6716 21.1716 11 22 11C22.8284 11 23.5 11.6716 23.5 12.5C23.5 13.3284 22.8284 14 22 14Z" fill="#BDBDBD"/>
<path d="M15 14C14.1716 14 13.5 13.3284 13.5 12.5C13.5 11.6716 14.1716 11 15 11C15.8284 11 16.5 11.6716 16.5 12.5C16.5 13.3284 15.8284 14 15 14Z" fill="#BDBDBD"/>
<path d="M8 14C7.17157 14 6.5 13.3284 6.5 12.5C6.5 11.6716 7.17157 11 8 11C8.82843 11 9.5 11.6716 9.5 12.5C9.5 13.3284 8.82843 14 8 14Z" fill="#BDBDBD"/>
<path d="M5.48193 30.1797H1.06689V36.5713H1.82959C3.64502 36.5713 4.81592 36.5122 6.20166 36.249L6.0835 35.4111C4.81592 35.6528 3.71484 35.7119 2.09814 35.7227V31.0283H5.48193V30.1797ZM4.93408 33.5742H7.60889V38.9346H8.62939V29.2881H7.60889V32.7256H4.93408V33.5742ZM18.9097 36.8721H14.9888V34.8955H17.8677V29.9434H16.8579V31.5977H12.1313V29.9434H11.1108V34.8955H13.979V36.8721H10.1011V37.7207H18.9097V36.8721ZM12.1313 34.0684V32.4248H16.8579V34.0684H12.1313ZM27.6108 29.2881H26.5796V38.9131H27.6108V29.2881ZM19.7046 36.335L20.2417 37.1621C23.5449 35.5776 24.7427 33.1392 24.7427 30.3193H20.1665V31.1357H23.7114C23.5127 33.3809 22.2612 35.1157 19.7046 36.335Z" fill="#BDBDBD"/>
</svg>
