<svg width="39" height="40" viewBox="0 0 39 40" fill="none" xmlns="http://www.w3.org/2000/svg">
<path d="M14 21.8C13.3 21.8 12.7083 21.5583 12.225 21.075C11.7417 20.5917 11.5 20 11.5 19.3V17.8C11.5 17.2477 11.9477 16.8 12.5 16.8H14.5V4.08497C14.5 3.65814 15.0003 3.42756 15.3248 3.70485L15.5559 3.90233C15.7404 4.06001 16.0116 4.0624 16.1988 3.90798L16.9791 3.26462C17.1651 3.11127 17.434 3.11244 17.6186 3.2674L18.3786 3.90522C18.5645 4.06124 18.8355 4.06124 19.0214 3.90522L19.7786 3.26978C19.9645 3.11376 20.2355 3.11376 20.4214 3.26978L21.1786 3.90522C21.3645 4.06124 21.6355 4.06124 21.8214 3.90522L22.5786 3.26978C22.7645 3.11376 23.0355 3.11376 23.2214 3.26978L23.9786 3.90522C24.1645 4.06124 24.4355 4.06124 24.6214 3.90522L25.3814 3.2674C25.566 3.11244 25.8349 3.11127 26.0209 3.26462L26.8012 3.90798C26.9884 4.0624 27.2596 4.06001 27.4441 3.90233L27.6752 3.70485C27.9997 3.42756 28.5 3.65814 28.5 4.08497V19.3C28.5 20 28.2583 20.5917 27.775 21.075C27.2917 21.5583 26.7 21.8 26 21.8H14ZM26 20.3C26.2833 20.3 26.5207 20.204 26.712 20.012C26.904 19.8207 27 19.5833 27 19.3V5.3H16V16.8H24C24.5523 16.8 25 17.2477 25 17.8V19.3C25 19.5833 25.096 19.8207 25.288 20.012C25.4793 20.204 25.7167 20.3 26 20.3ZM17.95 9.05C17.5358 9.05 17.2 8.71421 17.2 8.3C17.2 7.88579 17.5358 7.55 17.95 7.55H25.125C25.5392 7.55 25.875 7.88579 25.875 8.3C25.875 8.71421 25.5392 9.05 25.125 9.05H17.95ZM17.95 12.05C17.5358 12.05 17.2 11.7142 17.2 11.3C17.2 10.8858 17.5358 10.55 17.95 10.55H23.125C23.5392 10.55 23.875 10.8858 23.875 11.3C23.875 11.7142 23.5392 12.05 23.125 12.05H17.95ZM14 20.3H23.5V18.3H13V19.3C13 19.5833 13.0957 19.8207 13.287 20.012C13.479 20.204 13.7167 20.3 14 20.3Z" fill="#BDBDBD"/>
<path d="M9.61719 34.7129H0.84082V35.54H4.70801V38.9023H5.70703V35.54H9.61719V34.7129ZM1.33496 33.1768L1.72168 33.9824C3.2793 33.7354 4.63818 32.9565 5.229 31.8608C5.81445 32.9565 7.17871 33.7354 8.75781 33.9824L9.13379 33.1768C7.31299 32.9297 5.83057 31.8608 5.81445 30.6738H8.79004V29.8574H1.65723V30.6738H4.6543C4.62207 31.8608 3.12891 32.9297 1.33496 33.1768ZM19.1455 34.1543H10.3369V34.9814H14.3115V36.8506H15.3213V34.9814H19.1455V34.1543ZM11.4326 38.709H18.168V37.8818H12.4531V35.9375H11.4326V38.709ZM11.4648 33.1553H18.0068V29.7393H11.4648V33.1553ZM12.4639 32.3496V30.5449H16.9971V32.3496H12.4639ZM28.0938 29.2881H27.1162V33.1445H25.8809V29.4814H24.9248V38.4189H25.8809V33.9824H27.1162V38.9131H28.0938V29.2881ZM20.3057 36.4639H20.9287C21.9653 36.4692 23.0664 36.3994 24.3877 36.1631L24.2803 35.2715C23.1846 35.4863 22.2124 35.5562 21.3262 35.5669V30.4268H20.3057V36.4639ZM37.3857 35.4648H30.8652V36.2705H36.3652V38.9131H37.3857V35.4648ZM29.501 32.1455C29.4956 33.5151 30.5752 34.4819 32.0254 34.4766C32.8418 34.4819 33.54 34.165 33.9912 33.6387H36.3652V34.96H37.3857V29.2881H36.3652V30.6631H33.9912C33.5454 30.1367 32.8418 29.8198 32.0254 29.8252C30.5752 29.8198 29.4956 30.7866 29.501 32.1455ZM30.4785 32.1455C30.4731 31.2861 31.123 30.6899 32.0254 30.6846C32.8901 30.6899 33.5508 31.2861 33.5508 32.1455C33.5508 33.0264 32.8901 33.6118 32.0254 33.6172C31.123 33.6118 30.4731 33.0264 30.4785 32.1455ZM34.437 32.8008C34.4961 32.5967 34.5283 32.3765 34.5283 32.1455C34.5283 31.9199 34.4961 31.7051 34.4424 31.501H36.3652V32.8008H34.437Z" fill="#BDBDBD"/>
</svg>
