<svg width="14" height="18" viewBox="0 0 14 18" fill="none" xmlns="http://www.w3.org/2000/svg">
<path d="M4.99992 9.83334C4.72378 9.83334 4.49992 9.60948 4.49992 9.33334V6.20186C4.49992 5.8675 4.66702 5.55527 4.94522 5.36981L6.44522 4.36981C6.78112 4.14587 7.21872 4.14587 7.55462 4.36981L9.05462 5.36981C9.33282 5.55527 9.49992 5.8675 9.49992 6.20186V9.33334C9.49992 9.60948 9.27606 9.83334 8.99992 9.83334H8.33325C8.05711 9.83334 7.83325 9.60948 7.83325 9.33334V7.83334C7.83325 7.5572 7.60939 7.33334 7.33325 7.33334H6.66658C6.39044 7.33334 6.16658 7.5572 6.16658 7.83334V9.33334C6.16658 9.60948 5.94273 9.83334 5.66658 9.83334H4.99992ZM6.66343 14.8126C6.85264 14.9903 7.14719 14.9903 7.33641 14.8126C8.86173 13.3797 10.0065 12.0705 10.7708 10.885C11.5902 9.61445 11.9999 8.48612 11.9999 7.50001C11.9999 5.98612 11.5171 4.74639 10.5516 3.78084C9.58658 2.81584 8.4027 2.33334 6.99992 2.33334C5.59714 2.33334 4.41297 2.81584 3.44742 3.78084C2.48242 4.74639 1.99992 5.98612 1.99992 7.50001C1.99992 8.48612 2.40964 9.61445 3.22909 10.885C3.99333 12.0705 5.13811 13.3797 6.66343 14.8126ZM7.64313 16.776C7.27544 17.1006 6.7244 17.1006 6.35671 16.776C4.44086 15.0843 2.98526 13.5026 1.98992 12.0308C0.885474 10.3992 0.333252 8.88889 0.333252 7.50001C0.333252 5.41667 1.00353 3.75695 2.34409 2.52084C3.68409 1.28473 5.23603 0.666672 6.99992 0.666672C8.76381 0.666672 10.3158 1.28473 11.6558 2.52084C12.9963 3.75695 13.6666 5.41667 13.6666 7.50001C13.6666 8.88889 13.1146 10.3992 12.0108 12.0308C11.0149 13.5026 9.55903 15.0843 7.64313 16.776Z" fill="#109D8C"/>
</svg>
