<svg width="80" height="16" viewBox="0 0 80 16" fill="none" xmlns="http://www.w3.org/2000/svg">
<path d="M7.66351 1.57678C7.7694 1.25216 8.23044 1.25216 8.33632 1.57678L9.66762 5.6583C9.71497 5.80347 9.85079 5.90177 10.004 5.90177H14.3122C14.6548 5.90177 14.7973 6.33855 14.5201 6.53918L11.0347 9.06169C10.9107 9.15142 10.8589 9.31046 10.9062 9.45563L12.2375 13.5371C12.3434 13.8618 11.9704 14.1317 11.6932 13.9311L8.20783 11.4086C8.08386 11.3189 7.91598 11.3189 7.79201 11.4086L4.30663 13.9311C4.02942 14.1317 3.65643 13.8618 3.76232 13.5371L5.09361 9.45563C5.14097 9.31046 5.08909 9.15142 4.96512 9.06169L1.47974 6.53918C1.20252 6.33855 1.34499 5.90177 1.68765 5.90177H5.99581C6.14905 5.90177 6.28486 5.80347 6.33222 5.6583L7.66351 1.57678Z" fill="#FEB244"/>
<path d="M23.6635 1.57678C23.7694 1.25216 24.2304 1.25216 24.3363 1.57678L25.6676 5.6583C25.715 5.80347 25.8508 5.90177 26.004 5.90177H30.3122C30.6548 5.90177 30.7973 6.33855 30.5201 6.53918L27.0347 9.06169C26.9107 9.15142 26.8589 9.31046 26.9062 9.45563L28.2375 13.5371C28.3434 13.8618 27.9704 14.1317 27.6932 13.9311L24.2078 11.4086C24.0839 11.3189 23.916 11.3189 23.792 11.4086L20.3066 13.9311C20.0294 14.1317 19.6564 13.8618 19.7623 13.5371L21.0936 9.45563C21.141 9.31046 21.0891 9.15142 20.9651 9.06169L17.4797 6.53918C17.2025 6.33855 17.345 5.90177 17.6876 5.90177H21.9958C22.1491 5.90177 22.2849 5.80347 22.3322 5.6583L23.6635 1.57678Z" fill="#FEB244"/>
<path d="M39.6635 1.57678C39.7694 1.25216 40.2304 1.25216 40.3363 1.57678L41.6676 5.6583C41.715 5.80347 41.8508 5.90177 42.004 5.90177H46.3122C46.6548 5.90177 46.7973 6.33855 46.5201 6.53918L43.0347 9.06169C42.9107 9.15142 42.8589 9.31046 42.9062 9.45563L44.2375 13.5371C44.3434 13.8618 43.9704 14.1317 43.6932 13.9311L40.2078 11.4086C40.0839 11.3189 39.916 11.3189 39.792 11.4086L36.3066 13.9311C36.0294 14.1317 35.6564 13.8618 35.7623 13.5371L37.0936 9.45563C37.141 9.31046 37.0891 9.15142 36.9651 9.06169L33.4797 6.53918C33.2025 6.33855 33.345 5.90177 33.6876 5.90177H37.9958C38.1491 5.90177 38.2849 5.80347 38.3322 5.6583L39.6635 1.57678Z" fill="#FEB244"/>
<path d="M55.6635 1.57678C55.7694 1.25216 56.2304 1.25216 56.3363 1.57678L57.6676 5.6583C57.715 5.80347 57.8508 5.90177 58.004 5.90177H62.3122C62.6548 5.90177 62.7973 6.33855 62.5201 6.53918L59.0347 9.06169C58.9107 9.15142 58.8589 9.31046 58.9062 9.45563L60.2375 13.5371C60.3434 13.8618 59.9704 14.1317 59.6932 13.9311L56.2078 11.4086C56.0839 11.3189 55.916 11.3189 55.792 11.4086L52.3066 13.9311C52.0294 14.1317 51.6564 13.8618 51.7623 13.5371L53.0936 9.45563C53.141 9.31046 53.0891 9.15142 52.9651 9.06169L49.4797 6.53918C49.2025 6.33855 49.345 5.90177 49.6876 5.90177H53.9958C54.1491 5.90177 54.2849 5.80347 54.3322 5.6583L55.6635 1.57678Z" fill="#FEB244"/>
<path d="M71.6635 1.57678C71.7694 1.25216 72.2304 1.25216 72.3363 1.57678L73.6676 5.6583C73.715 5.80347 73.8508 5.90177 74.004 5.90177H78.3122C78.6548 5.90177 78.7973 6.33855 78.5201 6.53918L75.0347 9.06169C74.9107 9.15142 74.8589 9.31046 74.9062 9.45563L76.2375 13.5371C76.3434 13.8618 75.9704 14.1317 75.6932 13.9311L72.2078 11.4086C72.0839 11.3189 71.916 11.3189 71.792 11.4086L68.3066 13.9311C68.0294 14.1317 67.6564 13.8618 67.7623 13.5371L69.0936 9.45563C69.141 9.31046 69.0891 9.15142 68.9651 9.06169L65.4797 6.53918C65.2025 6.33855 65.345 5.90177 65.6876 5.90177H69.9958C70.1491 5.90177 70.2849 5.80347 70.3322 5.6583L71.6635 1.57678Z" fill="#FEB244"/>
</svg>
