<svg width="70" height="14" viewBox="0 0 70 14" fill="none" xmlns="http://www.w3.org/2000/svg">
<path d="M6.70573 1.37905C6.79838 1.095 7.20179 1.095 7.29444 1.37905L8.45932 4.95038C8.50075 5.07741 8.61959 5.16341 8.75367 5.16341H12.5233C12.8231 5.16341 12.9478 5.5456 12.7052 5.72115L9.65553 7.92835C9.54706 8.00686 9.50166 8.14602 9.5431 8.27305L10.708 11.8444C10.8006 12.1284 10.4743 12.3646 10.2317 12.1891L7.182 9.98187C7.07353 9.90336 6.92664 9.90336 6.81816 9.98187L3.76845 12.1891C3.52589 12.3646 3.19953 12.1284 3.29218 11.8444L4.45706 8.27305C4.4985 8.14602 4.45311 8.00686 4.34463 7.92835L1.29492 5.72115C1.05236 5.5456 1.17702 5.16341 1.47684 5.16341H5.24649C5.38057 5.16341 5.49941 5.07741 5.54084 4.95038L6.70573 1.37905Z" fill="#FEB244"/>
<path d="M20.7057 1.37905C20.7984 1.095 21.2018 1.095 21.2944 1.37905L22.4593 4.95038C22.5008 5.07741 22.6196 5.16341 22.7537 5.16341H26.5233C26.8231 5.16341 26.9478 5.5456 26.7052 5.72115L23.6555 7.92835C23.5471 8.00686 23.5017 8.14602 23.5431 8.27305L24.708 11.8444C24.8006 12.1284 24.4743 12.3646 24.2317 12.1891L21.182 9.98187C21.0735 9.90336 20.9266 9.90336 20.8182 9.98187L17.7685 12.1891C17.5259 12.3646 17.1995 12.1284 17.2922 11.8444L18.4571 8.27305C18.4985 8.14602 18.4531 8.00686 18.3446 7.92835L15.2949 5.72115C15.0524 5.5456 15.177 5.16341 15.4768 5.16341H19.2465C19.3806 5.16341 19.4994 5.07741 19.5408 4.95038L20.7057 1.37905Z" fill="#FEB244"/>
<path d="M34.7057 1.37905C34.7984 1.095 35.2018 1.095 35.2944 1.37905L36.4593 4.95038C36.5008 5.07741 36.6196 5.16341 36.7537 5.16341H40.5233C40.8231 5.16341 40.9478 5.5456 40.7052 5.72115L37.6555 7.92835C37.5471 8.00686 37.5017 8.14602 37.5431 8.27305L38.708 11.8444C38.8006 12.1284 38.4743 12.3646 38.2317 12.1891L35.182 9.98187C35.0735 9.90336 34.9266 9.90336 34.8182 9.98187L31.7685 12.1891C31.5259 12.3646 31.1995 12.1284 31.2922 11.8444L32.4571 8.27305C32.4985 8.14602 32.4531 8.00686 32.3446 7.92835L29.2949 5.72115C29.0524 5.5456 29.177 5.16341 29.4768 5.16341H33.2465C33.3806 5.16341 33.4994 5.07741 33.5408 4.95038L34.7057 1.37905Z" fill="#FEB244"/>
<path d="M48.7057 1.37905C48.7984 1.095 49.2018 1.095 49.2944 1.37905L50.4593 4.95038C50.5008 5.07741 50.6196 5.16341 50.7537 5.16341H54.5233C54.8231 5.16341 54.9478 5.5456 54.7052 5.72115L51.6555 7.92835C51.5471 8.00686 51.5017 8.14602 51.5431 8.27305L52.708 11.8444C52.8006 12.1284 52.4743 12.3646 52.2317 12.1891L49.182 9.98187C49.0735 9.90336 48.9266 9.90336 48.8182 9.98187L45.7685 12.1891C45.5259 12.3646 45.1995 12.1284 45.2922 11.8444L46.4571 8.27305C46.4985 8.14602 46.4531 8.00686 46.3446 7.92835L43.2949 5.72115C43.0524 5.5456 43.177 5.16341 43.4768 5.16341H47.2465C47.3806 5.16341 47.4994 5.07741 47.5408 4.95038L48.7057 1.37905Z" fill="#FEB244"/>
<path d="M62.7057 1.37905C62.7984 1.095 63.2018 1.095 63.2944 1.37905L64.4593 4.95038C64.5008 5.07741 64.6196 5.16341 64.7537 5.16341H68.5233C68.8231 5.16341 68.9478 5.5456 68.7052 5.72115L65.6555 7.92835C65.5471 8.00686 65.5017 8.14602 65.5431 8.27305L66.708 11.8444C66.8006 12.1284 66.4743 12.3646 66.2317 12.1891L63.182 9.98187C63.0735 9.90336 62.9266 9.90336 62.8182 9.98187L59.7685 12.1891C59.5259 12.3646 59.1995 12.1284 59.2922 11.8444L60.4571 8.27305C60.4985 8.14602 60.4531 8.00686 60.3446 7.92835L57.2949 5.72115C57.0524 5.5456 57.177 5.16341 57.4768 5.16341H61.2465C61.3806 5.16341 61.4994 5.07741 61.5408 4.95038L62.7057 1.37905Z" fill="#FEB244"/>
</svg>
