<svg width="16" height="16" viewBox="0 0 16 16" fill="none" xmlns="http://www.w3.org/2000/svg">
<path fill-rule="evenodd" clip-rule="evenodd" d="M10.871 15.75C11.4153 15.75 11.9169 15.4477 12.1812 14.9604L15.3114 9.18954C15.4351 8.96148 15.5 8.70489 15.5 8.444V7.30665C15.5 6.4588 14.829 5.77149 14.0012 5.77149H9.56817C9.53328 5.77149 9.50499 5.74252 9.50499 5.70677V2.42503C9.50499 1.72234 9.07863 1.09364 8.43573 0.848326C7.8349 0.619063 7.71183 0.804899 7.41147 1.25843C7.36405 1.33004 7.31221 1.40832 7.25336 1.49269L4.25 6H1.25C0.835786 6 0.5 6.33579 0.5 6.75V15C0.5 15.4142 0.835786 15.75 1.25 15.75H10.871ZM2 14.25V7.5H3.5V14.25H2Z" fill="#0B806F"/>
</svg>
