<svg width="24" height="40" viewBox="0 0 24 40" fill="none" xmlns="http://www.w3.org/2000/svg">
<path fillRule="evenodd" clipRule="evenodd" d="M15.3228 16.5472C13.9179 17.6832 12.1293 18.3637 10.1818 18.3637C5.66313 18.3637 2 14.7005 2 10.1818C2 5.66313 5.66313 2 10.1818 2C14.7005 2 18.3637 5.66313 18.3637 10.1818C18.3637 12.1294 17.6832 13.9181 16.547 15.323L21.7465 20.5225C22.0845 20.8606 22.0845 21.4086 21.7465 21.7467C21.4084 22.0847 20.8603 22.0847 20.5223 21.7467L15.3228 16.5472ZM16.6364 10.1818C16.6364 13.7466 13.7466 16.6364 10.1818 16.6364C6.61708 16.6364 3.72727 13.7466 3.72727 10.1818C3.72727 6.61708 6.61708 3.72727 10.1818 3.72727C13.7466 3.72727 16.6364 6.61708 16.6364 10.1818Z" fill="#BDBDBD"/>
<path d="M7.82129 29.8896H3.43848V30.7275H6.73096C6.53223 32.2476 5.15723 33.4453 2.93359 34.0684L3.35254 34.8633C6.14014 34.0737 7.82129 32.3389 7.82129 29.8896ZM4.57715 38.7842H10.8721V35.1426H4.57715V38.7842ZM5.57617 37.9678V35.959H9.8623V37.9678H5.57617ZM7.86426 32.5537H9.85156V34.7451H10.8721V29.2988H9.85156V31.7051H7.86426V32.5537ZM15.2979 31.1035V29.8682H14.3096V31.1035C14.3096 32.1938 13.6113 33.4346 12.3115 34.0039L12.8701 34.7881C13.7993 34.3853 14.4546 33.6118 14.8091 32.7095C15.1528 33.5205 15.7812 34.1865 16.6621 34.541L17.21 33.7568C15.9639 33.2681 15.2979 32.1885 15.2979 31.1035ZM14.0195 36.4424H19.5518V38.9131H20.5615V35.6152H14.0195V36.4424ZM17.5215 35.0566H18.4668V32.5967H19.5947V35.1104H20.5615V29.2988H19.5947V31.748H18.4668V29.46H17.5215V35.0566Z" fill="#BDBDBD"/>
</svg>
