<svg width="49" height="48" viewBox="0 0 49 48" fill="none" xmlns="http://www.w3.org/2000/svg">
<path d="M36.9007 44H11.8993C11.4197 43.9999 10.956 43.8227 10.5932 43.501C10.2303 43.1792 9.99249 42.7343 9.92308 42.2475L6.84174 25.7433H41.9583L38.8766 42.2475C38.8073 42.7343 38.5695 43.1792 38.2067 43.501C37.8439 43.8228 37.3803 43.9999 36.9007 44Z" fill="#FFA820"/>
<path d="M22.9864 30.028H25.8136V39.7156H22.9864V30.028Z" fill="#984C00"/>
<path d="M30.4016 39.5011L32.5187 29.8191L35.3149 30.2395L33.1978 39.9215L30.4016 39.5011Z" fill="#984C00"/>
<path d="M13.444 30.233L16.2402 29.8126L18.3573 39.4946L15.5611 39.915L13.444 30.233Z" fill="#984C00"/>
<path d="M43.2365 16.4831C43.2507 16.2997 43.2637 16.1155 43.2637 15.9285C43.2636 14.7208 42.9573 13.5339 42.3751 12.4842C41.7928 11.4345 40.9545 10.558 39.9425 9.94078C38.9304 9.32352 37.7792 8.98666 36.602 8.96324C35.4247 8.93983 34.2617 9.23065 33.227 9.8072C32.4519 8.07429 31.2081 6.60596 29.6434 5.57657C28.0788 4.54718 26.2589 4 24.4 4C22.5411 4 20.7212 4.54718 19.1565 5.57657C17.5919 6.60596 16.3481 8.07429 15.573 9.8072C14.5383 9.23065 13.3753 8.93983 12.198 8.96324C11.0208 8.98666 9.86962 9.32352 8.85754 9.94078C7.84546 10.558 7.00718 11.4345 6.42493 12.4842C5.84267 13.5339 5.53643 14.7208 5.53625 15.9285C5.53625 16.1155 5.54933 16.2997 5.56346 16.4831C4.52034 16.8412 3.63541 17.5681 3.06693 18.534C2.49845 19.4998 2.28349 20.6416 2.46048 21.7551C2.63747 22.8686 3.19488 23.8812 4.03302 24.6119C4.87117 25.3426 5.9354 25.7436 7.0354 25.7434H41.7628C42.863 25.744 43.9275 25.3433 44.766 24.6128C45.6044 23.8823 46.1622 22.8696 46.3394 21.756C46.5166 20.6424 46.3018 19.5004 45.7333 18.5344C45.1648 17.5683 44.2798 16.8412 43.2365 16.4831Z" fill="#984C00"/>
<path d="M23.5225 9.39531L21.6097 10.528C21.1026 10.8283 20.9289 11.4933 21.2216 12.0134L22.326 13.9752C22.6188 14.4953 23.2672 14.6735 23.7743 14.3732L25.6871 13.2405C26.1942 12.9403 26.3679 12.2752 26.0751 11.7551L24.9707 9.7933C24.678 9.27322 24.0296 9.09504 23.5225 9.39531Z" fill="#FFA820"/>
<path d="M13.8353 15.1316L11.9225 16.2643C11.4154 16.5646 11.2417 17.2296 11.5345 17.7497L12.6389 19.7115C12.9316 20.2316 13.58 20.4098 14.0871 20.1095L15.9999 18.9768C16.507 18.6765 16.6807 18.0115 16.388 17.4914L15.2836 15.5296C14.9908 15.0095 14.3424 14.8313 13.8353 15.1316Z" fill="#FFA820"/>
<path d="M31.2981 18.9778L33.211 20.1105C33.718 20.4108 34.3664 20.2326 34.6592 19.7125L35.7636 17.7506C36.0564 17.2306 35.8826 16.5655 35.3756 16.2653L33.4628 15.1326C32.9557 14.8323 32.3073 15.0105 32.0145 15.5305L30.9101 17.4924C30.6173 18.0125 30.7911 18.6775 31.2981 18.9778Z" fill="#FFA820"/>
</svg>
