<svg width="48" height="48" viewBox="0 0 48 48" fill="none" xmlns="http://www.w3.org/2000/svg">
<path d="M33.1715 2.44971L33.6057 3.71015C33.7257 4.05826 33.5407 4.43775 33.1926 4.55767L31.3019 5.209H27.7656L30.4325 2.68795L32.3241 2.03653C32.6722 1.91661 33.0516 2.1016 33.1715 2.44971Z" fill="#54D8FF"/>
<path d="M31.3018 5.20898L25.3334 7.26511V17.8205H22.6665V7.26511C22.6665 6.12726 23.3884 5.11475 24.4649 4.74406L30.4324 2.68793L31.3018 5.20898Z" fill="#8DE5FF"/>
<path d="M24 19.1539L29.7779 46H31.8451C32.186 46 32.4721 45.7428 32.5081 45.4038L35.1562 20.4873V19.1539H24Z" fill="#FF4C3B"/>
<path d="M32.4894 19.1539H12.8437V20.4873L15.4919 45.4038C15.5279 45.7429 15.8139 46 16.1548 46H29.7778L32.4894 20.4873V19.1539Z" fill="#FF6C4A"/>
<path d="M33.3027 13.8202H30.9575V19.1539H35.1562V17.8204L33.9331 14.2697C33.8403 14.0007 33.5873 13.8202 33.3027 13.8202Z" fill="#FFE341"/>
<path d="M30.9575 13.8202H14.6973C14.4128 13.8202 14.1596 14.0007 14.067 14.2697L12.8438 17.8204V19.1539H32.3356V17.8204L30.9575 13.8202Z" fill="#FFF1A0"/>
<path d="M36.4897 17.8204H33.8228V20.4873H36.4897C37.2261 20.4873 37.8231 19.8903 37.8231 19.1539C37.8231 18.4175 37.2261 17.8204 36.4897 17.8204Z" fill="#FFF1A0"/>
<path d="M35.1562 19.1539C35.1562 18.4175 34.5592 17.8204 33.8228 17.8204H11.5103C10.7739 17.8204 10.1768 18.4175 10.1768 19.1539C10.1768 19.8903 10.7739 20.4873 11.5103 20.4873H33.8228C34.5593 20.4873 35.1562 19.8903 35.1562 19.1539Z" fill="#FFF9D6"/>
</svg>
