<svg width="49" height="48" viewBox="0 0 49 48" fill="none" xmlns="http://www.w3.org/2000/svg">
<path d="M45.9698 24.4466C37.3954 34.7204 22.2952 21.6046 13.9977 32.8711L8.09085 11.6991C16.3883 0.432509 31.4885 13.5484 40.0629 3.27461C40.481 2.76917 40.883 2.98675 40.7918 3.72253C40.2453 8.1602 39.3986 12.5556 38.2576 16.8784C38.1834 17.1304 38.2594 17.4028 38.4533 17.5798C40.7541 19.6939 43.3394 21.4746 46.1338 22.87C46.4711 23.0156 46.3885 23.9409 45.9698 24.4466Z" fill="#086F60"/>
<path d="M40.7917 3.71912C40.2465 8.15894 39.3995 12.5563 38.2568 16.8807C38.2328 16.9547 38.2275 17.0336 38.2415 17.1102C29.7204 20.7887 18.0305 13.0951 10.9067 21.7829C9.96755 18.4179 9.02839 15.0555 8.08923 11.6956C16.3889 0.430627 31.4918 13.5463 40.0664 3.27555C40.4787 2.77081 40.8834 2.98494 40.7917 3.71912Z" fill="#109D8C"/>
<path d="M4.68387 12.8425L13.3577 43.9455C13.5716 44.7114 14.3639 45.1595 15.1291 44.9474L15.8239 44.7485C16.19 44.6469 16.5004 44.4034 16.6867 44.0718C16.873 43.7403 16.9197 43.3481 16.8165 42.9819L13.9991 32.8717C12.0291 25.8283 10.0643 18.7822 8.10454 11.7336L8.08926 11.6954" fill="#5F5346"/>
<path d="M5.49322 12.942C7.39084 12.942 8.92916 11.4012 8.92916 9.50051C8.92916 7.59985 7.39084 6.05907 5.49322 6.05907C3.5956 6.05907 2.05728 7.59985 2.05728 9.50051C2.05728 11.4012 3.5956 12.942 5.49322 12.942Z" fill="#547580"/>
<path d="M3.96614 9.88289C4.59868 9.88289 5.11146 9.36929 5.11146 8.73574C5.11146 8.10219 4.59868 7.58859 3.96614 7.58859C3.33361 7.58859 2.82083 8.10219 2.82083 8.73574C2.82083 9.36929 3.33361 9.88289 3.96614 9.88289Z" fill="#95A5A5"/>
</svg>
