<svg width="49" height="48" viewBox="0 0 49 48" fill="none" xmlns="http://www.w3.org/2000/svg">
<path d="M40 9C40 9 41.5 12.7854 41.5 26C41.5 39.2146 40 43 40 43H7.99997C7.99997 43 5.99997 39.2146 5.99997 26C5.99997 12.7854 7.99997 9 7.99997 9H40Z" fill="#FDBD40"/>
<path d="M39 5.67184C39 4.91572 38.1932 4.43313 37.527 4.79078L35.8954 5.66667L33.2638 4.25407C32.9683 4.09541 32.6128 4.09553 32.3173 4.25439L29.6905 5.66667L27.065 4.25475C26.7692 4.09569 26.4133 4.09572 26.1176 4.25482L23.4932 5.66667L20.8675 4.25467C20.5718 4.09565 20.216 4.09564 19.9203 4.25462L17.2939 5.66667L14.6684 4.25476C14.3726 4.0957 14.0167 4.09573 13.721 4.25486L11.0969 5.66667L9.47386 4.79319C8.80764 4.43466 7.99997 4.9172 7.99997 5.67377V9H39V5.67184Z" fill="#E97424"/>
<path d="M7.99997 46.3282C7.99997 47.0843 8.80677 47.5669 9.47297 47.2092L11.1045 46.3333L13.7361 47.7459C14.0317 47.9046 14.3871 47.9045 14.6826 47.7456L17.3094 46.3333L19.935 47.7453C20.2307 47.9043 20.5866 47.9043 20.8823 47.7452L23.5068 46.3333L26.1325 47.7453C26.4282 47.9043 26.7839 47.9044 27.0796 47.7454L29.706 46.3333L32.3315 47.7452C32.6273 47.9043 32.9832 47.9043 33.279 47.7451L35.903 46.3333L37.5261 47.2068C38.1923 47.5653 39 47.0828 39 46.3262V43H7.99997V46.3282Z" fill="#E97424"/>
<path d="M22.5448 20.2069H25.8551C29.0547 20.2069 31.6482 22.8004 31.6482 26C31.6482 29.1996 29.0547 31.7931 25.8551 31.7931H22.5448C19.3452 31.7931 16.7517 29.1996 16.7517 26C16.7517 22.8004 19.3452 20.2069 22.5448 20.2069Z" fill="#E9686A"/>
<path d="M28.3379 26.8276C27.8809 26.8276 27.5103 26.457 27.5103 26C27.5103 25.0859 26.7692 24.3448 25.8551 24.3448H22.5448C22.0877 24.3448 21.7172 23.9743 21.7172 23.5172C21.7172 23.0602 22.0877 22.6897 22.5448 22.6897H25.8551C27.6833 22.6897 29.1655 24.1719 29.1655 26C29.1655 26.457 28.7949 26.8276 28.3379 26.8276Z" fill="white"/>
<path d="M15.8298 26.7682C16.3096 26.3684 16.3096 25.6316 15.8298 25.2318L13.4263 23.2289C12.775 22.6861 11.7862 23.1493 11.7862 23.9971V28.0029C11.7862 28.8507 12.775 29.3139 13.4263 28.7711L15.8298 26.7682Z" fill="#E9686A"/>
<path d="M32.5702 25.2318C32.0904 25.6316 32.0904 26.3684 32.5702 26.7682L34.9736 28.7711C35.625 29.3139 36.6138 28.8507 36.6138 28.0029V23.9971C36.6138 23.1493 35.625 22.6861 34.9736 23.2289L32.5702 25.2318Z" fill="#E9686A"/>
<path d="M8.47583 38.8966H10.131V40.5517H8.47583V38.8966Z" fill="#E97424"/>
<path d="M10.9586 35.5862H12.6138V37.2414H10.9586V35.5862Z" fill="#E97424"/>
<path d="M34 12H35.6552V13.6552H34V12Z" fill="#E97424"/>
<path d="M12.6138 37.2414H14.269V38.8966H12.6138V37.2414Z" fill="#E97424"/>
<path d="M35.6552 13.6552H37.3103V15.3103H35.6552V13.6552Z" fill="#E97424"/>
</svg>
