<svg width="49" height="48" viewBox="0 0 49 48" fill="none" xmlns="http://www.w3.org/2000/svg">
<g clip-path="url(#clip0_364_5668)">
<path d="M21.8337 28.8686C21.1742 27.2283 20.1898 25.6949 19.0248 24.4855C16.3328 28.1142 13.7742 24.5728 12.7655 24.9906C12.6475 25.0432 11.7898 30.206 11.7045 30.241V39.8587C11.7045 40.6689 12.3614 41.3258 13.1716 41.3258H16.178C16.9883 41.3258 17.6451 40.6689 17.6451 39.8587V34.0521C17.6451 33.6161 18.1064 33.3336 18.4937 33.5338C19.7781 34.1978 21.2009 34.721 22.7226 35.074L26.8638 32.2131C26.8638 30.7948 22.396 30.2669 21.8337 28.8686Z" fill="#FFA2B2"/>
<path d="M37.1007 24.976C37.0992 24.9748 34.4035 24.9969 34.4021 24.9957C27.8013 24.8816 23.2097 27.8509 21.8337 28.8686C22.396 30.2669 22.7226 31.7425 22.7226 33.1609V35.0739C24.1785 35.4116 25.7251 35.5936 27.3282 35.5936C28.8156 35.5936 30.4857 35.437 32.1016 35.1445C31.9816 33.7289 34.4168 28.2694 37.1007 24.976Z" fill="#FFDEE4"/>
<path d="M21.8337 28.8686C23.2097 27.8509 27.8013 24.8816 34.4021 24.9957C32.9875 23.8094 35.0775 18.931 29.1014 12.0397C27.9296 12.0392 24.3041 12.0399 23.078 12.0397C22.953 16.4702 21.8085 19.9049 20.2809 22.5385C19.8872 23.2446 19.4645 23.8928 19.0248 24.4855C20.1898 25.6949 21.1742 27.2284 21.8337 28.8686Z" fill="#FFC6CF"/>
<path d="M47.0509 11.1345C46.3057 11.1345 45.7017 11.7386 45.7017 12.4836C45.7017 14.116 44.4882 15.4695 42.9161 15.6913L44.4935 18.0639C46.7703 17.2322 48.4 15.0447 48.4 12.4836C48.4 11.7386 47.7959 11.1345 47.0509 11.1345Z" fill="#FFDEE4"/>
<path d="M17.7153 11.4567V7.73107C17.7153 7.14733 17.2421 6.67421 16.6585 6.67421H14.9683C11.7404 6.67421 8.29877 9.29104 8.29877 12.519C8.29877 15.7469 5.68194 18.3638 2.454 18.3638H1.25831C0.784253 18.3638 0.400002 18.748 0.400002 19.2221V22.4693C0.400002 24.2409 1.7094 25.7397 3.46492 25.9776L8.42205 26.6633V26.8386C8.42205 28.7108 9.83222 30.2286 11.7045 30.2286C11.7045 30.2286 11.8149 30.1905 12.0112 30.1092C13.2927 29.538 16.5088 27.9992 19.109 24.5684C19.5543 23.9809 19.9842 23.3411 20.3878 22.6454C21.849 20.0251 23.0779 16.4727 23.0779 12.0396H18.2983C17.9763 12.0397 17.7153 11.7787 17.7153 11.4567Z" fill="#FFDEE4"/>
<path d="M34.402 24.9957C30.1043 24.9214 26.6594 26.1543 24.3982 27.3045V35.387C25.3472 35.5226 26.3266 35.5937 27.3282 35.5937C28.8156 35.5937 30.4857 35.4371 32.1016 35.1445C31.9817 33.7289 34.4168 28.2694 37.1007 24.976C37.0992 24.9748 34.4035 24.997 34.402 24.9957Z" fill="#FFDEE4"/>
<path d="M29.1014 12.0397C28.2274 12.0394 25.9886 12.0396 24.3982 12.0397V27.3045C26.6594 26.1543 30.1043 24.9214 34.402 24.9958C32.9874 23.8094 35.0774 18.9311 29.1014 12.0397Z" fill="#FFC6CF"/>
<path d="M35.7017 12.0397H29.1014C29.2366 19.9279 32.9875 23.8094 34.4021 24.9957C34.4045 24.9958 37.1349 27.204 37.1373 27.2041C37.141 27.1994 41.1148 28.4506 41.1185 28.446C44.8501 23.8951 44.4051 21.8454 46.4461 22.4668C46.2754 16.6791 41.5305 12.0397 35.7017 12.0397Z" fill="#FF7C94"/>
<path d="M46.4461 22.4667C44.4051 21.8453 38.1521 20.4309 34.4204 24.9817C34.4166 24.9864 34.413 24.9912 34.4092 24.9959C34.4082 24.997 34.4073 24.9982 34.4063 24.9994C31.7225 28.2928 31.9816 33.729 32.1015 35.1446C33.5861 34.8759 35.025 34.4925 36.2342 34.0106C36.6181 33.8576 37.0349 34.1378 37.0349 34.551V39.8588C37.0349 40.669 37.6918 41.3259 38.502 41.3259H41.5084C42.3186 41.3259 42.9755 40.669 42.9755 39.8588V31.3191C45.2091 29.3544 46.4512 26.2649 46.4512 22.7895C46.4513 22.6814 46.4492 22.5739 46.4461 22.4667Z" fill="#FFA2B2"/>
</g>
<defs>
<clipPath id="clip0_364_5668">
<rect width="48" height="48" fill="white" transform="translate(0.399994)"/>
</clipPath>
</defs>
</svg>
