<svg width="49" height="48" viewBox="0 0 49 48" fill="none" xmlns="http://www.w3.org/2000/svg">
<path d="M30.6918 46.4125C29.2099 46.4125 28.0086 45.2112 28.0086 43.7294V33.8184H33.3749V43.7294C33.3748 45.2113 32.1737 46.4125 30.6918 46.4125Z" fill="#F7DA70"/>
<path d="M33.3748 41.7608C31.3945 41.7608 29.7892 40.1555 29.7892 38.1752C29.7892 36.195 31.3945 34.5896 33.3748 34.5896V41.7608Z" fill="#7D7060"/>
<path d="M34.3728 24.7407C30.9326 24.7407 29.9344 22.2889 29.9344 21.2394C29.9344 22.2889 28.9361 24.7407 25.496 24.7407L23.3676 18.5961H36.501L34.3728 24.7407Z" fill="#F7DA70"/>
<path d="M14.007 31.4226C6.83496 31.4226 1 25.5731 1 18.3834C1 15.1512 2.18849 12.0503 4.34654 9.652C4.9422 8.98997 5.96069 8.93734 6.62116 9.53457C7.28164 10.1318 7.33406 11.1528 6.7383 11.8149C5.11515 13.6189 4.22105 15.9515 4.22105 18.3835C4.22105 23.7928 8.61104 28.1937 14.007 28.1937C14.8965 28.1937 15.6176 28.9166 15.6176 29.8083C15.6175 30.6997 14.8964 31.4226 14.007 31.4226Z" fill="#F7DA70"/>
<path opacity="0.1" d="M14.007 28.1936C12.7249 28.1936 11.5 27.9447 10.3769 27.4933C9.36396 28.0741 8.50869 28.8985 7.89053 29.888C9.7149 30.8667 11.7974 31.4227 14.0072 31.4227C14.8967 31.4227 15.6178 30.6998 15.6178 29.8081C15.6175 28.9164 14.8964 28.1936 14.007 28.1936Z" fill="black"/>
<path opacity="0.08" d="M30.4648 46C29.0137 46 27.8376 44.8208 27.8376 43.3663V33.6377H33.092V43.3663C33.0919 44.8209 31.9158 46 30.4648 46Z" fill="black"/>
<path d="M27.4873 26.5622H16.8831C12.9852 26.5622 9.82516 29.7301 9.82516 33.6377V43.3663C9.82516 44.8209 11.0014 46 12.4524 46C13.9033 46 15.0796 44.8208 15.0796 43.3663V40.4792C15.6554 40.6313 16.2596 40.7132 16.8831 40.7132H20.2332V43.3663C20.2332 44.8209 21.4094 46 22.8604 46C24.3114 46 25.4876 44.8208 25.4876 43.3663V40.7095C29.9107 40.6319 33.4731 37.0156 33.4731 32.5629C33.4731 29.2489 30.7932 26.5622 27.4873 26.5622Z" fill="#F7DA70"/>
<path d="M9.85757 32.9674C9.83682 33.1882 9.82516 33.4115 9.82516 33.6378V39.4298C11.6055 39.4298 13.0487 37.983 13.0487 36.1983C13.0487 34.4243 11.6229 32.9849 9.85757 32.9674Z" fill="#7D7060"/>
<path opacity="0.08" d="M27.4872 26.5622H16.8831C15.0107 26.5622 13.31 27.2945 12.0466 28.4872C14.0756 32.1575 18.1901 34.7175 23.0194 34.7175H33.1838C33.3711 34.0309 33.473 33.3091 33.473 32.563C33.473 29.2489 30.7931 26.5622 27.4872 26.5622Z" fill="black"/>
<path d="M43.691 2.10944L43.6902 2.10962C40.6216 2.89395 37.629 3.95039 34.7468 5.26477C33.1473 4.83732 31.4612 4.60855 29.7234 4.60855C27.9855 4.60855 26.2993 4.83732 24.6999 5.26477C21.8177 3.9503 18.8252 2.89395 15.7565 2.10962L15.7556 2.10944C13.4973 1.53226 11.3285 3.31597 11.4517 5.64897C11.6231 8.89182 12.0882 12.1121 12.8403 15.2706C12.3001 16.5424 11.9191 17.8933 11.7233 19.304C10.7737 26.146 16.5141 32.206 23.945 32.206H35.5018C42.9326 32.206 48.6731 26.146 47.7235 19.304C47.5277 17.8934 47.1467 16.5425 46.6065 15.2707C47.3586 12.1121 47.8236 8.89182 47.995 5.64907C48.1182 3.31597 45.9493 1.53226 43.691 2.10944Z" fill="#F7DA70"/>
<path d="M22.2416 18.2193C21.8288 18.2193 21.4942 17.8839 21.4942 17.4701V16.276C21.4942 15.8623 21.8287 15.5268 22.2416 15.5268C22.6544 15.5268 22.989 15.8622 22.989 16.276V17.4701C22.989 17.8839 22.6544 18.2193 22.2416 18.2193Z" fill="#4A5058"/>
<path d="M37.2046 18.2193C36.7918 18.2193 36.4572 17.8839 36.4572 17.4701V16.276C36.4572 15.8623 36.7917 15.5268 37.2046 15.5268C37.6174 15.5268 37.952 15.8622 37.952 16.276V17.4701C37.9519 17.8839 37.6174 18.2193 37.2046 18.2193Z" fill="#4A5058"/>
<path d="M27.1266 21.0453V26.2124C27.1266 27.6499 28.2891 28.8153 29.7231 28.8153C31.1571 28.8153 32.3196 27.6499 32.3196 26.2124V21.0453H27.1266Z" fill="#EDBCB9"/>
<path opacity="0.1" d="M29.7231 26.4274C29.3102 26.4274 28.9756 26.092 28.9756 25.6782V21.4046C28.9756 20.9908 29.3102 20.6553 29.7231 20.6553C30.1359 20.6553 30.4705 20.9907 30.4705 21.4046V25.6782C30.4705 26.092 30.136 26.4274 29.7231 26.4274Z" fill="black"/>
<path d="M42.5871 5.89689L42.5868 5.89698C41.1721 6.25863 39.7935 6.74958 38.4682 7.36366C37.8457 7.65216 37.6745 8.4594 38.1261 8.97676C39.3375 10.3646 40.7694 11.5422 42.3638 12.4621C42.9582 12.8051 43.7146 12.4789 43.875 11.8106L43.8751 11.8101C44.2169 10.3873 44.4279 8.93599 44.5051 7.47437C44.5602 6.43468 43.5936 5.63959 42.5871 5.89689Z" fill="#F4B759"/>
<path d="M15.7562 2.10962L15.7552 2.10943C14.3366 1.74676 12.9537 2.31621 12.1518 3.36786C12.7079 5.89752 14.9561 7.79065 17.6466 7.79065C19.9416 7.79065 21.9145 6.41277 22.7904 4.43792C20.5031 3.50047 18.1528 2.72222 15.7562 2.10962Z" fill="#7D7060"/>
<path d="M14.9412 7.47437C15.0184 8.9359 15.2292 10.3871 15.5712 11.8101L15.5713 11.8106C15.7318 12.4789 16.4881 12.8051 17.0825 12.4621C18.677 11.5423 20.1089 10.3647 21.3203 8.97676C21.7719 8.4594 21.6007 7.65216 20.9782 7.36366C19.6529 6.74949 18.2744 6.25854 16.8596 5.89698L16.8593 5.89689C15.8528 5.63959 14.8862 6.43468 14.9412 7.47437Z" fill="#F4B759"/>
<path d="M32.3221 20.2388L31.7172 20.961C30.6767 22.2033 28.7697 22.2033 27.7291 20.961L27.1243 20.2388C26.8125 19.8666 27.0765 19.299 27.5611 19.299H31.8852C32.3699 19.2991 32.6338 19.8667 32.3221 20.2388Z" fill="#4A5058"/>
<path d="M16.6012 22.9018C16.2285 22.9018 15.9059 22.6227 15.8602 22.2423C15.8108 21.8315 16.1027 21.4582 16.5126 21.4086L20.687 20.9031C21.0978 20.8532 21.4691 21.1463 21.5187 21.5571C21.5681 21.9679 21.2761 22.3411 20.8663 22.3907L16.6919 22.8962C16.6612 22.9 16.6309 22.9018 16.6012 22.9018Z" fill="#4A5058"/>
<path d="M18.3218 27.305C18.1002 27.305 17.8808 27.2067 17.7335 27.0184C17.4786 26.6929 17.5352 26.2219 17.86 25.9664L21.1673 23.3635C21.4919 23.1078 21.9618 23.1647 22.2166 23.4901C22.4715 23.8156 22.4149 24.2866 22.0903 24.5421L18.7829 27.145C18.646 27.2528 18.4832 27.305 18.3218 27.305Z" fill="#4A5058"/>
<path d="M42.8452 22.9018C42.8152 22.9018 42.7851 22.9 42.7546 22.8963L38.5802 22.3908C38.1704 22.3411 37.8784 21.9679 37.9278 21.5571C37.9773 21.1463 38.3506 20.8534 38.7595 20.9032L42.9339 21.4087C43.3437 21.4584 43.6357 21.8316 43.5863 22.2424C43.5404 22.6226 43.2179 22.9018 42.8452 22.9018Z" fill="#4A5058"/>
<path d="M41.1244 27.305C40.9629 27.305 40.8003 27.2527 40.6633 27.145L37.3562 24.5421C37.0315 24.2866 36.975 23.8156 37.2299 23.4901C37.4849 23.1646 37.9545 23.1081 38.2793 23.3635L41.5864 25.9664C41.9111 26.2219 41.9676 26.6929 41.7127 27.0184C41.5653 27.2066 41.346 27.305 41.1244 27.305Z" fill="#4A5058"/>
</svg>
