<svg width="49" height="48" viewBox="0 0 49 48" fill="none" xmlns="http://www.w3.org/2000/svg">
<g clipPath="url(#clip0_364_5674)">
<path d="M46.1826 44.3432C45.9347 43.0608 45.8098 41.7577 45.8098 40.4516V24.4218L17.5615 21.9184V40.8391C17.5615 41.8883 17.4809 42.9359 17.3205 43.9728L17.2457 44.4568C16.9576 46.3193 18.3982 48 20.2829 48H43.1652C45.0965 48 46.5492 46.2395 46.1826 44.3432Z" fill="#F0D4A6"/>
<path d="M46.1826 44.3432C45.9347 43.0608 45.8098 41.7577 45.8098 40.4516V24.4218H43.7053V40.4516C43.7053 41.7578 43.8301 43.0609 44.0781 44.3432C44.4447 46.2395 42.992 48 41.0607 48H43.1652C45.0965 48 46.5492 46.2395 46.1826 44.3432Z" fill="#E7C092"/>
<path d="M17.773 18.9597H45.6499L35.0778 10.506C33.1095 8.93215 30.3133 8.93215 28.3451 10.506L17.773 18.9597Z" fill="#FFF3BE"/>
<path d="M35.0778 10.5061C33.8024 9.48623 32.1793 9.12811 30.6592 9.43002C31.4849 9.59401 32.2805 9.95213 32.9733 10.5061L43.5454 18.9598H45.6499L35.0778 10.5061Z" fill="#FFEA8C"/>
<path d="M46.7479 24.4218H16.7004C16.1892 24.4218 15.7747 24.0073 15.7747 23.4961V18.5066C15.7747 17.9954 16.1892 17.5809 16.7004 17.5809H46.7479C47.2591 17.5809 47.6735 17.9954 47.6735 18.5066V23.4961C47.6736 24.0073 47.2592 24.4218 46.7479 24.4218Z" fill="#918291"/>
<path d="M46.7479 17.5809H44.6434C45.1546 17.5809 45.569 17.9954 45.569 18.5066V23.4961C45.569 24.0073 45.1546 24.4218 44.6434 24.4218H46.7479C47.2591 24.4218 47.6735 24.0073 47.6735 23.4961V18.5066C47.6736 17.9954 47.2592 17.5809 46.7479 17.5809Z" fill="#7A6D79"/>
<path d="M31.7188 5.78142V10.0186L16.5747 10.9086L1.52637 10.0186V5.78142C1.52637 4.79804 2.3244 4.00001 3.30874 4.00001H13.132L16.7643 4.68466L20.3965 4.00001H29.9375C30.9208 4.00001 31.7188 4.79804 31.7188 5.78142Z" fill="#FFD15B"/>
<path d="M27.9945 48H5.11224C3.22768 48 1.78691 46.3193 2.07501 44.4569L2.14985 43.9729C2.31027 42.9361 2.39082 41.8885 2.39082 40.8392V17.1793C2.39082 16.1302 2.31027 15.0825 2.14985 14.0456L1.52692 10.0185H31.7189L31.0119 13.6753C30.7639 14.9577 30.6391 16.2609 30.6391 17.5669V40.4517C30.6391 41.7579 30.7638 43.061 31.0119 44.3433C31.3786 46.2395 29.9259 48 27.9945 48Z" fill="#F0D4A6"/>
<path d="M31.0117 44.3432C30.7638 43.0608 30.6389 41.7577 30.6389 40.4516V17.5668C30.6389 16.2607 30.7637 14.9575 31.0117 13.6752L31.7188 10.0184H29.6143L28.9072 13.6752C28.6593 14.9576 28.5344 16.2608 28.5344 17.5668V40.4516C28.5344 41.7578 28.6592 43.0608 28.9072 44.3432C29.2738 46.2395 27.8212 48 25.8898 48H27.9943C29.9257 48 31.3783 46.2395 31.0117 44.3432Z" fill="#E7C092"/>
<path d="M29.9375 4.00001H27.8331C28.8164 4.00001 29.6145 4.79804 29.6145 5.78142V10.0186H31.7189V5.78142C31.7188 4.79804 30.9208 4.00001 29.9375 4.00001Z" fill="#FFC344"/>
<path d="M20.3965 4.00001V6.02277C20.3965 6.56738 19.955 7.00875 19.4105 7.00875H14.1181C13.5735 7.00875 13.1321 6.56728 13.1321 6.02277V4.00001H20.3965Z" fill="#C3AFF0"/>
<path d="M18.4516 4.00001V6.02277C18.4516 6.56738 18.0102 7.00875 17.4656 7.00875H19.4105C19.955 7.00875 20.3964 6.56728 20.3964 6.02277V4.00001H18.4516Z" fill="#AA96E6"/>
<path d="M21.4494 32.0992C22.9135 31.1528 23.743 29.8328 23.3022 29.151C22.8614 28.4692 21.3173 28.6836 19.8533 29.63C18.3893 30.5764 17.5598 31.8963 18.0006 32.5781C18.4413 33.26 19.9854 33.0455 21.4494 32.0992Z" fill="#FFF3BE"/>
<path d="M23.2948 29.146C23.0256 28.7297 22.3448 28.6483 21.5222 28.8631C21.6675 28.9287 21.7842 29.0224 21.8641 29.146C22.3048 29.8277 21.4755 31.1474 20.0119 32.0936C19.4422 32.4619 18.8607 32.7187 18.3364 32.8557C18.9929 33.1521 20.2444 32.8682 21.4425 32.0936C22.9063 31.1474 23.7355 29.8277 23.2948 29.146Z" fill="#FFEA8C"/>
<path d="M24.1579 25.5994C25.723 24.8326 26.7022 23.62 26.3451 22.8911C25.9879 22.1622 24.4296 22.1929 22.8645 22.9598C21.2995 23.7266 20.3202 24.9392 20.6774 25.6681C21.0345 26.397 22.5928 26.3663 24.1579 25.5994Z" fill="#FFF3BE"/>
<path d="M26.3435 22.8954C26.1013 22.4009 25.306 22.2563 24.3309 22.4537C24.6058 22.5381 24.8096 22.6849 24.9128 22.8954C25.2698 23.6244 24.2904 24.8368 22.7253 25.6034C22.2219 25.85 21.7196 26.02 21.2574 26.1134C21.9339 26.3211 23.0429 26.1486 24.1559 25.6034C25.7212 24.8369 26.7006 23.6244 26.3435 22.8954Z" fill="#FFEA8C"/>
<path d="M13.0532 29.9166C13.843 29.7299 14.1583 28.2038 13.7575 26.508C13.3566 24.8122 12.3914 23.5888 11.6016 23.7755C10.8118 23.9622 10.4965 25.4883 10.8973 27.1841C11.2982 28.8799 12.2634 30.1032 13.0532 29.9166Z" fill="#FFF3BE"/>
<path d="M13.7652 26.5088C13.364 24.8128 12.3984 23.5894 11.6085 23.7763C11.4174 23.8215 11.2543 23.9457 11.1222 24.1313C11.6252 24.5979 12.0871 25.4633 12.3345 26.5088C12.6386 27.7945 12.5309 28.9822 12.117 29.5632C12.4298 29.8534 12.7586 29.9898 13.0614 29.9181C13.8514 29.7312 14.1665 28.2049 13.7652 26.5088Z" fill="#FFEA8C"/>
<path d="M15.9114 23.0737C16.6736 22.7945 16.8054 21.2415 16.2059 19.6049C15.6063 17.9684 14.5024 16.868 13.7402 17.1473C12.978 17.4265 12.8462 18.9796 13.4457 20.6161C14.0453 22.2527 15.1492 23.353 15.9114 23.0737Z" fill="#FFF3BE"/>
<path d="M16.1997 19.6135C15.6008 17.9767 14.4975 16.876 13.7352 17.1549C13.5865 17.2093 13.4622 17.3126 13.3623 17.4551C13.891 17.8755 14.4171 18.6518 14.7691 19.6135C15.2512 20.9312 15.2589 22.194 14.846 22.7819C15.2171 23.077 15.5894 23.197 15.9038 23.0821C16.6661 22.8031 16.7986 21.2502 16.1997 19.6135Z" fill="#FFEA8C"/>
<path d="M13.4093 42.8177C13.3401 42.8177 13.2701 42.8078 13.2013 42.7871C12.895 42.6952 12.685 42.4135 12.685 42.0938C12.685 36.483 14.7775 30.5119 16.5327 26.4906C18.4263 22.1526 20.2922 19.171 20.3707 19.0462C20.5837 18.7076 21.0307 18.6058 21.3693 18.8188C21.7079 19.0318 21.8099 19.4788 21.5969 19.8175C21.5275 19.928 15.1306 30.2078 14.2368 39.9185C15.8607 38.1523 18.8563 35.5297 23.205 34.2264C23.5881 34.1117 23.9919 34.3291 24.1067 34.7124C24.2216 35.0956 24.004 35.4993 23.6208 35.6142C17.3773 37.4851 14.047 42.4422 14.0141 42.4921C13.8777 42.699 13.6483 42.8177 13.4093 42.8177Z" fill="#918291"/>
<path d="M13.7003 39.0282C13.3681 39.0282 13.0686 38.7982 12.9938 38.4604C11.7047 32.6413 7.21934 29.1445 7.17424 29.1099C6.85707 28.8666 6.79661 28.4122 7.03951 28.0948C7.28241 27.7773 7.73623 27.7165 8.05388 27.9589C8.25525 28.1125 13.0012 31.7957 14.4081 38.1471C14.4947 38.5376 14.2482 38.9244 13.8576 39.0109C13.8049 39.0226 13.7522 39.0282 13.7003 39.0282Z" fill="#918291"/>
<path d="M33.4726 13.6902C33.869 13.6902 34.1903 13.3689 34.1903 12.9726C34.1903 12.5762 33.869 12.2549 33.4726 12.2549C33.0763 12.2549 32.7549 12.5762 32.7549 12.9726C32.7549 13.3689 33.0763 13.6902 33.4726 13.6902Z" fill="#FFD15B"/>
<path d="M35.8399 15.3189C36.2363 15.3189 36.5576 14.9975 36.5576 14.6012C36.5576 14.2048 36.2363 13.8835 35.8399 13.8835C35.4435 13.8835 35.1222 14.2048 35.1222 14.6012C35.1222 14.9975 35.4435 15.3189 35.8399 15.3189Z" fill="#FFD15B"/>
<path d="M41.6069 44.923H38.7264C38.3263 44.923 38.002 44.5987 38.002 44.1986C38.002 43.7986 38.3263 43.4743 38.7264 43.4743H41.6069C42.007 43.4743 42.3313 43.7986 42.3313 44.1986C42.3313 44.5987 42.007 44.923 41.6069 44.923Z" fill="#EDF4FF"/>
<path d="M23.6792 18.2876C24.7894 16.9439 25.1821 15.4354 24.5563 14.9183C23.9304 14.4013 22.5231 15.0714 21.4129 16.4152C20.3027 17.7589 19.91 19.2674 20.5359 19.7845C21.1617 20.3016 22.569 19.6314 23.6792 18.2876Z" fill="#FFF3BE"/>
<path d="M24.5544 14.9237C24.2433 14.6667 23.7388 14.7033 23.1738 14.9699C23.7264 15.5257 23.3253 16.9868 22.2463 18.2924C21.688 18.9678 21.0548 19.4727 20.4836 19.7425C20.4996 19.7586 20.5161 19.7742 20.5337 19.7886C21.1593 20.3057 22.5666 19.6359 23.6769 18.2924C24.7872 16.949 25.1801 15.4408 24.5544 14.9237Z" fill="#FFEA8C"/>
</g>
<defs>
<clipPath id="clip0_364_5674">
<rect width="48" height="48" fill="white" transform="translate(0.599976)"/>
</clipPath>
</defs>
</svg>
