<svg width="48" height="48" viewBox="0 0 48 48" fill="none" xmlns="http://www.w3.org/2000/svg">
<path d="M32.041 30.3229C31.7529 30.3229 31.4908 30.1254 31.4196 29.8333C31.3913 29.7174 30.7592 26.9627 33.5424 24.1795C33.7917 23.9301 34.1959 23.9301 34.4453 24.1795C34.6946 24.4288 34.6946 24.833 34.4453 25.0824C32.1936 27.3341 32.6412 29.4468 32.6613 29.5356C32.7449 29.8782 32.5343 30.2212 32.1917 30.3047C32.1413 30.3171 32.0908 30.3229 32.041 30.3229Z" fill="#F1562E"/>
<path d="M33.2557 30.8018C33.224 30.8018 33.1922 30.7995 33.16 30.7946C32.8113 30.7422 32.5711 30.4171 32.6236 30.0684C32.6413 29.9504 33.0996 27.1615 36.7297 25.6398C37.0547 25.5035 37.429 25.6566 37.5653 25.9817C37.7016 26.3069 37.5485 26.681 37.2233 26.8174C34.2482 28.0644 33.8895 30.2363 33.8862 30.2581C33.8387 30.5747 33.5663 30.8018 33.2557 30.8018Z" fill="#F1562E"/>
<path d="M29.6783 30.4222C29.4271 30.4222 29.188 30.2724 29.0859 30.0262C29.0402 29.9159 27.9934 27.2907 30.3173 24.1138C30.5255 23.8291 30.9249 23.7673 31.2095 23.9755C31.4941 24.1836 31.5561 24.5832 31.3478 24.8677C29.4678 27.4379 30.2337 29.457 30.2673 29.5417C30.4024 29.8674 30.2469 30.2386 29.9212 30.3738C29.8417 30.4066 29.7594 30.4222 29.6783 30.4222Z" fill="#F1562E"/>
<path d="M27.3257 17.0405H35.1992C40.8759 17.0405 45.4777 21.6424 45.4777 27.3191C45.4777 32.2705 41.9476 36.5182 37.0797 37.4241L33.0751 38.1693L31.3784 33.764L36.1347 30.858C36.8484 30.4219 37.2837 29.6459 37.2837 28.8094C37.2837 27.4836 36.2089 26.4087 34.883 26.4087H27.2291L27.3257 17.0405Z" fill="#FD7E42"/>
<path d="M9.0159 26.2047C6.19922 26.2047 4.10086 25.3314 3.12053 23.6636C1.97331 21.7119 2.48668 18.9898 4.56608 15.9989C6.54655 13.1502 9.74069 10.345 13.56 8.10012C19.6036 4.54782 25.9263 3.14355 29.6678 4.52248C29.9987 4.64439 30.1681 5.01144 30.0461 5.34224C29.9242 5.67314 29.5571 5.84261 29.2263 5.72054C25.8815 4.48783 19.8459 5.88657 14.207 9.20093C6.9126 13.4885 2.33969 19.8153 4.22134 23.0166C5.32954 24.902 8.67595 25.4387 12.955 24.4169C13.2977 24.3351 13.6423 24.5466 13.7242 24.8896C13.8061 25.2326 13.5944 25.577 13.2515 25.6589C11.7173 26.0252 10.2926 26.2047 9.0159 26.2047Z" fill="#FD7E42"/>
<path d="M12.499 25.629C12.4683 25.629 12.4374 25.6268 12.4061 25.6222C7.40176 24.8924 4.15955 22.7976 3.73335 20.0186C3.39013 17.7808 4.87469 15.442 7.91345 13.4334C10.8077 11.5202 14.8133 10.0966 19.1924 9.42502C26.1214 8.36204 32.515 9.39809 35.4803 12.064C35.7426 12.2998 35.764 12.7035 35.5282 12.9657C35.2924 13.2279 34.8888 13.2493 34.6267 13.0136C31.9758 10.6304 25.8512 9.69542 19.3861 10.6871C15.1855 11.3314 11.3612 12.6849 8.6176 14.4986C6.05622 16.1918 4.73601 18.1332 4.9955 19.825C5.32706 21.9866 8.23729 23.7238 12.5904 24.3587C12.9393 24.4096 13.1809 24.7337 13.13 25.0826C13.0837 25.4002 12.8109 25.629 12.499 25.629Z" fill="#FD7E42"/>
<path d="M40.0168 18.238C42.1483 20.1213 43.4928 22.8748 43.4928 25.9427C43.4928 30.8942 39.9627 35.1418 35.0949 36.0477L32.4477 36.5404L33.0751 38.1694L37.0797 37.4241C41.9476 36.5182 45.4777 32.2705 45.4777 27.3191C45.4777 23.3834 43.2654 19.9649 40.0168 18.238Z" fill="#FC5327"/>
<path d="M36.1311 21.7679C37.0373 22.081 38.4539 20.3936 39.3993 17.9355C38.2986 17.4421 37.0953 17.1371 35.8303 17.0604C35.1603 19.4399 35.2641 21.4684 36.1311 21.7679Z" fill="#FC5327"/>
<path d="M43.4884 21.2415C41.3033 22.7465 39.9823 24.5364 40.5036 25.347C40.996 26.1127 42.9656 25.7448 45.1005 24.5523C44.7637 23.3443 44.2116 22.2262 43.4884 21.2415Z" fill="#FC5327"/>
<path d="M45.0434 30.272C42.7819 29.6138 40.8719 29.6888 40.5604 30.5196C40.2665 31.3036 41.4882 32.5163 43.4227 33.4832C44.1413 32.5248 44.6932 31.4395 45.0434 30.272Z" fill="#FC5327"/>
<path d="M43.4733 25.3163C43.9884 25.1223 44.5385 24.8662 45.1006 24.5522C44.7637 23.3442 44.2117 22.2262 43.4884 21.2414C43.1926 21.4451 42.9133 21.6541 42.6516 21.8651C43.1139 22.9338 43.3999 24.0963 43.4733 25.3163Z" fill="#ED4322"/>
<path d="M42.7243 29.8428C42.383 30.6742 41.9361 31.4537 41.3973 32.1624C41.9009 32.6125 42.5965 33.0702 43.4227 33.4832C44.1413 32.5248 44.6932 31.4394 45.0435 30.2719C44.1998 30.0265 43.4053 29.8831 42.7243 29.8428Z" fill="#ED4322"/>
<path d="M30.1937 32.5328L21.4025 34.3443C20.8715 34.4537 20.5624 35.0101 20.75 35.5188C20.882 35.8764 21.2279 36.1096 21.6089 36.0977L25.9085 35.9637C26.1005 35.9577 26.1741 36.2114 26.0087 36.309L22.0494 38.6462C21.2439 39.1216 21.7005 40.3595 22.6218 40.1981L27.1504 39.4044C27.3396 39.3712 27.4484 39.6119 27.2985 39.732L23.9418 42.4221C23.6443 42.6605 23.5326 43.0625 23.6646 43.4201C23.8522 43.9288 24.4486 44.1512 24.9235 43.8895L32.7853 39.5583C34.1102 38.8284 34.7027 37.2397 34.1792 35.8205L33.681 34.47C33.1575 33.0509 31.6753 32.2275 30.1937 32.5328Z" fill="#FD7E42"/>
<path d="M34.1791 35.8207L33.6809 34.4702C33.2461 33.2913 32.1495 32.5242 30.9414 32.4729L31.0058 32.6474C31.5293 34.0666 30.9368 35.6552 29.6119 36.3852L22.7231 40.1803L27.1503 39.4044C27.3394 39.3713 27.4482 39.612 27.2983 39.7321L23.9416 42.4221C23.6441 42.6606 23.5324 43.0625 23.6644 43.4202C23.852 43.9289 24.4484 44.1513 24.9233 43.8896L32.7851 39.5584C34.1101 38.8286 34.7026 37.2399 34.1791 35.8207Z" fill="#FC5327"/>
<path d="M30.1302 21.8141C30.1302 25.6486 29.7363 28.7571 25.9018 28.7571C22.0673 28.7571 8.44009 25.6486 8.44009 21.8141C8.44009 17.9797 22.0674 14.8712 25.9018 14.8712C29.7362 14.8712 30.1302 17.9797 30.1302 21.8141Z" fill="#FD7E42"/>
<path d="M25.9468 14.8724C26.2879 16.0354 26.3543 17.483 26.3543 19.0528C26.3543 22.8873 25.9604 25.9957 22.1259 25.9957C19.6377 25.9957 13.0269 24.6865 8.69101 22.7197C10.56 26.1263 22.3743 28.757 25.9019 28.757C29.7363 28.757 30.1303 25.6486 30.1303 21.8141C30.1302 17.995 29.7383 14.8972 25.9468 14.8724Z" fill="#FC5327"/>
<path d="M15.8724 22.8408C16.8058 22.8408 17.5625 22.0841 17.5625 21.1508C17.5625 20.2174 16.8058 19.4607 15.8724 19.4607C14.9391 19.4607 14.1824 20.2174 14.1824 21.1508C14.1824 22.0841 14.9391 22.8408 15.8724 22.8408Z" fill="#554E57"/>
<path d="M16.353 19.531C16.3982 19.6835 16.4233 19.8446 16.4233 20.0116C16.4233 20.945 15.6667 21.7016 14.7333 21.7016C14.5662 21.7016 14.4052 21.6765 14.2527 21.6313C14.4599 22.3304 15.1061 22.8408 15.8725 22.8408C16.8058 22.8408 17.5625 22.0841 17.5625 21.1508C17.5625 20.3844 17.0521 19.7382 16.353 19.531Z" fill="#453E43"/>
</svg>
