<svg width="49" height="48" viewBox="0 0 49 48" fill="none" xmlns="http://www.w3.org/2000/svg">
<g clipPath="url(#clip0_364_5665)">
<path d="M24.8 37.5C31.0132 37.5 36.05 32.4632 36.05 26.25C36.05 20.0368 31.0132 15 24.8 15C18.5868 15 13.55 20.0368 13.55 26.25C13.55 32.4632 18.5868 37.5 24.8 37.5Z" fill="#FFA426"/>
<path d="M16.55 26.25C16.5515 23.5277 17.5405 20.8984 19.3335 18.8501C21.1266 16.8017 23.6019 15.4735 26.3 15.1117C24.7046 14.8844 23.0791 15.0025 21.5333 15.4579C19.9875 15.9134 18.5577 16.6956 17.3405 17.7517C16.1232 18.8078 15.1471 20.113 14.4782 21.5791C13.8092 23.0451 13.463 24.6378 13.463 26.2492C13.463 27.8607 13.8092 29.4534 14.4782 30.9194C15.1471 32.3855 16.1232 33.6907 17.3405 34.7468C18.5577 35.8028 19.9875 36.5851 21.5333 37.0405C23.0791 37.496 24.7046 37.6141 26.3 37.3867C23.6021 37.0251 21.127 35.697 19.334 33.649C17.541 31.6009 16.5518 28.972 16.55 26.25Z" fill="#FE8205"/>
<path d="M24.8 15C24.2981 15.0037 23.7969 15.0411 23.3 15.1117C25.9974 15.4736 28.4718 16.802 30.2637 18.8503C32.0556 20.8987 33.0433 23.5277 33.0433 26.2492C33.0433 28.9708 32.0556 31.5998 30.2637 33.6482C28.4718 35.6965 25.9974 37.0249 23.3 37.3867C24.8273 37.5946 26.3811 37.4863 27.8648 37.0685C29.3485 36.6506 30.7304 35.9322 31.9248 34.9578C33.1191 33.9834 34.1004 32.7739 34.8077 31.4044C35.515 30.0348 35.9331 28.5344 36.0362 26.9965C36.1392 25.4585 35.925 23.9158 35.4067 22.4641C34.8885 21.0125 34.0773 19.6828 33.0236 18.5578C31.9699 17.4328 30.6962 16.5365 29.2815 15.9244C27.8668 15.3124 26.3414 14.9977 24.8 15Z" fill="#FFC247"/>
<path d="M29.114 11.1307C30.275 9.975 32.3705 6 31.2117 4.83825C30.053 3.6765 26.075 5.775 24.9192 6.936C24.371 7.49392 24.0654 8.2458 24.0688 9.02799C24.0722 9.81018 24.3844 10.5594 24.9375 11.1125C25.4906 11.6655 26.2398 11.9778 27.022 11.9812C27.8042 11.9846 28.5561 11.679 29.114 11.1307Z" fill="#A5E887"/>
<path d="M29.114 8.88075C28.7682 9.22607 28.3424 9.48061 27.8745 9.62175C27.4066 9.76289 26.911 9.78626 26.4319 9.68978C25.9528 9.59331 25.505 9.37997 25.1281 9.06874C24.7513 8.7575 24.4572 8.35801 24.272 7.90575C24.0109 8.54001 23.9777 9.24515 24.178 9.90115C24.3783 10.5572 24.7997 11.1235 25.3706 11.5037C25.9415 11.8839 26.6265 12.0546 27.309 11.9866C27.9915 11.9186 28.6294 11.6161 29.114 11.1307C30.2352 10.0102 32.2273 6.25575 31.3047 4.9665C30.8459 6.40561 30.1007 7.73705 29.114 8.88075Z" fill="#86C983"/>
<path d="M29.8302 7.28025L28.7697 6.21975L23.3 11.691C22.6026 11.0279 21.7774 10.5137 20.8748 10.18C19.9722 9.84632 19.011 9.7 18.05 9.75V11.25C23.9532 11.25 24.05 17.007 24.05 17.25V18H25.55V17.25C25.484 15.7043 25.0331 14.1996 24.2382 12.8722L29.8302 7.28025Z" fill="#98BA5C"/>
<path d="M24.8 34.5C22.6128 34.4974 20.5158 33.6274 18.9692 32.0808C17.4226 30.5342 16.5526 28.4372 16.55 26.25H18.05C18.0522 28.0395 18.764 29.7552 20.0294 31.0206C21.2948 32.286 23.0105 32.9978 24.8 33V34.5Z" fill="#F5E3A7"/>
<path d="M16.55 23.25H18.05V24.75H16.55V23.25Z" fill="#F5E3A7"/>
<path d="M29.3 20.25H30.8V21.75H29.3V20.25Z" fill="#F5E3A7"/>
<path d="M32.3 23.25H33.8V24.75H32.3V23.25Z" fill="#F5E3A7"/>
<path d="M29.3 23.25H30.8V24.75H29.3V23.25Z" fill="#F5E3A7"/>
<path d="M10.55 22.5C11.8294 22.5732 13.0932 22.8179 14.3075 23.2275C15.5675 23.61 16.55 24 16.55 24L15.455 24.5475L13.55 25.5L15.05 27.75L10.55 26.25L6.05 27.75L7.55 25.5L5.645 24.5475L4.55 24C4.55 24 8.06 22.5975 10.325 22.5075C10.4 22.5 10.475 22.5 10.55 22.5Z" fill="#A5E887"/>
<path d="M19.55 30.75C19.5506 31.6463 19.3721 32.5336 19.025 33.36L15.8 33.75C14.8054 33.75 13.8516 34.1451 13.1483 34.8483C12.4451 35.5516 12.05 36.5054 12.05 37.5H8.3C6.74648 37.4982 5.24114 36.9605 4.03796 35.9778C2.83478 34.995 2.00742 33.6273 1.69546 32.1054C1.38351 30.5836 1.60606 29.0006 2.32556 27.6238C3.04507 26.2469 4.21748 25.1604 5.645 24.5475L7.55 25.5L6.05 27.75L10.55 26.25L15.05 27.75L13.55 25.5L15.455 24.5475C16.6701 25.0665 17.706 25.931 18.434 27.0337C19.1621 28.1364 19.5501 29.4287 19.55 30.75Z" fill="#FF475A"/>
<path d="M15.455 26.0475C16.5583 26.5215 17.5149 27.2818 18.2256 28.2497C18.9364 29.2176 19.3755 30.3579 19.4975 31.5525C19.6802 30.1037 19.384 28.635 18.6541 27.3702C17.9243 26.1055 16.8008 25.1142 15.455 24.5475L13.55 25.5L14.3 26.625L15.455 26.0475Z" fill="#F03049"/>
<path d="M6.05 29.25L10.55 27.75L15.05 29.25L13.7645 27.3218L10.55 26.25L7.3355 27.3218L6.05 29.25Z" fill="#F03049"/>
<path d="M3.53 27.48C4.13691 26.8716 4.85488 26.3854 5.645 26.0475L6.8 26.625L7.55 25.5L5.645 24.5475C4.30954 25.1135 3.19323 26.0967 2.46305 27.3499C1.73287 28.6031 1.42807 30.0591 1.59425 31.5C1.76195 29.9784 2.445 28.5599 3.53 27.48Z" fill="#F03049"/>
<path d="M40.55 37.5C40.5479 38.961 40.0139 40.3713 39.0477 41.4673C38.0815 42.5632 36.7493 43.2698 35.3 43.455C35.0511 43.4852 34.8007 43.5002 34.55 43.5C34.299 43.5014 34.0483 43.4839 33.8 43.4475C33.5877 43.4246 33.3772 43.387 33.17 43.335L29.3 42.87L27.8 42.69L19.55 41.7L15.8 41.25C14.8054 41.25 13.8516 40.8549 13.1483 40.1517C12.4451 39.4484 12.05 38.4946 12.05 37.5C12.05 36.5054 12.4451 35.5516 13.1483 34.8484C13.8516 34.1451 14.8054 33.75 15.8 33.75L19.025 33.36L22.55 32.94L24.05 32.76L30.8 31.95L34.55 31.5C36.0112 31.4994 37.4222 32.0328 38.5175 33C38.7657 33.2168 38.994 33.4553 39.2 33.7125C39.4289 33.9896 39.6298 34.2885 39.8 34.605C40.2945 35.4896 40.5528 36.4866 40.55 37.5Z" fill="#FFC247"/>
<path d="M48.05 36V39H42.8L45.8 40.5L45.05 42.75L39.2 41.2875C40.0734 40.2185 40.5503 38.8804 40.55 37.5C40.5528 36.4866 40.2945 35.4896 39.8 34.605C39.6298 34.2885 39.4289 33.9896 39.2 33.7125L39.8 33.5625L45.05 32.25L45.8 34.5L42.8 36H48.05Z" fill="#A5E887"/>
<path d="M18.05 41.52V37.5H19.55V41.7L18.05 41.52Z" fill="#FF9500"/>
<path d="M24.05 32.76V36.75H22.55V32.94L24.05 32.76Z" fill="#FF9500"/>
<path d="M29.3 38.25V42.87L27.8 42.69V38.25H29.3Z" fill="#FF9500"/>
<path d="M32.3 31.77V36H30.8V31.95L32.3 31.77Z" fill="#FF9500"/>
<path d="M33.8 43.4475V40.5H35.3V43.455L33.8 43.4475Z" fill="#FF9500"/>
<path d="M22.55 38.25H24.05V39.75H22.55V38.25Z" fill="#FF9500"/>
<path d="M33.8 37.5H35.3V39H33.8V37.5Z" fill="#FF9500"/>
<path d="M9.8 24.75C9.78649 24.0439 9.71551 23.3401 9.58775 22.6455C9.48804 21.6898 9.11752 20.7825 8.51975 20.0303L9.58025 18.9697C10.4084 19.93 10.9259 21.1188 11.0645 22.3793C11.2091 23.1615 11.2879 23.9546 11.3 24.75H9.8Z" fill="#98BA5C"/>
<path d="M40.55 37.5C40.5479 38.961 40.0139 40.3713 39.0477 41.4673C38.0815 42.5632 36.7493 43.2698 35.3 43.455C35.0511 43.4852 34.8007 43.5002 34.55 43.5C34.299 43.5014 34.0483 43.4839 33.8 43.4475C33.5877 43.4246 33.3772 43.387 33.17 43.335L29.3 42.87L27.8 42.69L19.55 41.7L15.8 41.25C15.2095 41.2563 14.626 41.1217 14.0981 40.8571C13.5701 40.5926 13.1129 40.2059 12.7645 39.7291C12.4161 39.2523 12.1865 38.6992 12.0948 38.1159C12.0032 37.5325 12.0521 36.9357 12.2375 36.375C12.4768 37.1334 12.9508 37.7962 13.591 38.268C14.2313 38.7397 15.0047 38.9961 15.8 39L19.55 39.45L27.8 40.44L29.3 40.62L33.17 41.085C33.3772 41.137 33.5877 41.1746 33.8 41.1975C34.0483 41.2339 34.299 41.2514 34.55 41.25C34.8007 41.2502 35.0511 41.2352 35.3 41.205C36.8315 41.0144 38.2295 40.2374 39.2 39.0375C39.8216 38.2716 40.2464 37.3652 40.4375 36.3975C40.5091 36.7607 40.5467 37.1298 40.55 37.5Z" fill="#FFA426"/>
<path d="M19.55 39.45V41.7L18.05 41.52V39.27L19.55 39.45Z" fill="#FE8205"/>
<path d="M24.05 32.76V36.75H22.55V32.94L24.05 32.76Z" fill="#FF9500"/>
<path d="M29.3 40.62V42.87L27.8 42.69V40.44L29.3 40.62Z" fill="#FE8205"/>
<path d="M32.3 31.77V36H30.8V31.95L32.3 31.77Z" fill="#FF9500"/>
<path d="M35.3 41.205V43.455L33.8 43.4475V41.1975C34.0483 41.2339 34.299 41.2514 34.55 41.25C34.8007 41.2502 35.0511 41.2352 35.3 41.205Z" fill="#FE8205"/>
<path d="M22.55 38.25H24.05V39.75H22.55V38.25Z" fill="#FF9500"/>
<path d="M33.8 37.5H35.3V39H33.8V37.5Z" fill="#FF9500"/>
<path d="M37.7975 30.2025C36.8644 30.3499 35.946 30.5783 35.0525 30.885C34.4684 31.0803 33.9056 31.3341 33.3725 31.6425L31.55 31.86L28.055 32.28L27.05 31.275L29.2025 29.1225C30.815 27.51 31.3475 23.7525 31.3475 23.7525C31.7977 24.2014 32.3367 24.5514 32.93 24.78C32.9213 25.2864 33.0151 25.7893 33.2059 26.2585C33.3966 26.7277 33.6804 27.1534 34.04 27.51C34.5296 28.0035 35.1482 28.3491 35.825 28.5075V28.515C36.1341 28.591 36.4518 28.6263 36.77 28.62C36.9986 29.2132 37.3486 29.7522 37.7975 30.2025Z" fill="#98BA5C"/>
<path d="M36.77 28.62C36.4518 28.6263 36.1341 28.591 35.825 28.515V28.5075C35.7387 28.488 35.6547 28.4557 35.57 28.4325C34.835 28.5757 34.1107 28.7696 33.4025 29.013C32.8184 29.2083 32.2556 29.4621 31.7225 29.7705L29.9 29.988L28.127 30.201C27.3432 30.981 27.05 31.275 27.05 31.275L28.055 32.28L31.55 31.86L33.3725 31.6425C33.9056 31.3341 34.4684 31.0803 35.0525 30.885C35.946 30.5783 36.8644 30.3499 37.7975 30.2025C37.3486 29.7522 36.9986 29.2132 36.77 28.62Z" fill="#7A9E51"/>
<path d="M46.94 19.9875C47.6498 20.7023 48.0481 21.6689 48.0481 22.6762C48.0481 23.6836 47.6498 24.6502 46.94 25.365C46.5402 25.7613 46.0555 26.0614 45.5225 26.2425C45.706 27.3562 45.4698 28.4983 44.8596 29.4478C44.2495 30.3973 43.3088 31.0868 42.2196 31.3826C41.1304 31.6785 39.9702 31.5598 38.9635 31.0494C37.9568 30.5391 37.1752 29.6734 36.77 28.62C36.4518 28.6263 36.1341 28.591 35.825 28.515V28.5075C35.1482 28.3491 34.5296 28.0035 34.04 27.51C33.6804 27.1534 33.3966 26.7277 33.2059 26.2585C33.0151 25.7893 32.9213 25.2864 32.93 24.78C32.2212 24.5073 31.5917 24.0617 31.0989 23.4838C30.6062 22.9059 30.2657 22.214 30.1084 21.4709C29.9512 20.7279 29.9821 19.9574 30.1986 19.2294C30.415 18.5013 30.8099 17.839 31.3475 17.3025C31.385 17.265 31.4225 17.2275 31.4675 17.19C31.9757 16.715 32.5863 16.3632 33.2521 16.1616C33.9179 15.96 34.6212 15.9142 35.3075 16.0275C35.4886 15.4945 35.7887 15.0098 36.185 14.61C36.8998 13.9002 37.8664 13.5019 38.8738 13.5019C39.8811 13.5019 40.8477 13.9002 41.5625 14.61C41.6375 14.685 41.69 14.775 41.7575 14.85C42.4484 14.573 43.2055 14.5049 43.9348 14.6543C44.664 14.8037 45.3333 15.1639 45.8597 15.6903C46.3861 16.2167 46.7463 16.886 46.8957 17.6152C47.0451 18.3445 46.977 19.1016 46.7 19.7925C46.775 19.86 46.865 19.9125 46.94 19.9875Z" fill="#A5E887"/>
<path d="M46.94 19.9875C46.865 19.9125 46.775 19.86 46.7 19.7925C46.977 19.1016 47.0451 18.3445 46.8957 17.6152C46.7463 16.886 46.3861 16.2166 45.8597 15.6903C45.3333 15.1639 44.664 14.8037 43.9347 14.6543C43.2055 14.5049 42.4484 14.573 41.7575 14.85C41.69 14.775 41.6375 14.685 41.5625 14.61C40.9869 14.0413 40.245 13.6709 39.4445 13.5526C38.6441 13.4343 37.8267 13.5743 37.1112 13.9522C37.4515 14.1234 37.7638 14.3452 38.0375 14.61C38.1125 14.685 38.165 14.775 38.2325 14.85C38.9234 14.573 39.6805 14.5049 40.4097 14.6543C41.139 14.8037 41.8083 15.1639 42.3347 15.6903C42.8611 16.2166 43.2213 16.886 43.3707 17.6152C43.5201 18.3445 43.452 19.1016 43.175 19.7925C43.25 19.86 43.34 19.9125 43.415 19.9875C44.1248 20.7023 44.5231 21.6689 44.5231 22.6762C44.5231 23.6836 44.1248 24.6501 43.415 25.365C43.0152 25.7613 42.5305 26.0614 41.9975 26.2425C42.165 27.2531 41.9859 28.2907 41.4894 29.1867C40.9928 30.0827 40.208 30.7845 39.2622 31.1782C40.0124 31.494 40.8335 31.6029 41.6401 31.4936C42.4466 31.3843 43.2091 31.0609 43.8483 30.557C44.4875 30.0531 44.9799 29.3871 45.2743 28.6283C45.5688 27.8695 45.6545 27.0456 45.5225 26.2425C46.0555 26.0614 46.5402 25.7613 46.94 25.365C47.6498 24.6501 48.0481 23.6836 48.0481 22.6762C48.0481 21.6689 47.6498 20.7023 46.94 19.9875Z" fill="#86C983"/>
</g>
<defs>
<clipPath id="clip0_364_5665">
<rect width="48" height="48" fill="white" transform="translate(0.799999)"/>
</clipPath>
</defs>
</svg>
