<svg width="24" height="24" viewBox="0 0 49 48" fill="none" xmlns="http://www.w3.org/2000/svg">
<path d="M22.55 33.75C21.7216 33.75 21.05 33.0337 21.05 32.15V9.75H24.05V32.15C24.05 33.0337 23.3785 33.75 22.55 33.75Z" fill="#FFD33A"/>
<path d="M4.55005 41.25H15.05V45.75H5.55005C4.99776 45.75 4.55005 45.3023 4.55005 44.75V41.25Z" fill="#EA9F26"/>
<path d="M15.05 41.25H4.55005L3.09441 7.04251C3.07022 6.47406 3.52454 6 4.09351 6H15.5066C16.0756 6 16.5299 6.47406 16.5057 7.04251L15.05 41.25Z" fill="#FFD33A"/>
<path d="M15.5066 6C16.0756 6 16.5299 6.47403 16.5057 7.04246L16.4225 9H3.17755L3.09435 7.04246C3.0702 6.47403 3.52451 6 4.09345 6H15.5066Z" fill="#EA9F26"/>
<path d="M24.05 2.25H27.55C28.1023 2.25 28.55 2.69772 28.55 3.25V10.25C28.55 10.8023 28.1023 11.25 27.55 11.25H24.05V2.25Z" fill="#E1E3E6"/>
<path d="M22.55 2.25H24.05C24.4479 2.25 24.8294 2.40804 25.1107 2.68934C25.392 2.97064 25.55 3.35218 25.55 3.75V9.75C25.55 10.1478 25.392 10.5294 25.1107 10.8107C24.8294 11.092 24.4479 11.25 24.05 11.25H21.05V3.75C21.05 3.35218 21.2081 2.97064 21.4894 2.68934C21.7707 2.40804 22.1522 2.25 22.55 2.25Z" fill="#FFD33A"/>
<path d="M9.05005 22.75C9.05005 22.1977 9.49776 21.75 10.05 21.75H30.05V45.75H9.05005V22.75Z" fill="#E1E3E6"/>
<path d="M33.05 45.75H43.55C45.2069 45.75 46.55 44.4069 46.55 42.75V18.75C46.55 17.0931 45.2069 15.75 43.55 15.75H33.05C31.3932 15.75 30.05 17.0931 30.05 18.75V42.75C30.05 44.4069 31.3932 45.75 33.05 45.75Z" fill="#3397E8"/>
<path d="M40.55 12.75V9.75H36.05V12.75C35.6522 12.75 35.2707 12.908 34.9894 13.1893C34.7081 13.4706 34.55 13.8522 34.55 14.25V15.75H42.05V14.25C42.05 13.8522 41.892 13.4706 41.6107 13.1893C41.3294 12.908 40.9479 12.75 40.55 12.75Z" fill="#E1E3E6"/>
<path d="M43.55 5.25H34.55V3.75C34.55 3.35218 34.7081 2.97064 34.9894 2.68934C35.2707 2.40804 35.6522 2.25 36.05 2.25H43.55C43.9479 2.25 44.3294 2.40804 44.6107 2.68934C44.892 2.97064 45.05 3.35218 45.05 3.75C45.05 4.14782 44.892 4.52936 44.6107 4.81066C44.3294 5.09196 43.9479 5.25 43.55 5.25Z" fill="#E1E3E6"/>
<path d="M39.8 9.75H36.8V5.25H39.8V9.75Z" fill="#C3C6C7"/>
<path d="M38.3 25.5C40.7853 25.5 42.8 24.1569 42.8 22.5C42.8 20.8431 40.7853 19.5 38.3 19.5C35.8148 19.5 33.8 20.8431 33.8 22.5C33.8 24.1569 35.8148 25.5 38.3 25.5Z" fill="#266FAB"/>
<path d="M33.8 30.75H21.8C20.1432 30.75 18.8 32.0931 18.8 33.75V38.25C18.8 39.9069 20.1432 41.25 21.8 41.25H33.8C35.4569 41.25 36.8 39.9069 36.8 38.25V33.75C36.8 32.0931 35.4569 30.75 33.8 30.75Z" fill="#A3D4F7"/>
<path d="M16.55 42.25C16.55 41.6977 16.9978 41.25 17.55 41.25H38.05C38.6023 41.25 39.05 41.6977 39.05 42.25V42.75C39.05 43.5456 38.734 44.3087 38.1714 44.8713C37.6088 45.4339 36.8457 45.75 36.05 45.75H19.55C18.7544 45.75 17.9913 45.4339 17.4287 44.8713C16.8661 44.3087 16.55 43.5456 16.55 42.75V42.25Z" fill="#266FAB"/>
<path d="M13.55 28.5C13.3511 28.5 13.1604 28.421 13.0197 28.2803C12.8791 28.1397 12.8 27.9489 12.8 27.75V26.25C12.8 26.0511 12.8791 25.8603 13.0197 25.7197C13.1604 25.579 13.3511 25.5 13.55 25.5C13.749 25.5 13.9397 25.579 14.0804 25.7197C14.221 25.8603 14.3 26.0511 14.3 26.25V27.75C14.3 27.9489 14.221 28.1397 14.0804 28.2803C13.9397 28.421 13.749 28.5 13.55 28.5Z" fill="#E9EEF2"/>
<path d="M13.55 33C13.3511 33 13.1604 32.921 13.0197 32.7803C12.8791 32.6397 12.8 32.4489 12.8 32.25V30.75C12.8 30.5511 12.8791 30.3603 13.0197 30.2197C13.1604 30.079 13.3511 30 13.55 30C13.749 30 13.9397 30.079 14.0804 30.2197C14.221 30.3603 14.3 30.5511 14.3 30.75V32.25C14.3 32.4489 14.221 32.6397 14.0804 32.7803C13.9397 32.921 13.749 33 13.55 33Z" fill="#E9EEF2"/>
<path d="M13.55 37.5C13.3511 37.5 13.1604 37.421 13.0197 37.2803C12.8791 37.1397 12.8 36.9489 12.8 36.75V35.25C12.8 35.0511 12.8791 34.8603 13.0197 34.7197C13.1604 34.579 13.3511 34.5 13.55 34.5C13.749 34.5 13.9397 34.579 14.0804 34.7197C14.221 34.8603 14.3 35.0511 14.3 35.25V36.75C14.3 36.9489 14.221 37.1397 14.0804 37.2803C13.9397 37.421 13.749 37.5 13.55 37.5Z" fill="#E9EEF2"/>
<path d="M13.55 42C13.3511 42 13.1604 41.921 13.0197 41.7803C12.8791 41.6397 12.8 41.4489 12.8 41.25V39.75C12.8 39.5511 12.8791 39.3603 13.0197 39.2197C13.1604 39.079 13.3511 39 13.55 39C13.749 39 13.9397 39.079 14.0804 39.2197C14.221 39.3603 14.3 39.5511 14.3 39.75V41.25C14.3 41.4489 14.221 41.6397 14.0804 41.7803C13.9397 41.921 13.749 42 13.55 42Z" fill="#E9EEF2"/>
<path d="M14.3 21.75V23.25C14.3 23.4489 14.221 23.6397 14.0804 23.7803C13.9397 23.921 13.749 24 13.55 24C13.3511 24 13.1604 23.921 13.0197 23.7803C12.8791 23.6397 12.8 23.4489 12.8 23.25V21.75H14.3Z" fill="#E9EEF2"/>
<path d="M12.8 45.75V44.25C12.8 44.0511 12.8791 43.8603 13.0197 43.7197C13.1604 43.579 13.3511 43.5 13.55 43.5C13.749 43.5 13.9397 43.579 14.0804 43.7197C14.221 43.8603 14.3 44.0511 14.3 44.25V45.75H12.8Z" fill="#E9EEF2"/>
<path d="M25.55 7.5H28.55V9H25.55V7.5Z" fill="#E9EEF2"/>
<path d="M25.55 4.5H28.55V6H25.55V4.5Z" fill="#E9EEF2"/>
</svg>
