<svg width="24" height="24" viewBox="0 0 49 48" fill="none" xmlns="http://www.w3.org/2000/svg">
<path d="M36.9007 44H11.8994C11.4197 43.9999 10.9561 43.8227 10.5933 43.501C10.2304 43.1792 9.99255 42.7343 9.92314 42.2475L6.8418 25.7433H41.9583L38.8766 42.2475C38.8074 42.7343 38.5696 43.1792 38.2068 43.501C37.844 43.8228 37.3804 43.9999 36.9007 44Z" fill="#FFA820"/>
<path d="M22.9863 30.0281H25.8136V39.7157H22.9863V30.0281Z" fill="#984C00"/>
<path d="M30.4016 39.5011L32.5187 29.8191L35.3148 30.2395L33.1978 39.9215L30.4016 39.5011Z" fill="#984C00"/>
<path d="M13.4441 30.233L16.2402 29.8126L18.3573 39.4946L15.5612 39.915L13.4441 30.233Z" fill="#984C00"/>
<path d="M43.2366 16.4831C43.2507 16.2997 43.2638 16.1155 43.2638 15.9285C43.2636 14.7208 42.9574 13.5339 42.3751 12.4842C41.7929 11.4345 40.9546 10.558 39.9425 9.94078C38.9304 9.32352 37.7793 8.98666 36.602 8.96324C35.4247 8.93983 34.2617 9.23065 33.2271 9.8072C32.4519 8.07429 31.2082 6.60596 29.6435 5.57657C28.0788 4.54718 26.259 4 24.4001 4C22.5411 4 20.7213 4.54718 19.1566 5.57657C17.5919 6.60596 16.3482 8.07429 15.573 9.8072C14.5384 9.23065 13.3754 8.93983 12.1981 8.96324C11.0208 8.98666 9.86968 9.32352 8.8576 9.94078C7.84552 10.558 7.00724 11.4345 6.42499 12.4842C5.84273 13.5339 5.5365 14.7208 5.53631 15.9285C5.53631 16.1155 5.54939 16.2997 5.56352 16.4831C4.5204 16.8412 3.63547 17.5681 3.06699 18.534C2.49851 19.4998 2.28355 20.6416 2.46054 21.7551C2.63753 22.8686 3.19494 23.8812 4.03308 24.6119C4.87123 25.3426 5.93546 25.7436 7.03546 25.7434H41.7629C42.863 25.744 43.9276 25.3433 44.766 24.6128C45.6045 23.8823 46.1622 22.8696 46.3394 21.756C46.5167 20.6424 46.3018 19.5004 45.7334 18.5344C45.1649 17.5683 44.2799 16.8412 43.2366 16.4831Z" fill="#984C00"/>
<path d="M23.5226 9.39531L21.6098 10.528C21.1027 10.8283 20.929 11.4933 21.2218 12.0134L22.3262 13.9752C22.6189 14.4953 23.2673 14.6735 23.7744 14.3732L25.6872 13.2405C26.1943 12.9402 26.368 12.2752 26.0753 11.7551L24.9709 9.79329C24.6781 9.27321 24.0297 9.09503 23.5226 9.39531Z" fill="#FFA820"/>
<path d="M13.8354 15.1316L11.9225 16.2643C11.4155 16.5646 11.2417 17.2296 11.5345 17.7497L12.6389 19.7115C12.9317 20.2316 13.5801 20.4098 14.0872 20.1095L16 18.9768C16.507 18.6765 16.6808 18.0115 16.388 17.4914L15.2836 15.5296C14.9908 15.0095 14.3424 14.8313 13.8354 15.1316Z" fill="#FFA820"/>
<path d="M31.2982 18.9778L33.211 20.1105C33.7181 20.4108 34.3665 20.2326 34.6593 19.7125L35.7637 17.7506C36.0564 17.2306 35.8827 16.5655 35.3756 16.2653L33.4628 15.1326C32.9557 14.8323 32.3073 15.0105 32.0145 15.5305L30.9102 17.4924C30.6174 18.0125 30.7911 18.6775 31.2982 18.9778Z" fill="#FFA820"/>
</svg>
