<svg width="24" height="24" viewBox="0 0 48 48" fill="none" xmlns="http://www.w3.org/2000/svg">
<path d="M33.1715 2.44971L33.6057 3.71015C33.7257 4.05826 33.5407 4.43775 33.1926 4.55767L31.3019 5.209H27.7656L30.4325 2.68795L32.3241 2.03653C32.6722 1.91661 33.0516 2.1016 33.1715 2.44971Z" fill="#54D8FF"/>
<path d="M31.3017 5.20897L25.3333 7.2651V17.8205H22.6665V7.2651C22.6665 6.12725 23.3883 5.11474 24.4648 4.74405L30.4323 2.68792L31.3017 5.20897Z" fill="#8DE5FF"/>
<path d="M24 19.1539L29.7779 46H31.8451C32.186 46 32.4721 45.7428 32.5081 45.4038L35.1563 20.4873V19.1539H24Z" fill="#FF4C3B"/>
<path d="M32.4892 19.1539H12.8435V20.4873L15.4917 45.4038C15.5277 45.7429 15.8137 46 16.1547 46H29.7777L32.4892 20.4873V19.1539Z" fill="#FF6C4A"/>
<path d="M33.3025 13.8202H30.9573V19.1539H35.156V17.8204L33.9328 14.2697C33.8401 14.0007 33.587 13.8202 33.3025 13.8202Z" fill="#FFE341"/>
<path d="M30.9575 13.8202H14.6973C14.4127 13.8202 14.1596 14.0007 14.0669 14.2697L12.8438 17.8204V19.1539H32.3356V17.8204L30.9575 13.8202Z" fill="#FFF1A0"/>
<path d="M36.4896 17.8204H33.8228V20.4873H36.4896C37.226 20.4873 37.823 19.8903 37.823 19.1539C37.823 18.4175 37.2261 17.8204 36.4896 17.8204Z" fill="#FFF1A0"/>
<path d="M35.1562 19.1539C35.1562 18.4175 34.5591 17.8204 33.8227 17.8204H11.5102C10.7738 17.8204 10.1768 18.4175 10.1768 19.1539C10.1768 19.8903 10.7738 20.4873 11.5102 20.4873H33.8227C34.5592 20.4873 35.1562 19.8903 35.1562 19.1539Z" fill="#FFF9D6"/>
</svg>
