<svg width="24" height="24" viewBox="0 0 49 48" fill="none" xmlns="http://www.w3.org/2000/svg">
<path d="M45.9699 24.4466C37.3955 34.7204 22.2953 21.6046 13.9978 32.8711L8.09094 11.6991C16.3884 0.432509 31.4886 13.5484 40.063 3.27461C40.4811 2.76917 40.8831 2.98675 40.7919 3.72253C40.2454 8.1602 39.3987 12.5556 38.2577 16.8784C38.1835 17.1304 38.2595 17.4028 38.4534 17.5798C40.7542 19.6939 43.3395 21.4746 46.1339 22.87C46.4712 23.0156 46.3886 23.9409 45.9699 24.4466Z" fill="#086F60"/>
<path d="M40.7919 3.71911C40.2466 8.15893 39.3996 12.5563 38.2569 16.8807C38.2329 16.9547 38.2276 17.0336 38.2416 17.1101C29.7205 20.7887 18.0307 13.0951 10.9068 21.7829C9.96767 18.4179 9.02851 15.0555 8.08936 11.6956C16.3891 0.430619 31.4919 13.5463 40.0665 3.27555C40.4788 2.7708 40.8835 2.98493 40.7919 3.71911Z" fill="#109D8C"/>
<path d="M4.68396 12.8425L13.3578 43.9455C13.5717 44.7114 14.364 45.1595 15.1292 44.9474L15.824 44.7485C16.19 44.6469 16.5005 44.4033 16.6868 44.0718C16.8731 43.7403 16.9198 43.3481 16.8166 42.9819L13.9992 32.8717C12.0292 25.8282 10.0644 18.7822 8.10463 11.7336L8.08936 11.6954" fill="#5F5346"/>
<path d="M5.49331 12.9419C7.39093 12.9419 8.92925 11.4012 8.92925 9.5005C8.92925 7.59985 7.39093 6.05906 5.49331 6.05906C3.59569 6.05906 2.05737 7.59985 2.05737 9.5005C2.05737 11.4012 3.59569 12.9419 5.49331 12.9419Z" fill="#547580"/>
<path d="M3.96624 9.88289C4.59877 9.88289 5.11155 9.36929 5.11155 8.73574C5.11155 8.10219 4.59877 7.58859 3.96624 7.58859C3.3337 7.58859 2.82092 8.10219 2.82092 8.73574C2.82092 9.36929 3.3337 9.88289 3.96624 9.88289Z" fill="#95A5A5"/>
</svg>
