<svg width="24" height="24" viewBox="0 0 49 48" fill="none" xmlns="http://www.w3.org/2000/svg">
<path d="M40 9C40 9 41.5 12.7854 41.5 26C41.5 39.2146 40 43 40 43H8C8 43 6 39.2146 6 26C6 12.7854 8 9 8 9H40Z" fill="#FDBD40"/>
<path d="M39 5.67184C39 4.91572 38.1932 4.43313 37.527 4.79078L35.8955 5.66667L33.2639 4.25407C32.9683 4.09541 32.6129 4.09553 32.3174 4.25439L29.6905 5.66667L27.065 4.25475C26.7692 4.09569 26.4134 4.09572 26.1176 4.25482L23.4932 5.66667L20.8675 4.25467C20.5718 4.09565 20.2161 4.09564 19.9204 4.25462L17.2939 5.66667L14.6684 4.25476C14.3727 4.0957 14.0168 4.09573 13.721 4.25486L11.097 5.66667L9.47389 4.79319C8.80767 4.43466 8 4.9172 8 5.67377V9H39V5.67184Z" fill="#E97424"/>
<path d="M8 46.3282C8 47.0843 8.8068 47.5669 9.473 47.2092L11.1045 46.3333L13.7361 47.7459C14.0317 47.9046 14.3871 47.9045 14.6826 47.7456L17.3095 46.3333L19.935 47.7453C20.2308 47.9043 20.5866 47.9043 20.8824 47.7452L23.5068 46.3333L26.1325 47.7453C26.4282 47.9043 26.7839 47.9044 27.0796 47.7454L29.7061 46.3333L32.3316 47.7452C32.6273 47.9043 32.9832 47.9043 33.279 47.7451L35.903 46.3333L37.5261 47.2068C38.1923 47.5653 39 47.0828 39 46.3262V43H8V46.3282Z" fill="#E97424"/>
<path d="M22.5448 20.2069H25.8552C29.0548 20.2069 31.6483 22.8004 31.6483 26C31.6483 29.1996 29.0548 31.7931 25.8552 31.7931H22.5448C19.3452 31.7931 16.7517 29.1996 16.7517 26C16.7517 22.8004 19.3452 20.2069 22.5448 20.2069Z" fill="#E9686A"/>
<path d="M28.338 26.8276C27.8809 26.8276 27.5104 26.457 27.5104 26C27.5104 25.0859 26.7693 24.3448 25.8552 24.3448H22.5449C22.0878 24.3448 21.7173 23.9743 21.7173 23.5172C21.7173 23.0602 22.0878 22.6897 22.5449 22.6897H25.8552C27.6833 22.6897 29.1656 24.1719 29.1656 26C29.1656 26.457 28.795 26.8276 28.338 26.8276Z" fill="white"/>
<path d="M15.8299 26.7682C16.3097 26.3684 16.3097 25.6316 15.8299 25.2318L13.4264 23.2289C12.7751 22.6861 11.7863 23.1493 11.7863 23.9971V28.0029C11.7863 28.8507 12.7751 29.3139 13.4264 28.7711L15.8299 26.7682Z" fill="#E9686A"/>
<path d="M32.5703 25.2318C32.0905 25.6316 32.0905 26.3684 32.5703 26.7682L34.9738 28.7711C35.6251 29.3139 36.614 28.8507 36.614 28.0029V23.9971C36.614 23.1493 35.6251 22.6861 34.9738 23.2289L32.5703 25.2318Z" fill="#E9686A"/>
<path d="M8.47595 38.8966H10.1311V40.5517H8.47595V38.8966Z" fill="#E97424"/>
<path d="M10.9587 35.5862H12.6139V37.2414H10.9587V35.5862Z" fill="#E97424"/>
<path d="M34 12H35.6552V13.6552H34V12Z" fill="#E97424"/>
<path d="M12.6139 37.2414H14.2691V38.8966H12.6139V37.2414Z" fill="#E97424"/>
<path d="M35.6553 13.6552H37.3104V15.3103H35.6553V13.6552Z" fill="#E97424"/>
</svg>
