<svg width="24" height="24" viewBox="0 0 49 48" fill="none" xmlns="http://www.w3.org/2000/svg">
<g clip-path="url(#clip0_364_5483)">
<path d="M21.8338 28.8686C21.1742 27.2283 20.1898 25.6949 19.0249 24.4855C16.3329 28.1142 13.7742 24.5728 12.7656 24.9906C12.6475 25.0432 11.7898 30.206 11.7046 30.241V39.8587C11.7046 40.6689 12.3614 41.3258 13.1717 41.3258H16.1781C16.9883 41.3258 17.6452 40.6689 17.6452 39.8587V34.0521C17.6452 33.6161 18.1065 33.3336 18.4937 33.5338C19.7782 34.1978 21.2009 34.7209 22.7227 35.074L26.8638 32.2131C26.8638 30.7948 22.3961 30.2669 21.8338 28.8686Z" fill="#FFA2B2"/>
<path d="M37.1009 24.976C37.0994 24.9748 34.4038 24.9969 34.4024 24.9957C27.8016 24.8816 23.2099 27.8509 21.834 28.8686C22.3963 30.2669 22.7229 31.7426 22.7229 33.1609V35.0739C24.1788 35.4116 25.7253 35.5936 27.3284 35.5936C28.8159 35.5936 30.486 35.437 32.1018 35.1445C31.9818 33.7289 34.417 28.2694 37.1009 24.976Z" fill="#FFDEE4"/>
<path d="M21.8338 28.8686C23.2098 27.8509 27.8014 24.8816 34.4022 24.9957C32.9876 23.8094 35.0776 18.931 29.1015 12.0397C27.9297 12.0392 24.3042 12.0399 23.0781 12.0397C22.9531 16.4702 21.8086 19.9049 20.281 22.5385C19.8872 23.2446 19.4646 23.8928 19.0249 24.4855C20.1898 25.6949 21.1742 27.2284 21.8338 28.8686Z" fill="#FFC6CF"/>
<path d="M47.051 11.1345C46.3058 11.1345 45.7018 11.7386 45.7018 12.4836C45.7018 14.116 44.4883 15.4695 42.9163 15.6913L44.4937 18.0639C46.7704 17.2322 48.4001 15.0447 48.4001 12.4836C48.4001 11.7386 47.796 11.1345 47.051 11.1345Z" fill="#FFDEE4"/>
<path d="M17.7155 11.4567V7.73107C17.7155 7.14733 17.2423 6.67421 16.6586 6.67421H14.9684C11.7405 6.67421 8.29892 9.29104 8.29892 12.519C8.29892 15.7469 5.68209 18.3638 2.45415 18.3638H1.25846C0.784398 18.3638 0.400146 18.748 0.400146 19.2221V22.4693C0.400146 24.2409 1.70955 25.7397 3.46507 25.9776L8.42219 26.6633V26.8386C8.42219 28.7108 9.83237 30.2286 11.7046 30.2286C11.7046 30.2286 11.815 30.1905 12.0113 30.1092C13.2929 29.538 16.5089 27.9992 19.1092 24.5684C19.5544 23.9809 19.9843 23.3411 20.3879 22.6454C21.8492 20.0251 23.078 16.4727 23.078 12.0396H18.2985C17.9765 12.0397 17.7155 11.7787 17.7155 11.4567Z" fill="#FFDEE4"/>
<path d="M34.4021 24.9957C30.1043 24.9214 26.6595 26.1543 24.3982 27.3045V35.387C25.3472 35.5226 26.3267 35.5937 27.3282 35.5937C28.8156 35.5937 30.4858 35.4371 32.1016 35.1445C31.9817 33.7289 34.4169 28.2694 37.1007 24.976C37.0992 24.9748 34.4036 24.997 34.4021 24.9957Z" fill="#FFDEE4"/>
<path d="M29.1015 12.0397C28.2274 12.0394 25.9886 12.0396 24.3982 12.0397V27.3045C26.6595 26.1543 30.1043 24.9214 34.4021 24.9958C32.9875 23.8094 35.0775 18.9311 29.1015 12.0397Z" fill="#FFC6CF"/>
<path d="M35.7018 12.0397H29.1016C29.2367 19.9279 32.9876 23.8094 34.4023 24.9957C34.4046 24.9958 37.135 27.204 37.1374 27.2041C37.1411 27.1994 41.1149 28.4506 41.1186 28.446C44.8503 23.8951 44.4052 21.8454 46.4462 22.4668C46.2755 16.6791 41.5306 12.0397 35.7018 12.0397Z" fill="#FF7C94"/>
<path d="M46.4462 22.4667C44.4051 21.8453 38.1522 20.4309 34.4205 24.9817C34.4166 24.9864 34.4131 24.9912 34.4092 24.9959C34.4083 24.997 34.4074 24.9982 34.4064 24.9994C31.7226 28.2928 31.9817 33.729 32.1016 35.1446C33.5862 34.8759 35.025 34.4925 36.2343 34.0106C36.6182 33.8576 37.035 34.1378 37.035 34.551V39.8588C37.035 40.669 37.6918 41.3259 38.5021 41.3259H41.5085C42.3187 41.3259 42.9756 40.669 42.9756 39.8588V31.3191C45.2092 29.3544 46.4513 26.2649 46.4513 22.7895C46.4514 22.6814 46.4493 22.5739 46.4462 22.4667Z" fill="#FFA2B2"/>
</g>
<defs>
<clipPath id="clip0_364_5483">
<rect width="48" height="48" fill="white" transform="translate(0.400146)"/>
</clipPath>
</defs>
</svg>
