<svg width="24" height="24" viewBox="0 0 48 40" fill="none" xmlns="http://www.w3.org/2000/svg">
<path d="M23.8 33.5C30.0133 33.5 35.05 28.4632 35.05 22.25C35.05 16.0368 30.0133 11 23.8 11C17.5868 11 12.55 16.0368 12.55 22.25C12.55 28.4632 17.5868 33.5 23.8 33.5Z" fill="#FFA426"/>
<path d="M15.5501 22.25C15.5516 19.5277 16.5406 16.8984 18.3337 14.8501C20.1267 12.8017 22.602 11.4735 25.3001 11.1117C23.7048 10.8844 22.0792 11.0025 20.5334 11.458C18.9877 11.9134 17.5578 12.6957 16.3406 13.7517C15.1234 14.8078 14.1473 16.113 13.4783 17.5791C12.8093 19.0451 12.4631 20.6378 12.4631 22.2493C12.4631 23.8607 12.8093 25.4534 13.4783 26.9194C14.1473 28.3855 15.1234 29.6907 16.3406 30.7468C17.5578 31.8028 18.9877 32.5851 20.5334 33.0405C22.0792 33.496 23.7048 33.6141 25.3001 33.3868C22.6023 33.0251 20.1272 31.697 18.3342 29.649C16.5412 27.6009 15.552 24.972 15.5501 22.25V22.25Z" fill="#FE8205"/>
<path d="M23.8 11C23.2981 11.0037 22.797 11.0411 22.3 11.1117C24.9974 11.4736 27.4718 12.802 29.2638 14.8503C31.0557 16.8987 32.0434 19.5277 32.0434 22.2492C32.0434 24.9708 31.0557 27.5998 29.2638 29.6482C27.4718 31.6965 24.9974 33.0249 22.3 33.3867C23.8274 33.5946 25.3811 33.4863 26.8648 33.0685C28.3485 32.6506 29.7304 31.9322 30.9248 30.9578C32.1192 29.9834 33.1005 28.7739 33.8077 27.4044C34.515 26.0348 34.9332 24.5344 35.0362 22.9965C35.1393 21.4585 34.925 19.9158 34.4068 18.4641C33.8885 17.0125 33.0774 15.6828 32.0237 14.5578C30.97 13.4328 29.6962 12.5365 28.2815 11.9244C26.8669 11.3124 25.3415 10.9977 23.8 11V11Z" fill="#FFC247"/>
<path d="M28.1141 7.13075C29.2751 5.975 31.3706 2 30.2118 0.83825C29.0531 -0.3235 25.0751 1.775 23.9193 2.936C23.3711 3.49392 23.0654 4.2458 23.0689 5.02799C23.0723 5.81018 23.3845 6.55936 23.9376 7.11246C24.4907 7.66555 25.2399 7.97779 26.0221 7.98122C26.8043 7.98465 27.5562 7.67898 28.1141 7.13075V7.13075Z" fill="#A5E887"/>
<path d="M28.1139 4.88075C27.7681 5.22607 27.3423 5.48061 26.8744 5.62175C26.4065 5.76289 25.911 5.78626 25.4318 5.68978C24.9527 5.59331 24.5049 5.37997 24.1281 5.06874C23.7513 4.75751 23.4572 4.35801 23.2719 3.90575C23.0108 4.54001 22.9776 5.24515 23.1779 5.90116C23.3782 6.55716 23.7996 7.12347 24.3705 7.50369C24.9414 7.88392 25.6264 8.05455 26.3089 7.98656C26.9914 7.91856 27.6293 7.61613 28.1139 7.13075C29.2352 6.01025 31.2272 2.25575 30.3047 0.9665C29.8458 2.40561 29.1006 3.73705 28.1139 4.88075V4.88075Z" fill="#86C983"/>
<path d="M28.8303 3.28025L27.7698 2.21975L22.3 7.691C21.6027 7.02786 20.7775 6.51374 19.8749 6.18003C18.9722 5.84632 18.0111 5.7 17.05 5.75V7.25C22.9533 7.25 23.05 13.007 23.05 13.25V14H24.55V13.25C24.484 11.7043 24.0331 10.1996 23.2383 8.87225L28.8303 3.28025Z" fill="#98BA5C"/>
<path d="M23.8 30.5C21.6128 30.4974 19.5159 29.6274 17.9693 28.0808C16.4227 26.5342 15.5526 24.4372 15.55 22.25H17.05C17.0522 24.0395 17.7641 25.7552 19.0295 27.0206C20.2949 28.286 22.0105 28.9978 23.8 29V30.5Z" fill="#F5E3A7"/>
<path d="M15.55 19.25H17.05V20.75H15.55V19.25Z" fill="#F5E3A7"/>
<path d="M28.3 16.25H29.8V17.75H28.3V16.25Z" fill="#F5E3A7"/>
<path d="M31.3 19.25H32.8V20.75H31.3V19.25Z" fill="#F5E3A7"/>
<path d="M28.3 19.25H29.8V20.75H28.3V19.25Z" fill="#F5E3A7"/>
<path d="M9.55005 18.5C10.8295 18.5732 12.0933 18.8179 13.3075 19.2275C14.5675 19.61 15.55 20 15.55 20L14.455 20.5475L12.55 21.5L14.05 23.75L9.55005 22.25L5.05005 23.75L6.55005 21.5L4.64505 20.5475L3.55005 20C3.55005 20 7.06005 18.5975 9.32505 18.5075C9.40005 18.5 9.47505 18.5 9.55005 18.5V18.5Z" fill="#A5E887"/>
<path d="M18.5501 26.75C18.5507 27.6463 18.3722 28.5336 18.0251 29.36L14.8001 29.75C13.8056 29.75 12.8518 30.1451 12.1485 30.8483C11.4452 31.5516 11.0501 32.5054 11.0501 33.5H7.30014C5.74662 33.4982 4.24128 32.9605 3.0381 31.9778C1.83492 30.995 1.00756 29.6273 0.695604 28.1054C0.383649 26.5836 0.606198 25.0006 1.3257 23.6238C2.04521 22.2469 3.21762 21.1604 4.64514 20.5475L6.55014 21.5L5.05014 23.75L9.55014 22.25L14.0501 23.75L12.5501 21.5L14.4551 20.5475C15.6703 21.0665 16.7062 21.931 17.4342 23.0337C18.1622 24.1364 18.5502 25.4287 18.5501 26.75Z" fill="#FF475A"/>
<path d="M14.455 22.0475C15.5584 22.5215 16.5149 23.2818 17.2257 24.2497C17.9364 25.2176 18.3755 26.3579 18.4975 27.5525C18.6802 26.1037 18.3841 24.635 17.6542 23.3702C16.9243 22.1055 15.8008 21.1142 14.455 20.5475L12.55 21.5L13.3 22.625L14.455 22.0475Z" fill="#F03049"/>
<path d="M5.05005 25.25L9.55005 23.75L14.05 25.25L12.7645 23.3217L9.55005 22.25L6.33555 23.3217L5.05005 25.25Z" fill="#F03049"/>
<path d="M2.53003 23.48C3.13694 22.8716 3.85491 22.3854 4.64503 22.0475L5.80003 22.625L6.55003 21.5L4.64503 20.5475C3.30957 21.1135 2.19326 22.0966 1.46308 23.3499C0.732899 24.6031 0.4281 26.0591 0.594278 27.5C0.761982 25.9784 1.44503 24.5599 2.53003 23.48V23.48Z" fill="#F03049"/>
<path d="M39.55 33.5C39.548 34.961 39.0139 36.3713 38.0477 37.4673C37.0815 38.5632 35.7493 39.2698 34.3 39.455C34.0512 39.4852 33.8007 39.5002 33.55 39.5C33.2991 39.5014 33.0484 39.4839 32.8 39.4475C32.5877 39.4246 32.3772 39.387 32.17 39.335L28.3 38.87L26.8 38.69L18.55 37.7L14.8 37.25C13.8055 37.25 12.8517 36.8549 12.1484 36.1517C11.4451 35.4484 11.05 34.4946 11.05 33.5C11.05 32.5054 11.4451 31.5516 12.1484 30.8483C12.8517 30.1451 13.8055 29.75 14.8 29.75L18.025 29.36L21.55 28.94L23.05 28.76L29.8 27.95L33.55 27.5C35.0112 27.4994 36.4223 28.0328 37.5175 29C37.7657 29.2168 37.9941 29.4553 38.2 29.7125C38.4289 29.9896 38.6299 30.2885 38.8 30.605C39.2945 31.4896 39.5528 32.4866 39.55 33.5V33.5Z" fill="#FFC247"/>
<path d="M47.0499 32V35H41.8L44.8 36.5L44.05 38.75L38.2 37.2875C39.0733 36.2185 39.5503 34.8804 39.55 33.5C39.5527 32.4866 39.2944 31.4896 38.8 30.605C38.6298 30.2885 38.4288 29.9896 38.2 29.7125L38.8 29.5625L44.05 28.25L44.8 30.5L41.8 32H47.0499Z" fill="#A5E887"/>
<path d="M17.05 37.52V33.5H18.55V37.7L17.05 37.52Z" fill="#FF9500"/>
<path d="M23.05 28.76V32.75H21.55V28.94L23.05 28.76Z" fill="#FF9500"/>
<path d="M28.3 34.25V38.87L26.8 38.69V34.25H28.3Z" fill="#FF9500"/>
<path d="M31.3 27.77V32H29.8V27.95L31.3 27.77Z" fill="#FF9500"/>
<path d="M32.8 39.4475V36.5H34.3V39.455L32.8 39.4475Z" fill="#FF9500"/>
<path d="M21.55 34.25H23.05V35.75H21.55V34.25Z" fill="#FF9500"/>
<path d="M32.8 33.5H34.3V35H32.8V33.5Z" fill="#FF9500"/>
<path d="M8.80003 20.75C8.78652 20.0439 8.71553 19.3401 8.58778 18.6455C8.48807 17.6898 8.11755 16.7825 7.51978 16.0303L8.58028 14.9697C9.40841 15.93 9.92592 17.1188 10.0645 18.3793C10.2091 19.1615 10.2879 19.9546 10.3 20.75H8.80003Z" fill="#98BA5C"/>
<path d="M39.5499 33.5C39.5479 34.961 39.0138 36.3713 38.0476 37.4673C37.0814 38.5632 35.7492 39.2698 34.2999 39.455C34.0511 39.4852 33.8006 39.5002 33.5499 39.5C33.299 39.5014 33.0483 39.4839 32.7999 39.4475C32.5876 39.4246 32.3771 39.387 32.1699 39.335L28.2999 38.87L26.7999 38.69L18.5499 37.7L14.7999 37.25C14.2094 37.2563 13.626 37.1217 13.098 36.8571C12.57 36.5926 12.1129 36.2059 11.7644 35.7291C11.416 35.2523 11.1864 34.6992 11.0948 34.1159C11.0031 33.5325 11.052 32.9357 11.2374 32.375C11.4768 33.1334 11.9507 33.7962 12.591 34.268C13.2312 34.7397 14.0047 34.9961 14.7999 35L18.5499 35.45L26.7999 36.44L28.2999 36.62L32.1699 37.085C32.3771 37.137 32.5876 37.1746 32.7999 37.1975C33.0483 37.2339 33.299 37.2514 33.5499 37.25C33.8006 37.2502 34.0511 37.2352 34.2999 37.205C35.8314 37.0144 37.2294 36.2374 38.1999 35.0375C38.8215 34.2716 39.2463 33.3652 39.4374 32.3975C39.509 32.7607 39.5467 33.1298 39.5499 33.5V33.5Z" fill="#FFA426"/>
<path d="M18.55 35.45V37.7L17.05 37.52V35.27L18.55 35.45Z" fill="#FE8205"/>
<path d="M23.05 28.76V32.75H21.55V28.94L23.05 28.76Z" fill="#FF9500"/>
<path d="M28.3 36.62V38.87L26.8 38.69V36.44L28.3 36.62Z" fill="#FE8205"/>
<path d="M31.3 27.77V32H29.8V27.95L31.3 27.77Z" fill="#FF9500"/>
<path d="M34.3 37.205V39.455L32.8 39.4475V37.1975C33.0484 37.2339 33.2991 37.2514 33.55 37.25C33.8007 37.2502 34.0512 37.2352 34.3 37.205Z" fill="#FE8205"/>
<path d="M21.55 34.25H23.05V35.75H21.55V34.25Z" fill="#FF9500"/>
<path d="M32.8 33.5H34.3V35H32.8V33.5Z" fill="#FF9500"/>
<path d="M36.7976 26.2025C35.8645 26.3499 34.946 26.5783 34.0525 26.885C33.4685 27.0803 32.9056 27.3341 32.3725 27.6425L30.55 27.86L27.055 28.28L26.05 27.275L28.2025 25.1225C29.815 23.51 30.3475 19.7525 30.3475 19.7525C30.7978 20.2014 31.3368 20.5514 31.93 20.78C31.9213 21.2864 32.0152 21.7893 32.2059 22.2585C32.3967 22.7277 32.6804 23.1534 33.04 23.51C33.5296 24.0035 34.1482 24.3491 34.825 24.5075V24.515C35.1341 24.591 35.4518 24.6263 35.77 24.62C35.9987 25.2133 36.3487 25.7522 36.7976 26.2025V26.2025Z" fill="#98BA5C"/>
<path d="M35.77 24.62C35.4518 24.6263 35.1341 24.591 34.825 24.515V24.5075C34.7388 24.488 34.6548 24.4557 34.57 24.4325C33.835 24.5757 33.1108 24.7696 32.4025 25.013C31.8185 25.2083 31.2556 25.4621 30.7225 25.7705L28.9 25.988L27.127 26.201C26.3433 26.981 26.05 27.275 26.05 27.275L27.055 28.28L30.55 27.86L32.3725 27.6425C32.9056 27.3341 33.4685 27.0803 34.0525 26.885C34.946 26.5783 35.8645 26.3499 36.7976 26.2025C36.3487 25.7522 35.9987 25.2133 35.77 24.62V24.62Z" fill="#7A9E51"/>
<path d="M45.9401 15.9875C46.6499 16.7023 47.0482 17.6689 47.0482 18.6763C47.0482 19.6836 46.6499 20.6502 45.9401 21.365C45.5403 21.7613 45.0556 22.0614 44.5226 22.2425C44.7061 23.3562 44.4699 24.4983 43.8597 25.4478C43.2496 26.3973 42.3089 27.0868 41.2197 27.3826C40.1305 27.6785 38.9702 27.5598 37.9635 27.0494C36.9568 26.5391 36.1753 25.6734 35.7701 24.62C35.4519 24.6263 35.1342 24.591 34.8251 24.515V24.5075C34.1482 24.3491 33.5297 24.0035 33.0401 23.51C32.6805 23.1534 32.3967 22.7277 32.206 22.2585C32.0152 21.7893 31.9214 21.2864 31.9301 20.78C31.2212 20.5073 30.5918 20.0617 30.099 19.4838C29.6062 18.9059 29.2657 18.214 29.1085 17.4709C28.9512 16.7279 28.9822 15.9574 29.1986 15.2294C29.415 14.5013 29.81 13.839 30.3476 13.3025C30.3851 13.265 30.4226 13.2275 30.4676 13.19C30.9758 12.715 31.5864 12.3632 32.2522 12.1616C32.918 11.96 33.6212 11.9142 34.3076 12.0275C34.4887 11.4945 34.7888 11.0098 35.1851 10.61C35.8999 9.9002 36.8664 9.50185 37.8738 9.50185C38.8812 9.50185 39.8477 9.9002 40.5626 10.61C40.6376 10.685 40.6901 10.775 40.7576 10.85C41.4485 10.573 42.2056 10.5049 42.9348 10.6543C43.6641 10.8037 44.3334 11.1639 44.8598 11.6903C45.3862 12.2167 45.7464 12.886 45.8958 13.6152C46.0451 14.3445 45.9771 15.1016 45.7001 15.7925C45.7751 15.86 45.8651 15.9125 45.9401 15.9875V15.9875Z" fill="#A5E887"/>
<path d="M45.9401 15.9875C45.8651 15.9125 45.7751 15.86 45.7001 15.7925C45.9771 15.1016 46.0451 14.3445 45.8958 13.6152C45.7464 12.886 45.3862 12.2167 44.8598 11.6903C44.3334 11.1639 43.6641 10.8037 42.9348 10.6543C42.2056 10.5049 41.4485 10.573 40.7576 10.85C40.6901 10.775 40.6376 10.685 40.5626 10.61C39.987 10.0413 39.2451 9.67088 38.4446 9.5526C37.6441 9.43432 36.8268 9.57431 36.1113 9.95225C36.4515 10.1234 36.7638 10.3452 37.0376 10.61C37.1126 10.685 37.1651 10.775 37.2326 10.85C37.9235 10.573 38.6806 10.5049 39.4098 10.6543C40.1391 10.8037 40.8084 11.1639 41.3348 11.6903C41.8612 12.2167 42.2214 12.886 42.3708 13.6152C42.5201 14.3445 42.4521 15.1016 42.1751 15.7925C42.2501 15.86 42.3401 15.9125 42.4151 15.9875C43.1249 16.7023 43.5232 17.6689 43.5232 18.6762C43.5232 19.6836 43.1249 20.6502 42.4151 21.365C42.0153 21.7613 41.5305 22.0614 40.9976 22.2425C41.1651 23.2531 40.986 24.2907 40.4894 25.1867C39.9929 26.0827 39.208 26.7845 38.2623 27.1783C39.0125 27.494 39.8336 27.6029 40.6402 27.4936C41.4467 27.3843 42.2092 27.0609 42.8484 26.557C43.4875 26.0531 43.98 25.3871 44.2744 24.6283C44.5688 23.8695 44.6545 23.0456 44.5226 22.2425C45.0555 22.0614 45.5403 21.7613 45.9401 21.365C46.6499 20.6502 47.0482 19.6836 47.0482 18.6762C47.0482 17.6689 46.6499 16.7023 45.9401 15.9875V15.9875Z" fill="#86C983"/>
</svg>
