<svg width="52" height="52" viewBox="0 0 52 52" fill="none" xmlns="http://www.w3.org/2000/svg">
<rect width="52" height="52" rx="26" fill="black"/>
<path d="M26.2375 20.6154C27.125 20.6154 28.2375 20.0051 28.9 19.1914C29.5 18.4539 29.9375 17.424 29.9375 16.3942C29.9375 16.2543 29.925 16.1144 29.9 16C28.9125 16.0381 27.725 16.6739 27.0125 17.5257C26.45 18.1742 25.9375 19.1914 25.9375 20.2339C25.9375 20.3865 25.9625 20.5391 25.975 20.59C26.0375 20.6027 26.1375 20.6154 26.2375 20.6154ZM23.1125 36C24.325 36 24.8625 35.1736 26.375 35.1736C27.9125 35.1736 28.25 35.9746 29.6 35.9746C30.925 35.9746 31.8125 34.7285 32.65 33.5079C33.5875 32.1093 33.975 30.7362 34 30.6726C33.9125 30.6472 31.375 29.5919 31.375 26.6294C31.375 24.061 33.375 22.904 33.4875 22.815C32.1625 20.8824 30.15 20.8315 29.6 20.8315C28.1125 20.8315 26.9 21.747 26.1375 21.747C25.3125 21.747 24.225 20.8824 22.9375 20.8824C20.4875 20.8824 18 22.9421 18 26.8328C18 29.2486 18.925 31.8042 20.0625 33.4571C21.0375 34.8557 21.8875 36 23.1125 36Z" fill="white"/>
</svg>
