<svg width="44" height="44" viewBox="0 0 44 44" fill="none" xmlns="http://www.w3.org/2000/svg">
<g filter="url(#filter0_d_537_10640)">
<rect x="6" y="3" width="32" height="32" rx="16" fill="white" shape-rendering="crispEdges"/>
<path d="M30.5423 13.1395H25.2483L24.1792 11.2914C24.0746 11.1107 23.8854 11 23.6811 11H20.3188C20.1145 11 19.9252 11.1107 19.8207 11.2914L18.7517 13.1395H17.0145V12.7322C17.0145 12.4027 16.7549 12.1356 16.4348 12.1356H14.2899C13.9697 12.1356 13.7102 12.4027 13.7102 12.7322V13.1395H13.4577C12.6526 13.1395 12 13.8111 12 14.6394V25.5C12 26.3284 12.6526 27 13.4576 27H30.5423C31.3474 27 32 26.3284 32 25.5V14.6394C32.0001 13.8111 31.3474 13.1395 30.5423 13.1395ZM22 24.3393C19.7084 24.3393 17.8508 22.4278 17.8508 20.0696C17.8508 17.7116 19.7084 15.8 22 15.8C24.2915 15.8 26.1491 17.7116 26.1491 20.0696C26.1491 22.4278 24.2915 24.3393 22 24.3393ZM29.6329 16.232H27.8164C27.4963 16.232 27.2368 15.9649 27.2368 15.6354C27.2368 15.3059 27.4963 15.0388 27.8164 15.0388H29.6329C29.9531 15.0388 30.2126 15.3059 30.2126 15.6354C30.2126 15.9649 29.9531 16.232 29.6329 16.232Z" fill="#9E9E9E"/>
<path d="M21.9999 23.0515C23.6008 23.0515 24.8985 21.7161 24.8985 20.0687C24.8985 18.4214 23.6008 17.0859 21.9999 17.0859C20.3991 17.0859 19.1013 18.4214 19.1013 20.0687C19.1013 21.7161 20.3991 23.0515 21.9999 23.0515Z" fill="#9E9E9E"/>
</g>
<defs>
<filter id="filter0_d_537_10640" x="0" y="0" width="44" height="44" filterUnits="userSpaceOnUse" color-interpolation-filters="sRGB">
<feFlood flood-opacity="0" result="BackgroundImageFix"/>
<feColorMatrix in="SourceAlpha" type="matrix" values="0 0 0 0 0 0 0 0 0 0 0 0 0 0 0 0 0 0 127 0" result="hardAlpha"/>
<feOffset dy="3"/>
<feGaussianBlur stdDeviation="3"/>
<feComposite in2="hardAlpha" operator="out"/>
<feColorMatrix type="matrix" values="0 0 0 0 0 0 0 0 0 0 0 0 0 0 0 0 0 0 0.06 0"/>
<feBlend mode="normal" in2="BackgroundImageFix" result="effect1_dropShadow_537_10640"/>
<feBlend mode="normal" in="SourceGraphic" in2="effect1_dropShadow_537_10640" result="shape"/>
</filter>
</defs>
</svg>
