<svg width="20" height="20" viewBox="0 0 20 20" fill="none" xmlns="http://www.w3.org/2000/svg">
<mask id="mask0_119_1717" style="mask-type:alpha" maskUnits="userSpaceOnUse" x="0" y="0" width="20" height="20">
<rect width="20" height="20" fill="#D9D9D9"/>
</mask>
<g mask="url(#mask0_119_1717)">
<path d="M9.99984 12.9792C10.9443 12.9792 11.7462 12.6492 12.4057 11.9892C13.0657 11.3297 13.3957 10.5278 13.3957 9.58333C13.3957 8.63889 13.0657 7.83694 12.4057 7.1775C11.7462 6.5175 10.9443 6.1875 9.99984 6.1875C9.05539 6.1875 8.25345 6.5175 7.594 7.1775C6.934 7.83694 6.604 8.63889 6.604 9.58333C6.604 10.5278 6.934 11.3297 7.594 11.9892C8.25345 12.6492 9.05539 12.9792 9.99984 12.9792ZM9.99984 11.8333C9.37484 11.8333 8.84373 11.6144 8.4065 11.1767C7.96873 10.7394 7.74984 10.2083 7.74984 9.58333C7.74984 8.95833 7.96873 8.42694 8.4065 7.98917C8.84373 7.55194 9.37484 7.33333 9.99984 7.33333C10.6248 7.33333 11.1562 7.55194 11.594 7.98917C12.0312 8.42694 12.2498 8.95833 12.2498 9.58333C12.2498 10.2083 12.0312 10.7394 11.594 11.1767C11.1562 11.6144 10.6248 11.8333 9.99984 11.8333ZM9.99984 15.4167C8.08317 15.4167 6.33678 14.8889 4.76067 13.8333C3.64654 13.0874 2.74227 12.1612 2.04785 11.0547C1.48413 10.1564 1.48413 9.01025 2.04785 8.11197C2.74227 7.00544 3.64654 6.07923 4.76067 5.33333C6.33678 4.27778 8.08317 3.75 9.99984 3.75C11.9165 3.75 13.6632 4.27778 15.2398 5.33333C16.3536 6.07922 17.2576 7.00543 17.9519 8.11194C18.5155 9.01026 18.5155 10.1564 17.9519 11.0547C17.2576 12.1612 16.3536 13.0874 15.2398 13.8333C13.6632 14.8889 11.9165 15.4167 9.99984 15.4167ZM9.99984 14.1667C11.5693 14.1667 13.0104 13.7533 14.3232 12.9267C15.3546 12.2773 16.1952 11.4498 16.845 10.4441C17.1836 9.92009 17.1836 9.24659 16.845 8.72251C16.1953 7.71675 15.3546 6.88897 14.3232 6.23917C13.0104 5.41306 11.5693 5 9.99984 5C8.43039 5 6.98928 5.41306 5.6765 6.23917C4.64504 6.88897 3.80442 7.71675 3.15466 8.72251C2.81608 9.24658 2.81608 9.92009 3.15468 10.4441C3.80443 11.4498 4.64504 12.2773 5.6765 12.9267C6.98928 13.7533 8.43039 14.1667 9.99984 14.1667Z" fill="#424242"/>
</g>
</svg>