<svg width="20" height="20" viewBox="0 0 20 20" fill="none" xmlns="http://www.w3.org/2000/svg">
<mask id="mask0_109_1728" style="mask-type:alpha" maskUnits="userSpaceOnUse" x="0" y="0" width="20" height="20">
<rect width="20" height="20" fill="#D9D9D9"/>
</mask>
<g mask="url(#mask0_109_1728)">
<path d="M13.3333 10.2393C13.2739 10.5265 12.9257 10.5926 12.7183 10.3852L12.4588 10.1256C12.3019 9.96873 12.2395 9.74491 12.2441 9.52307C12.2556 8.96897 12.0459 8.46495 11.615 8.011C11.1747 7.54723 10.6527 7.324 10.0489 7.34132C9.83405 7.34748 9.61807 7.28494 9.46605 7.13292L9.20474 6.87161C8.99689 6.66376 9.06671 6.31175 9.35413 6.25016V6.25016C9.54857 6.2085 9.76385 6.18766 9.99996 6.18766C10.9444 6.18766 11.7463 6.51766 12.4058 7.17766C13.0658 7.83711 13.3958 8.63905 13.3958 9.5835C13.3958 9.81961 13.375 10.0382 13.3333 10.2393V10.2393ZM15.7916 13.396L14.875 12.5418C15.4027 12.1391 15.8716 11.6979 16.2816 11.2185C16.4906 10.9741 16.6843 10.7124 16.8626 10.4335C17.1932 9.91636 17.1867 9.25407 16.8554 8.73727C16.2066 7.72492 15.3692 6.89227 14.3433 6.23933C13.045 5.41322 11.5972 5.00016 9.99996 5.00016C9.59718 5.00016 9.20135 5.02794 8.81246 5.0835C8.42357 5.13905 8.04163 5.22239 7.66663 5.3335L6.68746 4.35433C7.21524 4.146 7.75357 3.99322 8.30246 3.896C8.85079 3.79877 9.41663 3.75016 9.99996 3.75016C11.9583 3.75016 13.7222 4.2885 15.2916 5.36516C16.3978 6.12362 17.2901 7.046 17.9685 8.13232C18.5222 9.01904 18.5218 10.1479 17.965 11.0327C17.8264 11.2529 17.6783 11.4676 17.5208 11.6768C17.0347 12.3229 16.4583 12.896 15.7916 13.396ZM16.9009 17.797C16.6556 18.0366 16.2632 18.0343 16.0208 17.7918L13.1041 14.8752C12.6736 15.0418 12.198 15.1738 11.6775 15.271C11.1563 15.3682 10.5972 15.4168 9.99996 15.4168C8.04163 15.4168 6.28107 14.8785 4.71829 13.8018C3.62497 13.0487 2.73736 12.134 2.05546 11.0576C1.48604 10.1587 1.48585 9.00755 2.06304 8.1137C2.19349 7.91169 2.33218 7.71412 2.47913 7.521C2.96524 6.88211 3.49996 6.3335 4.08329 5.87516L2.20537 3.98032C1.96423 3.737 1.9628 3.34525 2.20216 3.10019V3.10019C2.44632 2.85021 2.84765 2.84785 3.09473 3.09494L16.9062 16.9064C17.1527 17.1529 17.1504 17.5534 16.9009 17.797V17.797ZM4.95829 6.75016C4.51385 7.09739 4.0869 7.51766 3.67746 8.011C3.4818 8.24616 3.30278 8.48847 3.14039 8.73793C2.80623 9.25128 2.81287 9.912 3.14324 10.4278C3.79215 11.4409 4.62967 12.2739 5.65579 12.9268C6.95468 13.7535 8.40274 14.1668 9.99996 14.1668C10.375 14.1668 10.75 14.1354 11.125 14.0727C11.5 14.0104 11.8194 13.9446 12.0833 13.8752L11.0416 12.7918C10.8888 12.8474 10.7222 12.8924 10.5416 12.9268C10.3611 12.9618 10.1805 12.9793 9.99996 12.9793C9.05551 12.9793 8.25357 12.6493 7.59413 11.9893C6.93413 11.3299 6.60413 10.5279 6.60413 9.5835C6.60413 9.41683 6.62163 9.23961 6.65663 9.05183C6.69107 8.86461 6.73607 8.69461 6.79163 8.54183L4.95829 6.75016Z" fill="#424242"/>
</g>
</svg>
