<svg width="52" height="52" viewBox="0 0 52 52" fill="none" xmlns="http://www.w3.org/2000/svg">
<rect x="0.5" y="0.5" width="51" height="51" rx="25.5" fill="white"/>
<path fill-rule="evenodd" clip-rule="evenodd" d="M34.9999 26.2043C35.0007 25.5868 34.9448 24.9705 34.8329 24.3628H26.1812V27.8441H31.1239C31.0213 28.3942 30.8061 28.9182 30.4911 29.3845C30.1762 29.8508 29.7681 30.2497 29.2915 30.5572V32.8159H32.259C33.9954 31.2491 34.9973 28.9412 34.9973 26.2026L34.9999 26.2043Z" fill="#3E82F1"/>
<path fill-rule="evenodd" clip-rule="evenodd" d="M26.1839 34.9993C28.6635 34.9993 30.7425 34.1939 32.2617 32.8195L29.2942 30.5608C28.4714 31.1009 27.4193 31.4205 26.1839 31.4205C23.7917 31.4205 21.7671 29.8367 21.0456 27.7095H17.9768V30.0419C18.7413 31.5327 19.9136 32.7858 21.3629 33.6612C22.8122 34.5367 24.4814 35 26.1839 34.9993Z" fill="#32A753"/>
<path fill-rule="evenodd" clip-rule="evenodd" d="M21.0455 27.7094C20.6614 26.6007 20.6614 25.3987 21.0455 24.29V21.9575H17.9767C17.3345 23.212 17 24.5961 17 25.9997C17 27.4032 17.3345 28.7873 17.9767 30.0418L21.0455 27.7094Z" fill="#F9BB00"/>
<path fill-rule="evenodd" clip-rule="evenodd" d="M26.1839 20.5788C27.5327 20.5788 28.743 21.0333 29.6947 21.9252L32.3283 19.3435C30.7381 17.8911 28.6591 17 26.1856 17C24.4831 16.9994 22.8139 17.4627 21.3646 18.3381C19.9153 19.2135 18.743 20.4667 17.9785 21.9574L21.0473 24.2899C21.7689 22.1626 23.7934 20.5788 26.1856 20.5788H26.1839Z" fill="#E74133"/>
<rect x="0.5" y="0.5" width="51" height="51" rx="25.5" stroke="#EEEEEE"/>
</svg>
