<svg width="20" height="20" viewBox="0 0 20 20" fill="none" xmlns="http://www.w3.org/2000/svg">
<mask id="mask0_158_3017" style="mask-type:alpha" maskUnits="userSpaceOnUse" x="0" y="0" width="20" height="20">
<rect width="20" height="20" fill="#D9D9D9"/>
</mask>
<g mask="url(#mask0_158_3017)">
<path d="M7.99992 10.8337C7.72378 10.8337 7.49992 10.6098 7.49992 10.3337V7.20218C7.49992 6.86782 7.66702 6.55559 7.94522 6.37013L9.44522 5.37013C9.78112 5.14619 10.2187 5.14619 10.5546 5.37013L12.0546 6.37013C12.3328 6.55559 12.4999 6.86782 12.4999 7.20218V10.3337C12.4999 10.6098 12.2761 10.8337 11.9999 10.8337H11.3333C11.0571 10.8337 10.8333 10.6098 10.8333 10.3337V8.83366C10.8333 8.55752 10.6094 8.33366 10.3333 8.33366H9.66658C9.39044 8.33366 9.16658 8.55752 9.16658 8.83366V10.3337C9.16658 10.6098 8.94273 10.8337 8.66658 10.8337H7.99992ZM9.66343 15.8129C9.85264 15.9906 10.1472 15.9906 10.3364 15.8129C11.8617 14.38 13.0065 13.0708 13.7708 11.8853C14.5902 10.6148 14.9999 9.48644 14.9999 8.50033C14.9999 6.98644 14.5171 5.74671 13.5516 4.78116C12.5866 3.81616 11.4027 3.33366 9.99992 3.33366C8.59714 3.33366 7.41297 3.81616 6.44742 4.78116C5.48242 5.74671 4.99992 6.98644 4.99992 8.50033C4.99992 9.48644 5.40964 10.6148 6.22909 11.8853C6.99333 13.0708 8.13811 14.38 9.66343 15.8129ZM10.6431 17.7763C10.2754 18.1009 9.7244 18.101 9.35671 17.7763C7.44086 16.0846 5.98526 14.5029 4.98992 13.0312C3.88547 11.3995 3.33325 9.88921 3.33325 8.50033C3.33325 6.41699 4.00353 4.75727 5.34409 3.52116C6.68409 2.28505 8.23603 1.66699 9.99992 1.66699C11.7638 1.66699 13.3158 2.28505 14.6558 3.52116C15.9963 4.75727 16.6666 6.41699 16.6666 8.50033C16.6666 9.88921 16.1146 11.3995 15.0108 13.0312C14.0149 14.5029 12.559 16.0846 10.6431 17.7763Z" fill="#757575"/>
</g>
</svg>
