<svg width="20" height="20" viewBox="0 0 20 20" fill="none" xmlns="http://www.w3.org/2000/svg">
<path fillRule="evenodd" clipRule="evenodd" d="M12.7689 13.7895C11.5982 14.7362 10.1077 15.3032 8.48482 15.3032C4.71923 15.3032 1.66663 12.2506 1.66663 8.48511C1.66663 4.71957 4.71923 1.66699 8.48482 1.66699C12.2504 1.66699 15.303 4.71957 15.303 8.48511C15.303 10.1081 14.7359 11.5986 13.7891 12.7694L18.122 17.1023C18.4037 17.384 18.4037 17.8407 18.122 18.1224C17.8403 18.4041 17.3836 18.4041 17.1019 18.1224L12.7689 13.7895ZM13.8636 8.48511C13.8636 11.4557 11.4554 13.8638 8.48482 13.8638C5.51419 13.8638 3.10602 11.4557 3.10602 8.48511C3.10602 5.51451 5.51419 3.10637 8.48482 3.10637C11.4554 3.10637 13.8636 5.51451 13.8636 8.48511Z" fill="#757575"/>
</svg>
