<svg width="39" height="40" viewBox="0 0 39 40" fill="none" xmlns="http://www.w3.org/2000/svg">
<path fill-rule="evenodd" clip-rule="evenodd" d="M15 13.942V21.25C15 21.6642 14.6642 22 14.25 22C13.8358 22 13.5 21.6642 13.5 21.25V2.75C13.5 2.33579 13.8358 2 14.25 2C14.2546 2 14.2592 2.00004 14.2638 2.00012C14.2684 2.00004 14.2731 2 14.2778 2L14.2819 2.00067C14.342 2.00319 14.4003 2.01278 14.456 2.02864L26.7222 4C27.0368 4 27.3204 4.19068 27.4408 4.48312C27.5612 4.77556 27.4946 5.11217 27.2722 5.336L23.637 8L27.2722 11.664C27.4946 11.8878 27.5612 12.2244 27.4408 12.5169C27.3204 12.8093 27.0368 13 26.7222 13L15 13.942ZM24.8445 11.4348L15.0556 12.4348L15.0556 3.56522L24.8445 5.56522L21.9871 7.44661C21.6833 7.75224 21.6833 8.24776 21.9871 8.55339L24.8445 11.4348Z" fill="#BDBDBD"/>
<path d="M8.40332 29.2773H7.38281V36.249H8.40332V32.9189H9.81055V32.0703H8.40332V29.2773ZM1.27051 34.584H2.0332C4.0957 34.584 5.23438 34.5195 6.53418 34.2617L6.41602 33.4346C5.20752 33.6816 4.15479 33.7407 2.28027 33.7354V30.9316H5.56738V30.1045H1.27051V34.584ZM2.30176 38.709H8.81152V37.8818H3.32227V35.5293H2.30176V38.709ZM18.0283 29.6748H11.3789V30.4912H17.0078C17.0078 31.0391 16.9863 31.6514 16.8359 32.4785L17.8457 32.5645C18.0176 31.6299 18.0176 30.8833 18.0283 30.2764V29.6748ZM10.3584 33.8643H19.1133V33.0586H14.8701V31.4688H13.8711V33.0586H10.3584V33.8643ZM11.3789 35.4863H17.04V36.335H11.3896V38.8164H18.2969V38H12.4102V37.0439H18.0498V34.6592H11.3789V35.4863ZM27.3525 29.2881H26.332V38.9023H27.3525V33.9717H28.8457V33.123H27.3525V29.2881ZM19.8652 36.335L20.4346 37.1299C23.6035 35.5669 24.8281 33.0801 24.8389 30.2979H20.3486V31.1465H23.7969C23.5874 33.3916 22.2769 35.1318 19.8652 36.335ZM37.6328 29.2881H36.666V38.9131H37.6328V29.2881ZM29.3291 36.1309L29.9092 36.8613C31.2681 36.0664 32.1865 35.0889 32.7559 33.9717H34.6357V38.4404H35.6025V29.5352H34.6357V33.1553H33.1104C33.4058 32.3174 33.5347 31.4204 33.54 30.4805H29.7803V31.3184H32.5249C32.3477 33.3003 31.3701 34.917 29.3291 36.1309Z" fill="#BDBDBD"/>
</svg>
