<svg width="18" height="20" viewBox="0 0 18 20" fill="none" xmlns="http://www.w3.org/2000/svg">
<path fill-rule="evenodd" clip-rule="evenodd" d="M5.08481 17.4359H1.05689C0.309915 17.4359 -0.200861 16.7031 0.076559 16.0293L1.59993 12.3299C1.60596 12.3152 1.60906 12.2996 1.60906 12.2838V7.17949C1.60906 3.21437 4.9181 0 9 0C13.0819 0 16.3909 3.21437 16.3909 7.17949V12.2838C16.3909 12.2996 16.394 12.3152 16.4001 12.3299L17.9234 16.0293C18.2009 16.7031 17.6901 17.4359 16.9431 17.4359H12.9152C12.9108 17.4464 12.9064 17.4569 12.9019 17.4674C12.6897 17.9652 12.3786 18.4174 11.9864 18.7984C11.5942 19.1793 11.1286 19.4815 10.6162 19.6877C10.1038 19.8939 9.55463 20 9 20C8.44538 20 7.89619 19.8939 7.38378 19.6877C6.87138 19.4815 6.40579 19.1793 6.01361 18.7984C5.62144 18.4174 5.31034 17.9652 5.0981 17.4674C5.09362 17.4569 5.0892 17.4464 5.08481 17.4359ZM14.9296 12.9012L16.1634 15.8974H1.83665L3.07042 12.9012C3.15129 12.7049 3.19284 12.4953 3.19284 12.2838V7.17949C3.19284 4.06403 5.79279 1.53846 9 1.53846C12.2072 1.53846 14.8072 4.06404 14.8072 7.17949V12.2838C14.8072 12.4953 14.8487 12.7049 14.9296 12.9012ZM6.62963 17.4359C6.73313 17.5864 6.85182 17.727 6.98419 17.8556C7.24891 18.1127 7.56318 18.3167 7.90905 18.4559C8.25493 18.595 8.62563 18.6667 9 18.6667C9.37438 18.6667 9.74508 18.595 10.091 18.4559C10.4368 18.3167 10.7511 18.1127 11.0158 17.8556C11.1482 17.727 11.2669 17.5864 11.3704 17.4359H6.62963Z" fill="#424242"/>
</svg>
