<svg width="24" height="24" viewBox="0 0 24 24" fill="none" xmlns="http://www.w3.org/2000/svg">
<path d="M21.1087 8.64493C19.7662 9.09324 18.8856 10.4765 18.8856 12L21.3463 14.6437L21.1087 15.3551C21.1087 15.3551 21.1087 15.3551 21.1087 15.3551C21.1202 15.3589 21.1529 15.3749 21.1878 15.4291C21.2227 15.4835 21.25 15.5633 21.25 15.6584V17.5622C21.25 18.0525 20.93 18.25 20.7639 18.25H3.28068C3.08269 18.25 2.75 18.0162 2.75 17.5622V6.43775C2.75 5.98375 3.08269 5.75 3.28068 5.75H20.7639C20.93 5.75 21.25 5.94754 21.25 6.43775V8.34162C21.25 8.43674 21.2227 8.51652 21.1878 8.57088C21.1529 8.62514 21.1201 8.6411 21.1087 8.64493Z" stroke="#424242" stroke-width="1.5"/>
<path d="M11 9V15" stroke="#424242" stroke-width="1.5" stroke-linecap="round" stroke-linejoin="round"/>
<path d="M14 12L8 12" stroke="#424242" stroke-width="1.5" stroke-linecap="round" stroke-linejoin="round"/>
</svg>
