<svg width="48" height="48" viewBox="0 0 48 48" fill="none" xmlns="http://www.w3.org/2000/svg">
<rect width="48" height="48" rx="4" fill="#03A9F4"/>
<path fill-rule="evenodd" clip-rule="evenodd" d="M18.7798 33.9158H13.4092C12.4132 33.9158 11.7322 32.9387 12.1021 32.0404L14.1332 27.1078C14.1413 27.0883 14.1454 27.0674 14.1454 27.0464V20.2406C14.1454 14.9538 18.5575 10.668 24 10.668C29.4425 10.668 33.8546 14.9538 33.8546 20.2406V27.0464C33.8546 27.0674 33.8587 27.0883 33.8668 27.1078L35.8979 32.0404C36.2678 32.9387 35.5868 33.9158 34.5908 33.9158H29.2203C29.2144 33.9299 29.2085 33.9439 29.2025 33.9579C28.9196 34.6215 28.5048 35.2245 27.9819 35.7325C27.459 36.2404 26.8382 36.6434 26.155 36.9183C25.4718 37.1931 24.7395 37.3346 24 37.3346C23.2605 37.3346 22.5282 37.1931 21.845 36.9183C21.1618 36.6434 20.5411 36.2404 20.0182 35.7325C19.4952 35.2245 19.0805 34.6215 18.7975 33.9579C18.7915 33.9439 18.7856 33.9299 18.7798 33.9158ZM20.8395 33.9158C20.9775 34.1165 21.1358 34.304 21.3123 34.4754C21.6652 34.8183 22.0842 35.0902 22.5454 35.2758C23.0066 35.4614 23.5008 35.5569 24 35.5569C24.4992 35.5569 24.9934 35.4614 25.4546 35.2758C25.9158 35.0902 26.3348 34.8183 26.6878 34.4754C26.8643 34.304 27.0225 34.1165 27.1605 33.9158H20.8395Z" fill="white"/>
</svg>
