<svg width="48" height="48" viewBox="0 0 48 48" fill="none" xmlns="http://www.w3.org/2000/svg">
<rect width="48" height="48" rx="4" fill="#8BC34A"/>
<path d="M23.3272 11.1549C23.539 10.5057 24.461 10.5057 24.6728 11.1549L27.3354 19.3179C27.4301 19.6083 27.7017 19.8049 28.0082 19.8049H36.6245C37.3098 19.8049 37.5948 20.6784 37.0404 21.0797L30.0696 26.1247C29.8216 26.3042 29.7179 26.6223 29.8126 26.9126L32.4752 35.0756C32.687 35.7249 31.941 36.2648 31.3866 35.8635L24.4158 30.8185C24.1679 30.639 23.8321 30.639 23.5842 30.8185L16.6134 35.8635C16.059 36.2648 15.313 35.7249 15.5248 35.0756L18.1874 26.9126C18.2821 26.6223 18.1783 26.3042 17.9304 26.1247L10.9596 21.0797C10.4052 20.6784 10.6901 19.8049 11.3754 19.8049H19.9918C20.2983 19.8049 20.5699 19.6083 20.6646 19.3179L23.3272 11.1549Z" fill="white"/>
</svg>
