<svg width="24" height="24" viewBox="0 0 24 24" fill="none" xmlns="http://www.w3.org/2000/svg">
<path d="M10.5 20.95C10.5 21.3642 10.1642 21.7 9.75 21.7H4.8C4.3 21.7 3.875 21.525 3.525 21.175C3.175 20.825 3 20.4 3 19.9V6.5C3 6 3.175 5.575 3.525 5.225C3.875 4.875 4.3 4.7 4.8 4.7H9.225C9.35833 4.21667 9.63733 3.81233 10.062 3.487C10.4873 3.16233 10.9667 3 11.5 3C12.05 3 12.5377 3.16233 12.963 3.487C13.3877 3.81233 13.6667 4.21667 13.8 4.7H18.2C18.7 4.7 19.125 4.875 19.475 5.225C19.825 5.575 20 6 20 6.5V10.45C20 10.8642 19.6642 11.2 19.25 11.2C18.8358 11.2 18.5 10.8642 18.5 10.45V6.5C18.5 6.43333 18.4667 6.36667 18.4 6.3C18.3333 6.23333 18.2667 6.2 18.2 6.2H16V8.825H7V6.2H4.8C4.73333 6.2 4.66667 6.23333 4.6 6.3C4.53333 6.36667 4.5 6.43333 4.5 6.5V19.9C4.5 19.9667 4.53333 20.0333 4.6 20.1C4.66667 20.1667 4.73333 20.2 4.8 20.2H9.75C10.1642 20.2 10.5 20.5358 10.5 20.95ZM15.3536 20.4214C15.1583 20.6167 14.8417 20.6167 14.6464 20.4214L11.625 17.4C11.3341 17.1091 11.3313 16.6382 11.6188 16.3438C11.9112 16.0445 12.3917 16.0417 12.6875 16.3375L15 18.65L20.1494 13.5233C20.4399 13.2341 20.9096 13.2346 21.1994 13.5244C21.4897 13.8147 21.4897 14.2853 21.1994 14.5756L15.3536 20.4214ZM11.5 6.325C11.75 6.325 11.9623 6.23733 12.137 6.062C12.3123 5.88733 12.4 5.66667 12.4 5.4C12.4 5.15 12.3123 4.93733 12.137 4.762C11.9623 4.58733 11.75 4.5 11.5 4.5C11.25 4.5 11.0377 4.58733 10.863 4.762C10.6877 4.93733 10.6 5.15 10.6 5.4C10.6 5.66667 10.6877 5.88733 10.863 6.062C11.0377 6.23733 11.25 6.325 11.5 6.325Z" fill="#424242"/>
</svg>
