<svg width="49" height="48" viewBox="0 0 49 48" fill="none" xmlns="http://www.w3.org/2000/svg">
<rect x="0.666748" width="48" height="48" rx="4" fill="#FF5722"/>
<path d="M16 33.3987C14.9556 33.3987 14.072 33.0378 13.3493 32.316C12.6276 31.5934 12.2667 30.7098 12.2667 29.6654H11C10.4477 29.6654 10 29.2177 10 28.6654V15.732C10 15.0654 10.2333 14.4987 10.7 14.032C11.1667 13.5654 11.7333 13.332 12.4 13.332H29.5667C30.1189 13.332 30.5667 13.7797 30.5667 14.332V18.3987H33.5983C33.914 18.3987 34.2112 18.5478 34.3999 18.8009L38.2017 23.8994C38.3304 24.0721 38.4 24.2817 38.4 24.4972V28.6654C38.4 29.2176 37.9523 29.6654 37.4 29.6654H36C36 30.7098 35.6333 31.5934 34.9 32.316C34.1667 33.0378 33.2778 33.3987 32.2333 33.3987C31.2111 33.3987 30.3333 33.0378 29.6 32.316C28.8667 31.5934 28.5 30.7098 28.5 29.6654H19.7333C19.7333 30.7098 19.3724 31.5934 18.6507 32.316C17.928 33.0378 17.0444 33.3987 16 33.3987ZM16 31.3987C16.4889 31.3987 16.9 31.232 17.2333 30.8987C17.5667 30.5654 17.7333 30.1543 17.7333 29.6654C17.7333 29.1765 17.5667 28.7654 17.2333 28.432C16.9 28.0987 16.4889 27.932 16 27.932C15.5111 27.932 15.1 28.0987 14.7667 28.432C14.4333 28.7654 14.2667 29.1765 14.2667 29.6654C14.2667 30.1543 14.4333 30.5654 14.7667 30.8987C15.1 31.232 15.5111 31.3987 16 31.3987ZM32.2667 31.3987C32.7556 31.3987 33.1667 31.232 33.5 30.8987C33.8333 30.5654 34 30.1543 34 29.6654C34 29.1765 33.8333 28.7654 33.5 28.432C33.1667 28.0987 32.7556 27.932 32.2667 27.932C31.7778 27.932 31.3613 28.0987 31.0173 28.432C30.6724 28.7654 30.5 29.1765 30.5 29.6654C30.5 30.1543 30.6724 30.5654 31.0173 30.8987C31.3613 31.232 31.7778 31.3987 32.2667 31.3987ZM30.5667 24.9987H36.5333L33.0667 20.3987H30.5667V24.9987Z" fill="white"/>
</svg>
