<svg width="24" height="24" viewBox="0 0 24 24" fill="none" xmlns="http://www.w3.org/2000/svg">
<path d="M3 19.7V8.775C2.73333 8.64167 2.5 8.43733 2.3 8.162C2.1 7.88733 2 7.56667 2 7.2V4.8C2 4.3 2.175 3.875 2.525 3.525C2.875 3.175 3.3 3 3.8 3H19.2C19.7 3 20.125 3.175 20.475 3.525C20.825 3.875 21 4.3 21 4.8V7.2C21 7.56667 20.9 7.88733 20.7 8.162C20.5 8.43733 20.2667 8.64167 20 8.775V19.7C20 20.2 19.825 20.625 19.475 20.975C19.125 21.325 18.7 21.5 18.2 21.5H4.8C4.3 21.5 3.875 21.325 3.525 20.975C3.175 20.625 3 20.2 3 19.7ZM4.5 9V19.7C4.5 19.7833 4.52933 19.8543 4.588 19.913C4.646 19.971 4.71667 20 4.8 20H18.2C18.2833 20 18.3543 19.971 18.413 19.913C18.471 19.8543 18.5 19.7833 18.5 19.7V9H4.5ZM19.2 7.5C19.2833 7.5 19.3543 7.47067 19.413 7.412C19.471 7.354 19.5 7.28333 19.5 7.2V4.8C19.5 4.71667 19.471 4.64567 19.413 4.587C19.3543 4.529 19.2833 4.5 19.2 4.5H3.8C3.71667 4.5 3.646 4.529 3.588 4.587C3.52933 4.64567 3.5 4.71667 3.5 4.8V7.2C3.5 7.28333 3.52933 7.354 3.588 7.412C3.646 7.47067 3.71667 7.5 3.8 7.5H19.2ZM8.7 13.7H14.3V12.2H8.7V13.7Z" fill="#424242"/>
</svg>
