<svg width="24" height="24" viewBox="0 0 24 24" fill="none" xmlns="http://www.w3.org/2000/svg">
<mask id="mask0_676_14360" style="mask-type:alpha" maskUnits="userSpaceOnUse" x="0" y="0" width="24" height="24">
<rect width="24" height="24" fill="#D9D9D9"/>
</mask>
<g mask="url(#mask0_676_14360)">
<path d="M6.06541 15.0846C5.57809 15.5719 4.75689 15.4637 4.51106 14.8199C4.42028 14.5821 4.34159 14.3422 4.275 14.1C4.09167 13.4333 4 12.75 4 12.05C4 9.81667 4.775 7.91667 6.325 6.35C7.875 4.78333 9.76667 4 12 4H12.175L11.275 3.1C10.8884 2.7134 10.8884 2.0866 11.275 1.7C11.6616 1.3134 12.2884 1.3134 12.675 1.7L15.2679 4.29289C15.6584 4.68342 15.6584 5.31658 15.2679 5.70711L12.675 8.3C12.2884 8.6866 11.6616 8.6866 11.275 8.3C10.8884 7.9134 10.8884 7.2866 11.275 6.9L12.175 6H12C10.3333 6 8.91667 6.58733 7.75 7.762C6.58333 8.93733 6 10.3667 6 12.05C6 12.4833 6.05 12.9083 6.15 13.325C6.19271 13.5029 6.24453 13.6794 6.30547 13.8543C6.45403 14.2806 6.38466 14.7653 6.06541 15.0846ZM12.725 22.3C12.3384 22.6866 11.7116 22.6866 11.325 22.3L8.73211 19.7071C8.34158 19.3166 8.34158 18.6834 8.73211 18.2929L11.325 15.7C11.7116 15.3134 12.3384 15.3134 12.725 15.7C13.1116 16.0866 13.1116 16.7134 12.725 17.1L11.825 18H12C13.6667 18 15.0833 17.4127 16.25 16.238C17.4167 15.0627 18 13.6333 18 11.95C18 11.5167 17.95 11.0917 17.85 10.675C17.8073 10.4971 17.7555 10.3206 17.6945 10.1457C17.546 9.71939 17.6153 9.23466 17.9346 8.91541C18.4219 8.42809 19.2431 8.5363 19.4889 9.18014C19.5797 9.41789 19.6584 9.65785 19.725 9.9C19.9083 10.5667 20 11.25 20 11.95C20 14.1833 19.225 16.0833 17.675 17.65C16.125 19.2167 14.2333 20 12 20H11.825L12.725 20.9C13.1116 21.2866 13.1116 21.9134 12.725 22.3Z" fill="#424242"/>
</g>
</svg>
