<svg width="24" height="24" viewBox="0 0 24 24" fill="none" xmlns="http://www.w3.org/2000/svg">
<path fillRule="evenodd" clipRule="evenodd" d="M8.08481 19.4359H4.05689C3.30991 19.4359 2.79914 18.7031 3.07656 18.0293L4.59993 14.3299C4.60596 14.3152 4.60906 14.2996 4.60906 14.2838V9.17949C4.60906 5.21437 7.9181 2 12 2C16.0819 2 19.3909 5.21437 19.3909 9.17949V14.2838C19.3909 14.2996 19.394 14.3152 19.4001 14.3299L20.9234 18.0293C21.2009 18.7031 20.6901 19.4359 19.9431 19.4359H15.9152C15.9108 19.4464 15.9064 19.4569 15.9019 19.4674C15.6897 19.9652 15.3786 20.4174 14.9864 20.7984C14.5942 21.1793 14.1286 21.4815 13.6162 21.6877C13.1038 21.8939 12.5546 22 12 22C11.4454 22 10.8962 21.8939 10.3838 21.6877C9.87138 21.4815 9.40579 21.1793 9.01361 20.7984C8.62144 20.4174 8.31034 19.9652 8.0981 19.4674C8.09362 19.4569 8.0892 19.4464 8.08481 19.4359ZM17.9296 14.9012L19.1634 17.8974H4.83665L6.07042 14.9012C6.15129 14.7049 6.19284 14.4953 6.19284 14.2838V9.17949C6.19284 6.06403 8.79279 3.53846 12 3.53846C15.2072 3.53846 17.8072 6.06403 17.8072 9.17949V14.2838C17.8072 14.4953 17.8487 14.7049 17.9296 14.9012ZM9.62963 19.4359C9.73313 19.5864 9.85182 19.727 9.98419 19.8556C10.2489 20.1127 10.5632 20.3167 10.9091 20.4559C11.2549 20.595 11.6256 20.6667 12 20.6667C12.3744 20.6667 12.7451 20.595 13.091 20.4559C13.4368 20.3167 13.7511 20.1127 14.0158 19.8556C14.1482 19.727 14.2669 19.5864 14.3704 19.4359H9.62963Z" fill="#424242"/>
</svg>
