<svg width="24" height="24" viewBox="0 0 24 24" fill="none" xmlns="http://www.w3.org/2000/svg">
<path d="M5.69412 21C5.22353 21 4.82353 20.8353 4.49412 20.5059C4.16471 20.1765 4 19.7765 4 19.3059V13V6.69412C4 6.22353 4.16471 5.82353 4.49412 5.49412C4.82353 5.16471 5.22353 5 5.69412 5H7.01176V3.71765C7.01176 3.3213 7.33307 3 7.72941 3C8.12576 3 8.44706 3.3213 8.44706 3.71765V5H15.5765V3.70588C15.5765 3.31603 15.8925 3 16.2824 3C16.6722 3 16.9882 3.31603 16.9882 3.70588V5H18.3059C18.7765 5 19.1765 5.16471 19.5059 5.49412C19.8353 5.82353 20 6.22353 20 6.69412V19.3059C20 19.7765 19.8353 20.1765 19.5059 20.5059C19.1765 20.8353 18.7765 21 18.3059 21H5.69412ZM5.69412 19.5882H18.3059C18.3686 19.5882 18.4314 19.5569 18.4941 19.4941C18.5569 19.4314 18.5882 19.3686 18.5882 19.3059V10.4588H5.41176V19.3059C5.41176 19.3686 5.44314 19.4314 5.50588 19.4941C5.56863 19.5569 5.63137 19.5882 5.69412 19.5882ZM5.41176 9.04706H18.5882V6.69412C18.5882 6.63137 18.5569 6.56863 18.4941 6.50588C18.4314 6.44314 18.3686 6.41176 18.3059 6.41176H5.69412C5.63137 6.41176 5.56863 6.44314 5.50588 6.50588C5.44314 6.56863 5.41176 6.63137 5.41176 6.69412V9.04706ZM12 14.0118C11.7647 14.0118 11.5686 13.9293 11.4118 13.7642C11.2549 13.5998 11.1765 13.4078 11.1765 13.1882C11.1765 12.9529 11.2549 12.7528 11.4118 12.5878C11.5686 12.4234 11.7647 12.3412 12 12.3412C12.2353 12.3412 12.4314 12.4234 12.5882 12.5878C12.7451 12.7528 12.8235 12.9529 12.8235 13.1882C12.8235 13.4078 12.7451 13.5998 12.5882 13.7642C12.4314 13.9293 12.2353 14.0118 12 14.0118ZM8.23529 14.0118C8 14.0118 7.80392 13.9293 7.64706 13.7642C7.4902 13.5998 7.41176 13.4078 7.41176 13.1882C7.41176 12.9529 7.4902 12.7528 7.64706 12.5878C7.80392 12.4234 8 12.3412 8.23529 12.3412C8.47059 12.3412 8.66667 12.4234 8.82353 12.5878C8.98039 12.7528 9.05882 12.9529 9.05882 13.1882C9.05882 13.4078 8.98039 13.5998 8.82353 13.7642C8.66667 13.9293 8.47059 14.0118 8.23529 14.0118ZM15.7647 14.0118C15.5294 14.0118 15.3333 13.9293 15.1765 13.7642C15.0196 13.5998 14.9412 13.4078 14.9412 13.1882C14.9412 12.9529 15.0196 12.7528 15.1765 12.5878C15.3333 12.4234 15.5294 12.3412 15.7647 12.3412C16 12.3412 16.1961 12.4234 16.3529 12.5878C16.5098 12.7528 16.5882 12.9529 16.5882 13.1882C16.5882 13.4078 16.5098 13.5998 16.3529 13.7642C16.1961 13.9293 16 14.0118 15.7647 14.0118ZM12 17.7059C11.7647 17.7059 11.5686 17.6237 11.4118 17.4593C11.2549 17.2943 11.1765 17.102 11.1765 16.8824C11.1765 16.6471 11.2549 16.4472 11.4118 16.2828C11.5686 16.1178 11.7647 16.0353 12 16.0353C12.2353 16.0353 12.4314 16.1178 12.5882 16.2828C12.7451 16.4472 12.8235 16.6471 12.8235 16.8824C12.8235 17.102 12.7451 17.2943 12.5882 17.4593C12.4314 17.6237 12.2353 17.7059 12 17.7059ZM8.23529 17.7059C8 17.7059 7.80392 17.6237 7.64706 17.4593C7.4902 17.2943 7.41176 17.102 7.41176 16.8824C7.41176 16.6471 7.4902 16.4472 7.64706 16.2828C7.80392 16.1178 8 16.0353 8.23529 16.0353C8.47059 16.0353 8.66667 16.1178 8.82353 16.2828C8.98039 16.4472 9.05882 16.6471 9.05882 16.8824C9.05882 17.102 8.98039 17.2943 8.82353 17.4593C8.66667 17.6237 8.47059 17.7059 8.23529 17.7059ZM15.7647 17.7059C15.5294 17.7059 15.3333 17.6237 15.1765 17.4593C15.0196 17.2943 14.9412 17.102 14.9412 16.8824C14.9412 16.6471 15.0196 16.4472 15.1765 16.2828C15.3333 16.1178 15.5294 16.0353 15.7647 16.0353C16 16.0353 16.1961 16.1178 16.3529 16.2828C16.5098 16.4472 16.5882 16.6471 16.5882 16.8824C16.5882 17.102 16.5098 17.2943 16.3529 17.4593C16.1961 17.6237 16 17.7059 15.7647 17.7059Z" fill="#424242"/>
</svg>
