<svg width="24" height="24" viewBox="0 0 24 24" fill="none" xmlns="http://www.w3.org/2000/svg">
<path d="M20.5423 6.13948H15.2483L14.1792 4.29139C14.0746 4.1107 13.8854 4 13.6811 4H10.3188C10.1145 4 9.92523 4.1107 9.82071 4.29139L8.75168 6.13948H7.01446V5.73216C7.01446 5.40272 6.75492 5.13564 6.43478 5.13564H4.28989C3.96969 5.13564 3.71021 5.40272 3.71021 5.73216V6.13948H3.4577C2.65257 6.13948 2 6.81107 2 7.63944V18.5C2 19.3284 2.65257 20 3.45763 20H20.5423C21.3474 20 22 19.3284 22 18.5V7.63944C22.0001 6.81107 21.3474 6.13948 20.5423 6.13948ZM12 17.3393C9.70845 17.3393 7.85083 15.4278 7.85083 13.0696C7.85083 10.7116 9.70845 8.79999 12 8.79999C14.2915 8.79999 16.1491 10.7116 16.1491 13.0696C16.1491 15.4278 14.2915 17.3393 12 17.3393ZM19.6329 9.23196H17.8164C17.4963 9.23196 17.2368 8.96488 17.2368 8.63538C17.2368 8.30588 17.4963 8.03879 17.8164 8.03879H19.6329C19.9531 8.03879 20.2126 8.30588 20.2126 8.63538C20.2126 8.96488 19.9531 9.23196 19.6329 9.23196Z" fill="#0B806F"/>
<path d="M11.9999 16.0515C13.6008 16.0515 14.8985 14.7161 14.8985 13.0687C14.8985 11.4214 13.6008 10.0859 11.9999 10.0859C10.3991 10.0859 9.10132 11.4214 9.10132 13.0687C9.10132 14.7161 10.3991 16.0515 11.9999 16.0515Z" fill="#0B806F"/>
</svg>
