<svg width="24" height="24" viewBox="0 0 24 24" fill="none" xmlns="http://www.w3.org/2000/svg">
<path d="M7.71654 22C7.22752 22 6.81033 21.832 6.46497 21.496C6.11895 21.1593 5.94593 20.753 5.94593 20.2772C5.94593 19.8014 6.11895 19.3951 6.46497 19.0584C6.81033 18.7224 7.22752 18.5544 7.71654 18.5544C8.20557 18.5544 8.62276 18.7224 8.96811 19.0584C9.31414 19.3951 9.48715 19.8014 9.48715 20.2772C9.48715 20.753 9.31414 21.1593 8.96811 21.496C8.62276 21.832 8.20557 22 7.71654 22ZM17.5308 22C17.0418 22 16.6246 21.832 16.2792 21.496C15.9332 21.1593 15.7602 20.753 15.7602 20.2772C15.7602 19.8014 15.9332 19.3951 16.2792 19.0584C16.6246 18.7224 17.0418 18.5544 17.5308 18.5544C18.0198 18.5544 18.437 18.7224 18.7824 19.0584C19.1284 19.3951 19.3014 19.8014 19.3014 20.2772C19.3014 20.753 19.1284 21.1593 18.7824 21.496C18.437 21.832 18.0198 22 17.5308 22ZM6.89891 6.4456C6.75096 6.4456 6.65422 6.60067 6.71928 6.73355L9.13303 11.6632H16.0384C16.089 11.6632 16.1396 11.6507 16.1902 11.6258C16.2408 11.6015 16.2745 11.5648 16.2914 11.5155L19.0232 6.71632C19.0569 6.65069 19.0569 6.58933 19.0232 6.53223C18.9894 6.47447 18.9388 6.4456 18.8714 6.4456H6.89891ZM5.57074 4.40761C5.7384 4.75106 6.08717 4.96891 6.46937 4.96891H19.8832C20.3047 4.96891 20.6211 5.14119 20.8322 5.48575C21.0427 5.83031 21.0551 6.18307 20.8696 6.54404L17.6067 12.2539C17.4549 12.5328 17.2401 12.7501 16.9622 12.9056C16.6836 13.0618 16.3841 13.1399 16.0637 13.1399H8.67773L7.51419 15.2319C7.4636 15.3139 7.45955 15.3959 7.50205 15.478C7.54387 15.56 7.61536 15.601 7.71654 15.601H18.5631C18.9708 15.601 19.3014 15.9316 19.3014 16.3394C19.3014 16.7472 18.9708 17.0777 18.5631 17.0777H7.71654C7.04202 17.0777 6.53614 16.7949 6.19888 16.2291C5.86162 15.6627 5.85319 15.1006 6.17358 14.5427L7.61536 12.0078L3.92238 4.47668H2.73834C2.33057 4.47668 2 4.14612 2 3.73834C2 3.33057 2.33057 3 2.73834 3H4.25895C4.64115 3 4.98991 3.21785 5.15758 3.5613L5.57074 4.40761Z" fill="#424242"/>
</svg>
