<svg width="200" height="182" viewBox="0 0 200 182" fill="none" xmlns="http://www.w3.org/2000/svg">
<path d="M145.002 182H61.0466C60.4932 181.997 59.9632 181.778 59.5719 181.389C59.1806 180.999 58.9597 180.472 58.9573 179.922V179.922C58.9597 179.371 59.1806 178.844 59.5719 178.455C59.9632 178.066 60.4932 177.846 61.0466 177.844H145.002C145.552 177.846 146.08 178.063 146.47 178.449C146.861 178.834 147.084 179.356 147.091 179.904V179.904C147.093 180.178 147.039 180.449 146.935 180.703C146.831 180.957 146.677 181.187 146.483 181.382C146.289 181.577 146.059 181.732 145.804 181.838C145.55 181.943 145.278 181.999 145.002 182V182Z" fill="#C1DAEA"/>
<path d="M143.772 44.0255V166.958C143.773 168.639 143.441 170.304 142.795 171.858C142.149 173.411 141.201 174.823 140.005 176.012C138.81 177.201 137.391 178.143 135.829 178.786C134.267 179.429 132.593 179.759 130.903 179.758H74.0119C72.322 179.758 70.6488 179.427 69.0876 178.784C67.5265 178.14 66.1081 177.197 64.9134 176.009C63.7187 174.82 62.7712 173.409 62.1249 171.856C61.4787 170.303 61.1464 168.639 61.147 166.958V44.0255C61.1465 40.6683 62.4732 37.4454 64.8406 35.0524C67.2081 32.6594 70.4266 31.2881 73.8016 31.2344H130.903C132.592 31.2338 134.265 31.5642 135.826 32.2066C137.387 32.8491 138.806 33.7912 140.001 34.9789C141.196 36.1667 142.144 37.577 142.791 39.1292C143.438 40.6814 143.771 42.3452 143.772 44.0255V44.0255Z" fill="#506B8D"/>
<path d="M133.303 179.535C132.511 179.684 131.708 179.758 130.903 179.758H100.327L73.8108 31.2344H106.828L133.303 179.535Z" fill="#5B7AA1"/>
<path d="M140.051 47.5371H64.5713V164.663H140.051V47.5371Z" fill="#2F496B"/>
<path d="M140.051 48.9316H65.9749V164.661H140.051V48.9316Z" fill="#425C7D"/>
<path d="M103.274 175.537C105.392 175.095 106.748 173.029 106.304 170.923C105.859 168.817 103.782 167.468 101.664 167.91C99.5463 168.352 98.1901 170.418 98.6348 172.525C99.0795 174.631 101.157 175.98 103.274 175.537Z" fill="#364E6B"/>
<g style="mix-blend-mode:multiply" opacity="0.2">
<path d="M143.772 121.287V144.478H134.336L125.59 148.529L127.808 144.469H120.378C118.699 144.469 117.089 143.805 115.901 142.624C114.714 141.443 114.047 139.841 114.047 138.171V127.585C114.047 125.915 114.714 124.313 115.901 123.132C117.089 121.951 118.699 121.287 120.378 121.287H143.772Z" fill="#425C7D"/>
</g>
<g style="mix-blend-mode:multiply" opacity="0.2">
<path d="M100.688 100.328V110.928C100.688 112.598 100.021 114.2 98.8334 115.381C97.646 116.562 96.0354 117.226 94.3561 117.226H86.927L89.1443 121.286L80.3986 117.226H61.147V94.0352H94.3561C96.0346 94.0352 97.6445 94.6981 98.8318 95.8781C100.019 97.0582 100.687 98.6589 100.688 100.328V100.328Z" fill="#425C7D"/>
</g>
<g style="mix-blend-mode:multiply" opacity="0.2">
<path d="M143.772 57.6094V80.7999H117.101L108.355 84.8696L110.572 80.809H103.143C101.464 80.809 99.8533 80.1455 98.6658 78.9644C97.4784 77.7833 96.8113 76.1814 96.8113 74.5112V63.9072C96.8113 62.2369 97.4784 60.635 98.6658 59.454C99.8533 58.2729 101.464 57.6094 103.143 57.6094H143.772Z" fill="#425C7D"/>
</g>
<path d="M174.97 24.4368C175.966 23.2828 176.687 21.9199 177.08 20.4497C177.473 18.9796 177.526 17.4403 177.237 15.9466C176.948 14.453 176.323 13.0436 175.409 11.8238C174.496 10.6039 173.317 9.60511 171.961 8.90189C170.605 8.19866 169.106 7.80919 167.578 7.76256C166.049 7.71593 164.53 8.01333 163.133 8.63258C161.736 9.25182 160.498 10.1769 159.511 11.3388C158.524 12.5006 157.813 13.8692 157.432 15.3424C157.133 15.2723 156.826 15.2372 156.518 15.2379C155.592 15.2393 154.694 15.5579 153.976 16.1403C153.258 16.7227 152.763 17.5332 152.576 18.4356C152.388 19.3379 152.518 20.2771 152.945 21.0951C153.371 21.9131 154.068 22.56 154.918 22.9271C154.393 23.1584 153.964 23.5619 153.703 24.0701C153.441 24.5783 153.363 25.1603 153.482 25.7189C153.6 26.2775 153.907 26.7788 154.353 27.1389C154.798 27.4989 155.354 27.696 155.928 27.6971C156.195 27.6939 156.459 27.6478 156.71 27.5607C157.184 29.2296 158.193 30.699 159.583 31.7455C160.974 32.7919 162.67 33.3582 164.413 33.3583H164.482C164.422 33.5684 164.389 33.7855 164.386 34.004C164.372 34.3296 164.424 34.6547 164.54 34.9597C164.655 35.2647 164.831 35.5432 165.058 35.7786C165.285 36.014 165.557 36.2014 165.858 36.3293C166.159 36.4573 166.484 36.5233 166.811 36.5233C167.139 36.5233 167.463 36.4573 167.765 36.3293C168.066 36.2014 168.338 36.014 168.565 35.7786C168.791 35.5432 168.968 35.2647 169.083 34.9597C169.199 34.6547 169.251 34.3296 169.237 34.004C169.234 33.7677 169.195 33.5331 169.122 33.3083C170.3 33.9099 171.66 34.0568 172.941 33.7206C174.221 33.3845 175.331 32.5892 176.057 31.4877C176.783 30.3863 177.073 29.0567 176.873 27.7549C176.672 26.4531 175.994 25.2712 174.97 24.4368V24.4368Z" fill="#C1DAEA"/>
<path d="M184.351 86.6418C184.16 86.6423 183.969 86.6545 183.779 86.6782C183.925 86.1896 183.999 85.6827 183.999 85.1731C183.993 83.8532 183.506 82.5802 182.628 81.5901C181.75 80.6001 180.542 79.96 179.226 79.7885C177.91 79.617 176.576 79.9257 175.472 80.6574C174.367 81.3891 173.567 82.4943 173.219 83.768C172.229 83.4492 171.157 83.4988 170.202 83.9078C169.246 84.3167 168.473 85.057 168.026 85.9909C167.578 86.9248 167.487 87.9886 167.77 88.9842C168.052 89.9798 168.689 90.8393 169.561 91.4027C169.031 91.9982 168.738 92.7667 168.738 93.5626C168.739 94.2087 168.931 94.8405 169.29 95.3788C169.649 95.9172 170.16 96.3383 170.758 96.5896C171.357 96.841 172.016 96.9113 172.655 96.7918C173.293 96.6724 173.882 96.3684 174.348 95.918C174.644 96.1334 174.961 96.3192 175.294 96.4728C175.194 96.8466 175.141 97.2317 175.139 97.6187C175.137 98.2635 175.278 98.9008 175.551 99.4856C175.823 100.071 176.222 100.589 176.718 101.004C177.215 101.419 177.796 101.72 178.422 101.887C179.049 102.054 179.704 102.082 180.342 101.969C180.981 101.857 181.586 101.606 182.117 101.235C182.647 100.865 183.089 100.382 183.412 99.8231C183.734 99.2638 183.929 98.6409 183.983 97.9984C184.038 97.3558 183.949 96.7093 183.725 96.1045C183.932 96.1335 184.141 96.1487 184.351 96.1499C185.593 96.1117 186.771 95.5941 187.636 94.7067C188.501 93.8193 188.985 92.6319 188.985 91.3959C188.985 90.1599 188.501 88.9724 187.636 88.085C186.771 87.1977 185.593 86.68 184.351 86.6418V86.6418Z" fill="#C1DAEA"/>
<path d="M21.3684 67.134C17.5738 68.5936 12.9244 64.333 16.6549 59.704C14.8262 58.2443 15.8594 54.7021 18.7396 54.7021C16.4537 50.7461 19.718 48.0678 23.1468 48.7908C23.3891 45.0166 27.7962 44.8939 28.898 45.867C30.7267 40.8151 43.0979 43.6752 40.588 52.2011C43.4636 52.5013 42.2429 55.3023 41.1411 55.8389C43.4636 56.9939 43.3447 63.1416 37.3466 63.6327C38.0186 66.2473 32.9989 69.4758 28.9575 67.1022C27.9197 68.8074 25.4692 67.466 25.7572 65.3333C25.1629 67.8525 21.7981 68.0434 21.3684 67.134Z" fill="#C1DAEA"/>
<path d="M21.5056 133.155C17.2219 129.431 23.2566 123.188 28.3266 126.671C31.7691 123.065 36.7203 126.248 36.8392 128.89C41.0041 127.449 42.3253 132.796 40.2817 134.956C43.6008 135.556 42.5676 141.622 38.229 140.413C40.3412 143.837 35.39 147.561 33.5796 147.738C31.7691 147.915 25.8533 147.32 25.3504 144.86C22.4519 147.261 19.1923 142.154 22.0908 140.895C15.4115 141.317 17.0253 132.614 21.5056 133.155Z" fill="#C1DAEA"/>
<path d="M80.3988 113.601L89.1445 117.657L86.9272 113.601H94.3563C96.0356 113.601 97.6461 112.938 98.8336 111.757C100.021 110.576 100.688 108.974 100.688 107.303V96.6904C100.688 95.0201 100.021 93.4182 98.8336 92.2372C97.6461 91.0561 96.0356 90.3926 94.3563 90.3926H32.7384C31.059 90.3926 29.4485 91.0561 28.2611 92.2372C27.0736 93.4182 26.4065 95.0201 26.4065 96.6904V107.294C26.4065 108.965 27.0736 110.567 28.2611 111.748C29.4485 112.929 31.059 113.592 32.7384 113.592L80.3988 113.601Z" fill="white"/>
<path d="M117.352 77.1879L108.606 81.2304L110.824 77.1698H103.395C101.715 77.1698 100.105 76.5062 98.9173 75.3252C97.7298 74.1441 97.0627 72.5422 97.0627 70.8719V60.3134C97.0627 58.6432 97.7298 57.0413 98.9173 55.8602C100.105 54.6791 101.715 54.0156 103.395 54.0156H165.017C166.696 54.0156 168.307 54.6791 169.494 55.8602C170.682 57.0413 171.349 58.6432 171.349 60.3134V70.9129C171.349 72.5832 170.682 74.185 169.494 75.3661C168.307 76.5472 166.696 77.2107 165.017 77.2107L117.352 77.1879Z" fill="white"/>
<path d="M134.341 140.621L125.59 144.678L127.808 140.621H120.378C119.547 140.621 118.724 140.459 117.955 140.142C117.187 139.826 116.489 139.362 115.901 138.777C115.313 138.192 114.847 137.498 114.529 136.734C114.21 135.97 114.047 135.151 114.047 134.324V123.72C114.047 122.049 114.714 120.448 115.901 119.266C117.089 118.085 118.699 117.422 120.378 117.422H182.001C182.833 117.422 183.656 117.585 184.424 117.901C185.192 118.218 185.89 118.682 186.478 119.266C187.066 119.851 187.533 120.546 187.851 121.31C188.169 122.074 188.333 122.893 188.333 123.72V134.324C188.333 135.151 188.169 135.97 187.851 136.734C187.533 137.498 187.066 138.192 186.478 138.777C185.89 139.362 185.192 139.826 184.424 140.142C183.656 140.459 182.833 140.621 182.001 140.621H134.341Z" fill="white"/>
<path d="M38.9968 97.2227L40.5832 100.879L44.5652 101.247L41.5616 103.875L42.4394 107.758L38.9968 105.726L35.5543 107.758L36.4367 103.875L33.4285 101.247L37.415 100.879L38.9968 97.2227Z" fill="#F26101"/>
<path d="M54.9751 97.2227L56.5569 100.879L60.5435 101.247L57.5353 103.875L58.4176 107.758L54.9751 105.726L51.5326 107.758L52.4104 103.875L49.4067 101.247L53.3887 100.879L54.9751 97.2227Z" fill="#E6F0F8"/>
<path d="M70.9533 97.2227L72.5352 100.879L76.5217 101.247L73.5135 103.875L74.3913 107.758L70.9533 105.726L67.5108 107.758L68.3886 103.875L65.3804 101.247L69.3669 100.879L70.9533 97.2227Z" fill="#E6F0F8"/>
<path d="M86.927 97.2227L88.5134 100.879L92.4954 101.247L89.4918 103.875L90.3695 107.758L86.927 105.726L83.4845 107.758L84.3668 103.875L81.3586 101.247L85.3452 100.879L86.927 97.2227Z" fill="#E6F0F8"/>
<path d="M128.247 122.869L129.833 126.525L133.815 126.893L130.811 129.522L131.689 133.405L128.247 131.372L124.809 133.405L125.686 129.522L122.678 126.893L126.665 126.525L128.247 122.869Z" fill="#F26101"/>
<path d="M144.225 122.869L145.811 126.525L149.793 126.893L146.789 129.522L147.667 133.405L144.225 131.372L140.782 133.405L141.664 129.522L138.656 126.893L142.643 126.525L144.225 122.869Z" fill="#E6F0F8"/>
<path d="M160.203 122.869L161.785 126.525L165.771 126.893L162.763 129.522L163.645 133.405L160.203 131.372L156.76 133.405L157.638 129.522L154.635 126.893L158.617 126.525L160.203 122.869Z" fill="#E6F0F8"/>
<path d="M176.177 122.869L177.763 126.525L181.75 126.893L178.742 129.522L179.619 133.405L176.177 131.372L172.739 133.405L173.617 129.522L170.608 126.893L174.595 126.525L176.177 122.869Z" fill="#E6F0F8"/>
<path d="M110.453 59.3828L112.04 63.0387L116.022 63.4071L113.018 66.0353L113.896 69.9186L110.453 67.886L107.011 69.9186L107.893 66.0353L104.885 63.4071L108.872 63.0387L110.453 59.3828Z" fill="#F26101"/>
<path d="M128.992 66.0294L129.874 69.9173L126.459 67.8983L126.431 67.8847L122.989 69.9173L123.867 66.0294L120.863 63.4057L124.845 63.0329L126.431 59.377L126.459 59.4452L128.018 63.0329L132 63.4057L128.992 66.0294Z" fill="#E6F0F8"/>
<path d="M142.41 59.3828L143.992 63.0387L147.978 63.4071L144.97 66.0353L145.848 69.9186L142.41 67.886L138.967 69.9186L139.845 66.0353L136.837 63.4071L140.823 63.0387L142.41 59.3828Z" fill="#E6F0F8"/>
<path d="M158.383 59.3828L159.97 63.0387L163.952 63.4071L160.948 66.0353L161.826 69.9186L158.383 67.886L154.941 69.9186L155.823 66.0353L152.815 63.4071L156.802 63.0387L158.383 59.3828Z" fill="#E6F0F8"/>
<path d="M12.5814 105.885H8.75484C8.62147 105.885 8.49356 105.832 8.39925 105.739C8.30494 105.645 8.25195 105.518 8.25195 105.385V105.385C8.25195 105.252 8.30494 105.125 8.39925 105.031C8.49356 104.937 8.62147 104.885 8.75484 104.885H12.5814C12.7148 104.885 12.8427 104.937 12.937 105.031C13.0313 105.125 13.0843 105.252 13.0843 105.385C13.0843 105.518 13.0313 105.645 12.937 105.739C12.8427 105.832 12.7148 105.885 12.5814 105.885Z" fill="#A9CCDF"/>
<path d="M7.10444 81.5955H6.64727C6.58346 81.5961 6.52017 81.5841 6.4611 81.5601C6.40203 81.5361 6.34836 81.5006 6.30324 81.4557C6.25812 81.4108 6.22245 81.3574 6.19831 81.2987C6.17417 81.2399 6.16205 81.177 6.16266 81.1135V80.6361C6.16462 80.5217 6.12712 80.4101 6.05641 80.3199C5.9857 80.2298 5.88605 80.1664 5.77407 80.1404C5.70492 80.1266 5.63357 80.1278 5.56493 80.1439C5.49629 80.1601 5.43197 80.1908 5.37639 80.234C5.3208 80.2772 5.27527 80.3318 5.2429 80.3942C5.21054 80.4565 5.19211 80.5251 5.18888 80.5951V81.0953C5.19221 81.1623 5.18132 81.2292 5.15693 81.2917C5.13254 81.3541 5.0952 81.4108 5.04733 81.458C4.99946 81.5052 4.94214 81.5418 4.87909 81.5655C4.81605 81.5892 4.7487 81.5994 4.68142 81.5955H4.22424C4.10927 81.5936 3.9971 81.6309 3.90643 81.7012C3.81575 81.7715 3.75204 81.8706 3.72592 81.982C3.71201 82.0508 3.71321 82.1218 3.72945 82.19C3.74569 82.2583 3.77658 82.3223 3.82 82.3776C3.86343 82.4328 3.91836 82.4781 3.98103 82.5103C4.04371 82.5425 4.11264 82.5608 4.1831 82.5641H4.68142C4.74562 82.5634 4.80929 82.5756 4.86867 82.5999C4.92804 82.6242 4.98192 82.6601 5.0271 82.7055C5.07229 82.7508 5.10786 82.8048 5.13173 82.864C5.15559 82.9233 5.16725 82.9868 5.16602 83.0506V83.5053C5.16406 83.6197 5.20157 83.7312 5.27228 83.8214C5.34299 83.9116 5.44264 83.975 5.55462 84.001C5.62377 84.0148 5.69511 84.0136 5.76375 83.9975C5.8324 83.9813 5.89672 83.9506 5.9523 83.9074C6.00788 83.8642 6.05342 83.8096 6.08578 83.7472C6.11815 83.6849 6.13658 83.6163 6.1398 83.5462V83.0506C6.13919 82.9871 6.15131 82.9242 6.17545 82.8654C6.19959 82.8067 6.23526 82.7533 6.28038 82.7084C6.3255 82.6635 6.37917 82.6281 6.43824 82.6041C6.49731 82.58 6.5606 82.568 6.62441 82.5686H7.1273C7.19776 82.5654 7.26669 82.5471 7.32937 82.5149C7.39204 82.4827 7.44697 82.4374 7.4904 82.3821C7.53382 82.3268 7.56471 82.2628 7.58095 82.1946C7.59719 82.1263 7.59839 82.0553 7.58447 81.9866C7.55996 81.8774 7.49935 81.7795 7.41232 81.7086C7.3253 81.6377 7.2169 81.5979 7.10444 81.5955V81.5955Z" fill="#7195B0"/>
<path d="M28.7608 26.9569H28.2396C28.1009 26.9557 27.9684 26.9001 27.8708 26.8022C27.7732 26.7042 27.7184 26.5719 27.7184 26.434V25.9156C27.7204 25.7924 27.6797 25.6722 27.6031 25.5753C27.5265 25.4785 27.4187 25.4108 27.2978 25.3836C27.2217 25.3682 27.143 25.3697 27.0676 25.3881C26.9921 25.4064 26.9217 25.4412 26.8613 25.4899C26.801 25.5386 26.7523 25.6 26.7187 25.6697C26.685 25.7394 26.6674 25.8156 26.6669 25.8929V26.434C26.6671 26.5681 26.6155 26.6971 26.5227 26.7945C26.43 26.8918 26.3032 26.9499 26.1686 26.9569H25.6246C25.5007 26.9545 25.3797 26.9942 25.2816 27.0694C25.1835 27.1447 25.1142 27.251 25.0851 27.3707C25.0695 27.4468 25.0711 27.5254 25.0898 27.6008C25.1086 27.6762 25.144 27.7465 25.1934 27.8066C25.2429 27.8667 25.3052 27.9151 25.3758 27.9482C25.4465 27.9814 25.5236 27.9984 25.6017 27.9982H26.1686C26.3072 27.9994 26.4398 28.0551 26.5374 28.153C26.635 28.2509 26.6898 28.3833 26.6898 28.5212V29.0395C26.6878 29.1628 26.7285 29.2829 26.8051 29.3798C26.8817 29.4767 26.9895 29.5444 27.1104 29.5715C27.1865 29.587 27.2651 29.5855 27.3406 29.5671C27.4161 29.5487 27.4865 29.5139 27.5468 29.4652C27.6072 29.4165 27.6559 29.3551 27.6895 29.2854C27.7231 29.2158 27.7408 29.1395 27.7413 29.0623V28.5212C27.7413 28.3833 27.796 28.2509 27.8936 28.153C27.9912 28.0551 28.1238 27.9994 28.2624 27.9982H28.8065C28.8846 27.9984 28.9617 27.9814 29.0323 27.9482C29.103 27.9151 29.1653 27.8667 29.2147 27.8066C29.2642 27.7465 29.2996 27.6762 29.3183 27.6008C29.3371 27.5254 29.3387 27.4468 29.3231 27.3707C29.2932 27.247 29.2205 27.1377 29.1177 27.062C29.0148 26.9863 28.8885 26.9491 28.7608 26.9569V26.9569Z" fill="#A9CCDF"/>
<path d="M139.799 1.77384H139.219C139.065 1.77386 138.918 1.71379 138.808 1.60659C138.699 1.4994 138.636 1.35368 138.634 1.2009V0.609767C138.637 0.47362 138.593 0.340491 138.51 0.232244C138.427 0.123998 138.309 0.0470684 138.176 0.0140885C138.091 -0.00352809 138.003 -0.00194678 137.918 0.0187164C137.833 0.0393796 137.754 0.078602 137.687 0.133518C137.619 0.188433 137.565 0.257654 137.528 0.336119C137.491 0.414584 137.472 0.500311 137.472 0.587031V1.2009C137.471 1.35489 137.409 1.50225 137.3 1.61114C137.19 1.72004 137.042 1.78174 136.887 1.78293H136.302C136.165 1.77907 136.031 1.82212 135.922 1.90488C135.813 1.98765 135.735 2.10511 135.703 2.23765C135.685 2.32279 135.687 2.41076 135.708 2.4952C135.729 2.57964 135.768 2.65843 135.823 2.72588C135.878 2.79333 135.948 2.84775 136.027 2.88521C136.105 2.92267 136.192 2.94222 136.279 2.94246H136.887C137.042 2.94246 137.191 3.00378 137.301 3.11293C137.411 3.22209 137.472 3.37013 137.472 3.52449V4.10198C137.468 4.2389 137.511 4.37309 137.594 4.48227C137.678 4.59145 137.796 4.66906 137.929 4.70221C138.015 4.71813 138.102 4.71533 138.186 4.69401C138.27 4.67268 138.349 4.63335 138.416 4.57876C138.483 4.52417 138.537 4.45565 138.575 4.37801C138.612 4.30036 138.632 4.21546 138.634 4.12927V3.52449C138.634 3.37013 138.695 3.22209 138.805 3.11293C138.915 3.00378 139.063 2.94246 139.219 2.94246H139.827C139.914 2.94141 140 2.92132 140.078 2.88361C140.157 2.8459 140.226 2.79149 140.281 2.72424C140.336 2.65699 140.375 2.57855 140.396 2.49446C140.417 2.41037 140.42 2.3227 140.403 2.23765C140.371 2.10306 140.294 1.98341 140.184 1.89891C140.074 1.81441 139.938 1.77023 139.799 1.77384V1.77384Z" fill="white"/>
<path d="M86.0585 16.147H81.1302C80.8877 16.147 80.6551 16.0512 80.4836 15.8806C80.3122 15.7101 80.2158 15.4788 80.2158 15.2376C80.2158 14.9964 80.3122 14.765 80.4836 14.5945C80.6551 14.4239 80.8877 14.3281 81.1302 14.3281H86.0585C86.301 14.3281 86.5336 14.4239 86.705 14.5945C86.8765 14.765 86.9729 14.9964 86.9729 15.2376C86.9729 15.4788 86.8765 15.7101 86.705 15.8806C86.5336 16.0512 86.301 16.147 86.0585 16.147Z" fill="#7195B0"/>
<path d="M181.452 48.7315H173.031C172.862 48.7315 172.7 48.6651 172.58 48.5467C172.46 48.4283 172.392 48.2675 172.391 48.0995V48.0995C172.391 47.9307 172.459 47.7687 172.579 47.6493C172.699 47.53 172.861 47.4629 173.031 47.4629H181.452C181.621 47.4641 181.783 47.5317 181.902 47.6509C182.021 47.7702 182.088 47.9314 182.088 48.0995V48.0995C182.088 48.2671 182.021 48.4279 181.902 48.5464C181.782 48.665 181.621 48.7315 181.452 48.7315V48.7315Z" fill="#7195B0"/>
<path d="M192.722 66.4164H190.171C190.104 66.4164 190.038 66.4033 189.977 66.3779C189.915 66.3526 189.859 66.3154 189.812 66.2685C189.765 66.2217 189.727 66.166 189.702 66.1048C189.676 66.0435 189.663 65.9779 189.663 65.9116C189.663 65.7773 189.717 65.6485 189.812 65.5531C189.907 65.4577 190.036 65.4035 190.171 65.4023H192.722C192.858 65.4023 192.988 65.456 193.084 65.5515C193.18 65.647 193.234 65.7766 193.234 65.9116V65.9116C193.233 66.0459 193.178 66.1743 193.082 66.2688C192.986 66.3633 192.857 66.4164 192.722 66.4164Z" fill="white"/>
<path d="M195.008 108.901H194.587C194.532 108.901 194.477 108.89 194.426 108.869C194.375 108.848 194.329 108.817 194.29 108.778C194.251 108.739 194.22 108.693 194.198 108.642C194.177 108.592 194.166 108.537 194.166 108.482V108.06C194.164 107.962 194.13 107.867 194.069 107.79C194.008 107.713 193.923 107.658 193.828 107.632C193.767 107.619 193.703 107.62 193.643 107.635C193.582 107.649 193.525 107.677 193.476 107.716C193.428 107.756 193.389 107.805 193.362 107.861C193.335 107.918 193.321 107.979 193.321 108.041V108.496C193.321 108.606 193.277 108.712 193.199 108.79C193.121 108.869 193.015 108.913 192.905 108.914H192.484C192.381 108.911 192.281 108.941 192.198 109.002C192.115 109.062 192.054 109.148 192.027 109.246C192.015 109.308 192.016 109.371 192.032 109.431C192.047 109.492 192.075 109.548 192.115 109.596C192.155 109.645 192.205 109.683 192.262 109.71C192.318 109.737 192.38 109.751 192.443 109.751H192.9C193.011 109.752 193.117 109.797 193.194 109.875C193.272 109.953 193.316 110.059 193.316 110.169V110.588C193.319 110.686 193.353 110.78 193.414 110.857C193.475 110.934 193.559 110.99 193.654 111.015C193.716 111.028 193.779 111.027 193.84 111.013C193.901 110.998 193.958 110.97 194.006 110.931C194.055 110.892 194.094 110.842 194.121 110.786C194.148 110.73 194.162 110.668 194.162 110.606V110.151C194.162 110.096 194.173 110.042 194.194 109.991C194.215 109.94 194.246 109.894 194.285 109.855C194.324 109.817 194.37 109.786 194.421 109.765C194.473 109.744 194.527 109.733 194.582 109.733H195.04C195.102 109.732 195.163 109.718 195.219 109.691C195.276 109.663 195.325 109.624 195.364 109.576C195.403 109.528 195.432 109.472 195.447 109.412C195.462 109.352 195.463 109.289 195.451 109.228C195.423 109.133 195.365 109.049 195.285 108.99C195.205 108.931 195.107 108.9 195.008 108.901Z" fill="white"/>
<path d="M171.596 155.832H165.991C165.847 155.831 165.709 155.774 165.607 155.672C165.506 155.571 165.448 155.434 165.447 155.291V155.291C165.447 155.148 165.504 155.01 165.606 154.908C165.708 154.807 165.847 154.75 165.991 154.75H171.596C171.74 154.75 171.878 154.807 171.98 154.908C172.082 155.01 172.14 155.148 172.14 155.291C172.14 155.435 172.082 155.572 171.98 155.674C171.878 155.775 171.74 155.832 171.596 155.832Z" fill="#7195B0"/>
<path d="M43.9984 159.219H41.2554C41.1802 159.219 41.1081 159.189 41.0549 159.136C41.0018 159.083 40.9719 159.012 40.9719 158.937V158.937C40.9719 158.862 41.0016 158.789 41.0547 158.736C41.1077 158.682 41.1798 158.652 41.2554 158.65H43.9984C44.074 158.652 44.1461 158.682 44.1991 158.736C44.2522 158.789 44.2819 158.862 44.2819 158.937V158.937C44.2819 159.012 44.252 159.083 44.1988 159.136C44.1457 159.189 44.0736 159.219 43.9984 159.219V159.219Z" fill="#304269"/>
<path d="M48.1586 122.602C48.4288 122.602 48.6478 122.384 48.6478 122.115C48.6478 121.847 48.4288 121.629 48.1586 121.629C47.8884 121.629 47.6694 121.847 47.6694 122.115C47.6694 122.384 47.8884 122.602 48.1586 122.602Z" fill="#A9CCDF"/>
<path d="M49.6811 78.0122C49.9512 78.0122 50.1702 77.7943 50.1702 77.5256C50.1702 77.2569 49.9512 77.0391 49.6811 77.0391C49.4109 77.0391 49.1919 77.2569 49.1919 77.5256C49.1919 77.7943 49.4109 78.0122 49.6811 78.0122Z" fill="#304269"/>
<path d="M135.534 26.6054C135.865 26.6054 136.133 26.3387 136.133 26.0097C136.133 25.6808 135.865 25.4141 135.534 25.4141C135.203 25.4141 134.935 25.6808 134.935 26.0097C134.935 26.3387 135.203 26.6054 135.534 26.6054Z" fill="#A9CCDF"/>
<path d="M104.249 25.5241C104.489 25.5241 104.684 25.3307 104.684 25.0921C104.684 24.8536 104.489 24.6602 104.249 24.6602C104.01 24.6602 103.815 24.8536 103.815 25.0921C103.815 25.3307 104.01 25.5241 104.249 25.5241Z" fill="#304269"/>
<path d="M48.8673 40.674C49.1677 40.674 49.4113 40.4318 49.4113 40.1329C49.4113 39.8341 49.1677 39.5918 48.8673 39.5918C48.5668 39.5918 48.3232 39.8341 48.3232 40.1329C48.3232 40.4318 48.5668 40.674 48.8673 40.674Z" fill="#304269"/>
<path d="M199.621 77.038C199.83 77.038 200 76.8691 200 76.6606C200 76.4522 199.83 76.2832 199.621 76.2832C199.411 76.2832 199.241 76.4522 199.241 76.6606C199.241 76.8691 199.411 77.038 199.621 77.038Z" fill="#B9D5F8"/>
<path d="M154.9 107.991C155.17 107.991 155.389 107.773 155.389 107.504C155.389 107.235 155.17 107.018 154.9 107.018C154.63 107.018 154.411 107.235 154.411 107.504C154.411 107.773 154.63 107.991 154.9 107.991Z" fill="#304269"/>
<path d="M195.867 142.785C195.867 142.882 195.838 142.976 195.785 143.056C195.731 143.136 195.654 143.198 195.565 143.235C195.476 143.272 195.377 143.281 195.282 143.263C195.188 143.244 195.1 143.197 195.032 143.129C194.964 143.061 194.917 142.975 194.898 142.88C194.879 142.786 194.889 142.688 194.926 142.599C194.963 142.51 195.026 142.434 195.106 142.381C195.187 142.327 195.281 142.299 195.378 142.299C195.508 142.299 195.632 142.35 195.724 142.441C195.815 142.533 195.867 142.656 195.867 142.785V142.785Z" fill="#B9D5F8"/>
<path d="M159.206 164.926C159.206 165.026 159.166 165.122 159.095 165.193C159.024 165.264 158.928 165.304 158.827 165.304C158.726 165.304 158.63 165.264 158.559 165.193C158.487 165.122 158.448 165.026 158.448 164.926C158.448 164.826 158.487 164.73 158.559 164.659C158.63 164.589 158.726 164.549 158.827 164.549C158.928 164.549 159.024 164.589 159.095 164.659C159.166 164.73 159.206 164.826 159.206 164.926V164.926Z" fill="white"/>
<path d="M152.234 149.438C152.535 149.438 152.779 149.195 152.779 148.897C152.779 148.598 152.535 148.355 152.234 148.355C151.934 148.355 151.69 148.598 151.69 148.897C151.69 149.195 151.934 149.438 152.234 149.438Z" fill="#A9CCDF"/>
<path d="M52.9957 167.936C53.2583 167.936 53.4712 167.724 53.4712 167.463C53.4712 167.202 53.2583 166.99 52.9957 166.99C52.7331 166.99 52.5203 167.202 52.5203 167.463C52.5203 167.724 52.7331 167.936 52.9957 167.936Z" fill="#A9CCDF"/>
<path d="M49.0272 133.319C49.0272 133.401 49.0026 133.482 48.9564 133.551C48.9101 133.62 48.8444 133.674 48.7676 133.705C48.6907 133.737 48.6062 133.745 48.5246 133.729C48.443 133.713 48.368 133.673 48.3092 133.615C48.2504 133.556 48.2103 133.481 48.1941 133.4C48.1779 133.319 48.1862 133.235 48.2181 133.159C48.2499 133.082 48.3038 133.017 48.373 132.971C48.4421 132.925 48.5235 132.9 48.6066 132.9C48.7182 132.9 48.8252 132.944 48.904 133.023C48.9829 133.101 49.0272 133.208 49.0272 133.319Z" fill="white"/>
<path d="M0.4206 99.5378C0.652891 99.5378 0.841201 99.3506 0.841201 99.1195C0.841201 98.8885 0.652891 98.7012 0.4206 98.7012C0.188309 98.7012 0 98.8885 0 99.1195C0 99.3506 0.188309 99.5378 0.4206 99.5378Z" fill="#304269"/>
<path d="M37.8632 83.1235C37.8641 83.1966 37.8431 83.2682 37.803 83.3294C37.7628 83.3906 37.7053 83.4385 37.6378 83.467C37.5702 83.4956 37.4956 83.5036 37.4234 83.4899C37.3513 83.4762 37.2849 83.4415 37.2327 83.3901C37.1804 83.3388 37.1447 83.2732 37.13 83.2016C37.1154 83.1301 37.1224 83.0558 37.1503 82.9882C37.1782 82.9206 37.2256 82.8628 37.2866 82.8222C37.3476 82.7815 37.4194 82.7598 37.4928 82.7598C37.5903 82.7598 37.6838 82.7979 37.7531 82.866C37.8224 82.9341 37.862 83.0266 37.8632 83.1235V83.1235Z" fill="#304269"/>
<path d="M126.459 59.4452V67.8983L126.431 67.8847L122.989 69.9173L123.867 66.0294L120.863 63.4057L124.845 63.0329L126.431 59.377L126.459 59.4452Z" fill="#F26101"/>
<path d="M79.722 141.036C84.8021 141.036 88.9204 136.94 88.9204 131.887C88.9204 126.834 84.8021 122.738 79.722 122.738C74.6419 122.738 70.5237 126.834 70.5237 131.887C70.5237 136.94 74.6419 141.036 79.722 141.036Z" fill="#304269"/>
<path d="M79.6534 131.736C81.1986 131.736 82.4513 130.49 82.4513 128.953C82.4513 127.416 81.1986 126.17 79.6534 126.17C78.1081 126.17 76.8555 127.416 76.8555 128.953C76.8555 130.49 78.1081 131.736 79.6534 131.736Z" fill="white"/>
<path d="M86.7305 136.16C86.6273 135.277 86.2807 134.439 85.7288 133.739C85.177 133.04 84.4414 132.505 83.6034 132.195L83.3428 132.1C82.2401 132.724 80.9931 133.052 79.7243 133.052C78.4555 133.052 77.2084 132.724 76.1057 132.1L75.8452 132.195C75.0071 132.504 74.2717 133.039 73.7205 133.739C73.1693 134.439 72.8239 135.277 72.7227 136.16C73.3783 137.19 74.254 138.064 75.2874 138.72L75.4794 137.597C75.4794 137.577 75.4876 137.557 75.5022 137.542C75.5168 137.528 75.5365 137.52 75.5571 137.52C75.5777 137.52 75.5975 137.528 75.6121 137.542C75.6267 137.557 75.6349 137.577 75.6349 137.597L75.6806 138.961C76.9148 139.654 78.3072 140.019 79.7242 140.022C81.1411 140.025 82.5352 139.666 83.7726 138.979L83.8183 137.615C83.8226 137.597 83.8328 137.582 83.8474 137.57C83.8619 137.559 83.8798 137.553 83.8983 137.553C83.9168 137.553 83.9347 137.559 83.9492 137.57C83.9637 137.582 83.974 137.597 83.9783 137.615L84.1657 138.738C85.2008 138.077 86.0766 137.197 86.7305 136.16V136.16Z" fill="white"/>
<path d="M130.838 106.351C132.799 101.69 130.589 96.3306 125.902 94.3807C121.216 92.4308 115.827 94.6289 113.867 99.2903C111.906 103.952 114.116 109.311 118.803 111.261C123.489 113.211 128.878 111.013 130.838 106.351Z" fill="#304269"/>
<path d="M122.285 102.674C122.839 102.675 123.382 102.513 123.843 102.207C124.305 101.901 124.665 101.466 124.877 100.957C125.09 100.448 125.146 99.887 125.039 99.346C124.931 98.805 124.665 98.3079 124.273 97.9176C123.881 97.5274 123.382 97.2614 122.838 97.1535C122.294 97.0456 121.73 97.1005 121.218 97.3114C120.706 97.5222 120.268 97.8795 119.96 98.3379C119.652 98.7964 119.487 99.3355 119.487 99.887C119.487 100.625 119.782 101.334 120.306 101.856C120.831 102.379 121.542 102.673 122.285 102.674V102.674Z" fill="white"/>
<path d="M129.357 107.096C129.256 106.212 128.91 105.374 128.358 104.675C127.806 103.976 127.069 103.443 126.23 103.135L125.97 103.035C124.868 103.661 123.622 103.99 122.354 103.99C121.085 103.99 119.839 103.661 118.737 103.035L118.477 103.135C117.638 103.443 116.901 103.976 116.349 104.675C115.797 105.374 115.451 106.212 115.35 107.096C116.004 108.127 116.88 109.001 117.914 109.656L118.106 108.533C118.111 108.515 118.121 108.499 118.135 108.488C118.15 108.476 118.168 108.47 118.186 108.47C118.205 108.47 118.223 108.476 118.237 108.488C118.252 108.499 118.262 108.515 118.266 108.533L118.312 109.897C119.546 110.588 120.938 110.952 122.354 110.952C123.769 110.952 125.161 110.588 126.395 109.897L126.445 108.533C126.445 108.512 126.453 108.493 126.468 108.478C126.483 108.464 126.502 108.455 126.523 108.455C126.544 108.455 126.563 108.464 126.578 108.478C126.592 108.493 126.601 108.512 126.601 108.533L126.793 109.656C127.827 109.001 128.703 108.127 129.357 107.096Z" fill="white"/>
<path d="M81.8234 79.2841C86.5299 77.3823 88.7953 72.0457 86.8832 67.3645C84.9711 62.6832 79.6057 60.4301 74.8991 62.3319C70.1926 64.2337 67.9272 69.5703 69.8393 74.2515C71.7514 78.9327 77.1168 81.1859 81.8234 79.2841Z" fill="#304269"/>
<path d="M78.2866 70.6549C78.8411 70.6549 79.3831 70.4913 79.8441 70.1848C80.305 69.8783 80.6642 69.4427 80.8762 68.9331C81.0882 68.4235 81.1434 67.8628 81.0349 67.322C80.9264 66.7812 80.659 66.2845 80.2666 65.8949C79.8743 65.5052 79.3745 65.2401 78.8305 65.1331C78.2866 65.026 77.723 65.0819 77.211 65.2936C76.699 65.5052 76.2616 65.8632 75.9542 66.3222C75.6468 66.7812 75.4832 67.3205 75.4841 67.872C75.4841 68.2379 75.5567 68.6001 75.6975 68.938C75.8384 69.276 76.0449 69.583 76.3052 69.8414C76.5655 70.0999 76.8745 70.3048 77.2145 70.4444C77.5545 70.584 77.9188 70.6555 78.2866 70.6549V70.6549Z" fill="white"/>
<path d="M85.3682 75.0736C85.2657 74.1906 84.9193 73.353 84.3673 72.6539C83.8153 71.9548 83.0793 71.4214 82.2411 71.1131L81.9805 71.0176C80.8778 71.6419 79.6308 71.9702 78.362 71.9702C77.0931 71.9702 75.8461 71.6419 74.7434 71.0176L74.4828 71.1131C73.6446 71.4208 72.9088 71.954 72.3575 72.6534C71.8061 73.3527 71.4609 74.1906 71.3604 75.0736C72.0147 76.1049 72.8906 76.9792 73.9251 77.6337L74.1171 76.5105C74.1171 76.49 74.1253 76.4704 74.1399 76.4559C74.1544 76.4414 74.1742 76.4332 74.1948 76.4332C74.2154 76.4332 74.2352 76.4414 74.2498 76.4559C74.2644 76.4704 74.2725 76.49 74.2725 76.5105L74.3183 77.8747C75.5535 78.5634 76.9459 78.925 78.362 78.925C79.778 78.925 81.1704 78.5634 82.4057 77.8747L82.4514 76.5105C82.4557 76.4927 82.466 76.4768 82.4805 76.4654C82.495 76.454 82.5129 76.4479 82.5314 76.4479C82.5499 76.4479 82.5678 76.454 82.5823 76.4654C82.5968 76.4768 82.6071 76.4927 82.6114 76.5105L82.7988 77.6337C83.8337 76.9781 84.7108 76.1041 85.3682 75.0736V75.0736Z" fill="white"/>
<path d="M109.411 40.6248H92.4588C92.2527 40.6248 92.055 40.5434 91.9093 40.3984C91.7635 40.2534 91.6816 40.0568 91.6816 39.8518C91.6816 39.6463 91.7634 39.4493 91.909 39.3036C92.0546 39.1579 92.2523 39.0754 92.4588 39.0742H109.411C109.617 39.0754 109.815 39.1579 109.961 39.3036C110.106 39.4493 110.188 39.6463 110.188 39.8518C110.188 40.0568 110.106 40.2534 109.96 40.3984C109.815 40.5434 109.617 40.6248 109.411 40.6248Z" fill="#364E6B"/>
</svg>
