<svg width="24" height="24" viewBox="0 0 24 24" fill="none" xmlns="http://www.w3.org/2000/svg">
<path fillRule="evenodd" clipRule="evenodd" d="M15.3228 16.547C13.9179 17.6831 12.1293 18.3635 10.1818 18.3635C5.66313 18.3635 2 14.7004 2 10.1817C2 5.66309 5.66313 2 10.1818 2C14.7005 2 18.3637 5.66309 18.3637 10.1817C18.3637 12.1293 17.6832 13.918 16.547 15.3229L21.7465 20.5223C22.0845 20.8604 22.0845 21.4084 21.7465 21.7465C21.4084 22.0845 20.8603 22.0845 20.5223 21.7465L15.3228 16.547ZM16.6364 10.1817C16.6364 13.7464 13.7466 16.6362 10.1818 16.6362C6.61708 16.6362 3.72727 13.7464 3.72727 10.1817C3.72727 6.61703 6.61708 3.72726 10.1818 3.72726C13.7466 3.72726 16.6364 6.61703 16.6364 10.1817Z" fill="#424242"/>
</svg>
